<svg width="1000" height="1000" viewBox="0 0 1000 1000" fill="none" xmlns="http://www.w3.org/2000/svg">
<rect width="1000" height="1000" fill="#8C5E58"/>
<rect x="190.963" y="351.415" width="618.075" height="297.17" rx="56" fill="#F7F7F4"/>
<path d="M283.541 568.123H318.46V521.093H362.866V492.027H318.46V461.145H369.931V431.877H283.541V568.123Z" fill="#8C5E58"/>
<path d="M400.627 568.123H489.641V538.653H435.546V514.028H482.375V484.962H435.546V461.145H489.641V431.877H400.627V568.123Z" fill="#8C5E58"/>
<path d="M516.36 460.943H539.976V539.057H516.36V568.123H598.512V539.057H574.896V460.943H598.512V431.877H516.36V460.943Z" fill="#8C5E58"/>
<path d="M630.069 568.123H664.988V521.093H709.395V492.027H664.988V461.145H716.459V431.877H630.069V568.123Z" fill="#8C5E58"/>
</svg>
