<svg id="Layer_1" data-name="Layer 1" xmlns="http://www.w3.org/2000/svg" viewBox="0 0 1983.85 718.07"><defs><style>.cls-1{fill:#f4f3ef}.cls-2{fill:#2b2a26}.cls-3{fill:#dbd9d5}.cls-4{fill:#dad8d4}.cls-5{fill:#f0b94a}.cls-6{fill:#fc714e}.cls-7{fill:#2f2e2a}.cls-8{fill:#302f2b}.cls-9{fill:#6bb3c7}.cls-10{fill:#a0b1b2}.cls-11{fill:#c5c3bf}.cls-12{fill:#c4c2be}.cls-13{fill:#b0aeaa}.cls-14{fill:#fe6e4a}</style></defs><title>lhfs-wireframe</title><path class="cls-1" d="M465.82 637.06v.39q108.63.83 217.26 1.62 90.14.54 180.28.69c21.3.06 42.61.44 63.91-.37 3.79-.14 4.15-.53 4-4.24-.76-26.54-.67-53.09-.47-79.64.51-68.67 1.3-137.35 1.66-206 .26-49.2-.1-98.41 0-147.61.13-46 .24-92.1.75-138.14.2-18.13.67-36.28-.93-54.38-.34-3.85-2.37-5.81-6.27-6.05-2.57-.16-5.15-.3-7.73-.37-49-1.34-97.93-1.7-146.9-1.94-98.32-.48-196.65-.19-295-.53Q350.52.06 224.65.49C159.34.72 94.01-.64 28.72 2.32c-8.56.39-17.12.71-25.69 1.09-1.33.06-3.07.1-2.27 2.15a10.85 10.85 0 0 1 .58 4.13q-.21 41.55-.47 83.1C.44 159.36-.25 225.92.03 292.49.32 359.7.5 426.91-.08 494.12c-.19 21.52.59 43.05.72 64.58.15 25.55-.33 51.1.51 76.65.11 3.35.22 3.43 3.66 3.45 3.91 0 7.83.1 11.74.05 37-.41 74-1 111-1.24q80.25-.48 160.49-.5 88.95-.15 177.78-.05z"/><path class="cls-2" d="M465.82 637.06H288.16q-80.25.11-160.49.5c-37 .22-74 .82-111 1.24-3.91 0-7.83 0-11.74-.05-3.44 0-3.55-.11-3.66-3.45-.84-25.54-.36-51.1-.51-76.65-.13-21.53-.9-43.06-.72-64.58.58-67.21.4-134.42.11-201.63-.28-66.57.4-133.13.84-199.7q.27-41.55.47-83.1a10.85 10.85 0 0 0-.58-4.13c-.79-2 .94-2.09 2.27-2.15 8.56-.38 17.13-.7 25.69-1.09C94.13-.73 159.46.67 224.77.44q125.86-.45 251.73 0c98.32.34 196.65.05 295 .53 49 .24 97.94.6 146.9 1.94 2.58.07 5.15.21 7.73.37 3.9.24 5.93 2.21 6.27 6.05 1.61 18.1 1.13 36.26.93 54.38-.51 46-.62 92.1-.75 138.14-.14 49.2.22 98.41 0 147.61-.36 68.67-1.15 137.35-1.66 206-.2 26.55-.29 53.1.47 79.64.11 3.71-.25 4.1-4 4.24-21.3.81-42.61.42-63.91.37q-90.14-.24-180.28-.69-108.63-.65-217.26-1.62v-.39zM167.38 329.73h1.5q27.31.6 54.62.68c2 0 2.51-.52 2.44-2.46-.15-4.07 0-8.15 0-12.22q0-22.78-.1-45.57a35.29 35.29 0 0 1 5.45-4.69c0 1.08.06 2.17.06 3.25v210c0 2.1.37 2.76 2.65 2.74q34.42-.38 68.84-.49 80.87-.2 161.73-.28 97.3-.17 194.61-.36 80.65-.07 161.3.11c34.79.12 69.57.61 104.36 1 1.85 0 2.56-.27 2.56-2.38q-.15-52.14-.14-104.28V204.07c.05-44.17.18-88.34.64-132.51.21-20.36 1.09-40.71.53-61.07-.06-2.3-.81-3.33-3.17-3.39-7.73-.19-15.45-.62-23.18-.73-48.72-.69-97.45-.23-146.17-.23q-125.48 0-251-.33-136-.33-272-.14c-2.57 0-3.11.67-3.06 3.14.24 10.8.29 21.61.37 32.41q.53 78.43 1 156.86c.12 20.56.13 41.12.19 61.68a34.09 34.09 0 0 1-5.43 4.53c.06-20.94.07-41.88.2-62.82q.58-96.59 1.29-193.18c0-2.1-.5-2.6-2.58-2.59-26.39.1-52.78.2-79.18.09-46.64-.19-93.28 1-139.92.63-1.8 0-1.95.69-1.94 2.17q.48 65.39.89 130.78.54 94 .93 188.06c0 2.57.64 3.15 3.14 3.12 24.39-.26 48.78-.38 73.16-.54-.12 1-.21 2-.37 3-2.33 14.14.12 27.15 10.13 37.84 11 11.72 24.78 16 40.58 13.68 15.43-2.25 26.65-10.39 32.92-24.74 4.19-9.68 4.67-19.8 2.15-30.06zm411.92 303.1q46.28.38 92.56.77c57.4.52 114.79.64 172.19.67 27.46 0 54.93 0 82.38 1.2 2 .09 2.35-.53 2.29-2.27q-.38-12.11-.62-24.23c-.8-40.71-.8-81.47-.8-122.22 0-2.18-.42-3-2.8-2.91-14 .66-28 .42-41.94.5-41.32.25-82.63.75-123.95.8-59 .07-118-.21-177-.3q-119.73-.19-239.45-.35c-36.1-.08-72.2-.37-108.3-.63-2 0-2.63.46-2.59 2.58.12 8.07.08 16.15 0 24.22q-.68 59.26-1.47 118.51c0 2.12.37 2.82 2.67 2.78 11.82-.18 23.64-.18 35.47-.2q155.67-.24 311.36 1.08zM116.03 487.59h-13.69q-46.79-.34-93.57-.69c-3.8 0-3.35-.53-3.4 3.23q-.16 13.23-.39 26.45c-.64 39.17-1.3 78.34-1.21 117.52 0 2 .63 2.26 2.39 2.27 20.74.17 41.45-.8 62.17-1.35q77.94-2.06 155.91-3c2.59 0 3.25-.67 3.22-3.25q-.85-69.94-1.48-139.94c0-1.74-.63-2.08-2.18-1.87a39.83 39.83 0 0 1-5 .25c-34.24.15-68.5.94-102.77.38zm4.73-67.49v-.27H72.57c-2.89 0-3 .32-2.34 3a7.72 7.72 0 0 1 .06 2q-.18 11.62-.37 23.23c-.05 3.32.07 3.46 3.49 3.55h92.64c4.73 0 5-.27 5.09-5.13.12-8.32.14-16.64.23-25 0-1.43-.74-1.56-1.91-1.56q-24.35.2-48.69.18z"/><path class="cls-1" d="M231.37 259.83c-.06-20.56-.07-41.12-.19-61.68q-.47-78.43-1-156.86c-.07-10.8-.12-21.61-.37-32.41-.06-2.46.49-3.13 3.06-3.14q136 0 272 .14 125.48.31 251 .33c48.73 0 97.45-.47 146.17.23 7.73.11 15.45.54 23.18.73 2.36.06 3.11 1.09 3.17 3.39.56 20.36-.32 40.71-.53 61.07-.45 44.17-.59 88.34-.64 132.51q-.1 85.36 0 170.71 0 52.14.14 104.28c0 2.1-.7 2.4-2.56 2.38-34.79-.38-69.57-.88-104.36-1q-80.65-.27-161.3-.11-97.3.09-194.61.36l-161.73.28q-34.42.09-68.84.49c-2.29 0-2.66-.64-2.65-2.74q.08-105 0-210c0-1.08 0-2.17-.06-3.25q8.27-7 16.53-14.09 50.58-43.24 101.16-86.47c.5-.43.91-1.23 2.06-.84-.49 1.51-1 3-1.46 4.47-.41 1.3-.49 2.59 1.05 3.13s2.31-.51 2.76-1.8c1.25-3.53 2.53-7.06 3.7-10.62.82-2.51-.26-3.71-2.88-3.28-3.53.57-7 1.24-10.58 1.82-1.39.23-2.85.51-2.66 2.29.2 2 1.8 1.84 3.27 1.7s2.92-.87 5.15-.15c-.83.57-1.27.81-1.64 1.13q-11.24 9.33-22.47 18.68-30.78 25.66-61.54 51.33-16.17 13.42-32.33 26.99zm325.71 84.94v.91H317.32c-.93 0-2.32-.39-2.39 1.06-.08 1.66 1.41 1.28 2.42 1.3 3.08.06 6.16.08 9.24.11 63.67.68 127.34 1.63 191 2 87.43.47 174.86.74 262.28-.83 7-.13 14-.46 20.92-1.1.89-.08 2 0 2-1.33s-1.16-1.09-2-1.14c-2.41-.12-4.81-.32-7.22-.39-16.46-.49-32.93-.59-49.4-.6q-93.56-.03-187.08-.01zm9 71.24v-.48h-24.37l-175.94.66c-13 0-26 .06-39 .11-1 0-2.48-.39-2.44 1.27 0 1.42 1.33 1.13 2.32 1.14 29.1.3 58.2.7 87.31.89q87.41.57 174.82 1c46.49.26 93-.19 139.48-.58 25.44-.21 50.89-.43 76.32-1.19 1 0 2.49.24 2.53-1.28s-1.29-1.19-2.28-1.19c-31.77-.12-63.54-.3-95.31-.34q-71.71-.1-143.44-.03zm-11.9-32.83h-54q-69.81.22-139.63.54c-14.41.07-28.82 0-43.22.5-1 0-2.51-.41-2.44 1.27.06 1.38 1.37 1.15 2.36 1.12 17.55-.48 35.1 0 52.66.09q77.82.5 155.63.81c52.69.17 105.37.14 158.06.25 35.74.07 71.48-.08 107.2-1.08 1.06 0 2.79.47 2.84-1.17.06-2-1.83-1.25-2.9-1.28-16.29-.42-32.58-1-48.88-1.12-62.56-.56-125.11-.02-187.69.05zm58.46-329.35h-43.36c-23.1.07-46.2-.76-69.3 0-1 0-2 .12-3 .23a1.65 1.65 0 1 0-.09 3.29 9.62 9.62 0 0 0 1.73.21c2-.18 2.38.82 2.35 2.67-.14 7.74-.15 15.49-.14 23.24 0 3.26.23 3.4 3.42 3.38 26.53-.18 53.07.31 79.6.39 44.07.13 88.13.83 132.19.45 3.57 0 7.15-.19 10.71-.47 1.16-.09 2.85 0 2.7-2.06-.69-9.32-.26-18.64 0-28 .07-2.34-.72-3.12-3-3-5 .28-10 .49-15 .54-32.92.36-65.87-.55-98.81-.87zm-205.2 261.4v.71c21.7 0 43.39-.05 65.09 0 11.54 0 23.07.36 34.61-.16 3.87-.17 4.1-.47 4.13-4.2q.14-16.23.3-32.46c0-4.62-.09-4.78-4.69-4.78-33.79 0-67.59-.05-101.38 0-31.53.08-63.05-1-94.59-.59-5.49.07-5.45.1-5.55 5.4-.2 10.82-.64 21.65-.42 32.48.06 3.21.42 3.55 3.62 3.55h98.88zm5.4-266.4c-37.54 0-66.54 29.59-66.79 68.21-.29 37.68 28.84 66.9 66.62 66.83s68.76-31 69.23-68c.4-33.28-32.85-68.34-69.06-67.04zm316.12 131.55v-.13h33.48a10.51 10.51 0 0 0 1.74-.08c.75-.13 1.53-.37 1.54-1.33a1.36 1.36 0 0 0-1.51-1.34c-1.74-.12-3.49-.17-5.24-.2-21.23-.29-42.46.26-63.69-.29-12.22-.31-24.45-.53-36.69-.33-23.81.39-47.62.08-71.43.52-21.48.4-43 .38-64.44.54h-1c-.71 0-1.36.2-1.37 1.09a1.24 1.24 0 0 0 1.3 1.25c1.16.11 2.32.13 3.49.15 21.4.21 42.8.2 64.19.34 35.72.24 71.43.75 107.15-.15 10.82-.27 21.65-.04 32.48-.04zm-52.37-57.23v.11h40a32.29 32.29 0 0 0 4.46-.44 1.73 1.73 0 0 0 1.64-1.62 1.75 1.75 0 0 0-1.71-1.81 33.69 33.69 0 0 0-4.71-.45c-34.81-.19-69.62-.3-104.43.3-19.65.34-39.3 0-59 .49-9.82.26-19.66.09-29.49.11h-1.75a1.16 1.16 0 0 0-1.27 1.23 1.22 1.22 0 0 0 1.35 1.18h2.25c15.24.14 30.48 0 45.72.31 22.31.47 44.63.07 66.95.5 13.34.31 26.7.1 39.99.1zm-3.08 28.5c17.82-.13 35.65.73 53.46-.29 1.39-.08 3.56.47 3.6-1.64s-2.25-1.66-3.54-1.73c-5.4-.3-10.81-.49-16.22-.49-12.49 0-25 0-37.47.2-29.57.41-59.14 0-88.71.51-17.41.3-34.83.14-52.24.2-1 0-2.49-.32-2.53 1.25 0 1.71 1.51 1.17 2.48 1.18 8.49.11 17 .13 25.48.28 22.48.4 45 .11 67.46.48 16.07.23 32.15.05 48.23.05z"/><path class="cls-3" d="M579.3 632.83q-155.69-1.14-311.38-1.1c-11.82 0-23.65 0-35.47.2-2.31 0-2.7-.67-2.67-2.78q.81-59.26 1.47-118.51c.09-8.07.14-16.15 0-24.22 0-2.12.54-2.59 2.59-2.58 36.1.27 72.2.55 108.3.63q119.72.26 239.45.35c59 .09 118 .37 177 .3 41.32 0 82.63-.55 123.95-.8 14-.08 28 .16 41.94-.5 2.38-.11 2.8.72 2.8 2.91 0 40.75 0 81.51.77 122.26q.23 12.12.62 24.23c.06 1.74-.27 2.36-2.29 2.27-27.45-1.16-54.91-1.19-82.38-1.2-57.4 0-114.79-.15-172.19-.67q-46.23-.41-92.51-.79z"/><path class="cls-4" d="M81.95 330.06c-24.39.16-48.78.28-73.16.54-2.5 0-3.13-.55-3.14-3.12q-.36-94-.93-188.06-.42-65.39-.9-130.78c0-1.48.14-2.18 1.94-2.17 46.64.42 93.27-.82 139.92-.63 26.39.11 52.78 0 79.18-.09 2.08 0 2.6.5 2.58 2.59q-.72 96.59-1.29 193.18c-.13 20.94-.13 41.88-.2 62.82-.4.42-.78.87-1.22 1.24q-23.61 20.18-47.24 40.33c-2.3 2-4.42 4.17-7.14 5.88-.19-1.52.54-2.6.9-3.75.45-1.42.95-2.94-.87-3.59-2-.71-2.56.87-3.07 2.37-.69 2-1.52 4.06-2.13 6.13s-1.87 3.93-1.63 6.21l-.4.31a16.57 16.57 0 0 1-1-1.38c-6.59-11-16.51-17.26-28.67-20.33-2.48-.63-5.08-.81-7.6-1.3-2.82-.54-5 1.37-7.55 1.77-13.46 2.11-23.74 8.93-31.09 20.33-2.36 3.57-3.63 7.61-5.29 11.5zm40.8-290.84v.19H45.59c-2.32 0-4.65.23-7 .37-1.46.09-2.42 1.09-1.82 2.3 1.72 3.44 1 7 .9 10.52-.41 12.32-.57 24.64-.42 37 0 3.25.4 3.51 3.65 3.52 10.07 0 20.14 0 30.2.12l116 1c5.73 0 11.47-.39 17.2-.66 1.8-.08 3-1 2.91-3-.53-15.47-.17-30.94.06-46.41 0-3.2-.59-3.84-3.71-3.89zm-18.95 77.86c-4.49 0-9-.05-13.46 0-15.73.21-31.45.49-47.18.64-2.41 0-3.4.69-3.35 3.28.12 6.58 0 13.16-.09 19.74 0 2.43.78 3.31 3.35 3.32 30.72.08 61.44.31 92.15.41 9.65 0 19.3-.24 29-.29 2.36 0 3.41-.71 3.35-3.34-.15-6.49 0-13 0-19.49 0-3.19-.3-3.44-3.37-3.54-20.13-.65-40.27-.66-60.4-.73zm1 166.94v.34h13.24c15.81.14 31.62.26 47.42-.19 3.32-.09 3.5-.29 3.51-3.59 0-6.25.07-12.49.09-18.74 0-3.84-.11-3.92-3.89-4-27.78-.71-55.56-1.16-83.35-.58-12.48.26-25 .4-37.45.5-2.22 0-3.09.72-3.06 3 .09 6.75 0 13.49-.09 20.24 0 2.23.81 3 3.12 3 20.15-.01 40.3.02 60.45.02zm-.5-71.92H90.59c-15.65.2-31.29.48-46.94.63-2.42 0-3.39.7-3.35 3.28.12 6.58 0 13.16-.09 19.74 0 2.43.79 3.31 3.35 3.32q41.33.07 82.67.37c12.81.09 25.62 0 38.43-.24 2.36 0 3.41-.71 3.35-3.34-.15-6.49 0-13 0-19.49 0-3.19-.3-3.44-3.37-3.54-20.07-.67-40.21-.69-60.34-.73zm-.23-48.38c-6.73 0-13.47-.06-20.2 0-13.48.14-27 .39-40.44.52-2.16 0-3.14.61-3.11 3 .09 6.66 0 13.33-.1 20 0 2.41.74 3.33 3.33 3.34 30.8.08 61.6.31 92.4.41 9.57 0 19.13-.19 28.7-.32 1.68 0 3.36.07 3.33-2.53-.07-6.91 0-13.83.1-20.74 0-2.24-.85-3-3.11-3.1-20.3-.61-40.6-.66-60.9-.58z"/><path class="cls-3" d="M116.03 487.59c34.26.56 68.52-.23 102.79-.36a39.83 39.83 0 0 0 5-.25c1.56-.2 2.17.13 2.18 1.87q.66 69.95 1.47 139.89c0 2.59-.63 3.22-3.22 3.25q-78 .88-155.91 3c-20.72.55-41.43 1.53-62.17 1.35-1.76 0-2.38-.31-2.39-2.27-.09-39.18.58-78.35 1.21-117.52q.21-13.23.39-26.45c0-3.76-.4-3.26 3.4-3.23q46.79.32 93.57.69c4.55.06 9.12.03 13.68.03z"/><path class="cls-5" d="M120.77 420.1h48.69c1.17 0 1.93.12 1.91 1.56-.09 8.32-.11 16.65-.23 25-.07 4.86-.36 5.13-5.09 5.13H73.41c-3.41-.09-3.54-.23-3.49-3.55q.19-11.62.37-23.23a7.72 7.72 0 0 0-.06-2c-.7-2.73-.55-3 2.34-3h48.19v.28z"/><path class="cls-4" d="M225.81 270.15l.1 45.57c0 4.08-.12 8.15 0 12.22.07 1.95-.48 2.47-2.44 2.46q-27.32-.07-54.62-.68h-1.5a82.91 82.91 0 0 0-4.23-10.28l.4-.31a3.32 3.32 0 0 0 2.93 1c3.76-.67 7.53-1.28 11.29-2 1.34-.24 2.53-.9 2.25-2.44s-1.51-1.74-2.92-1.59-2.93.83-4.82.51c.52-.49.73-.73 1-.93l25.88-21.52q13.33-10.96 26.68-22.01z"/><path class="cls-6" d="M225.81 270.15q-13.34 11.05-26.67 22.11-12.96 10.75-25.84 21.57c-.24.2-.46.43-1 .93 1.89.32 3.34-.35 4.82-.51s2.66.1 2.92 1.59-.92 2.2-2.25 2.44c-3.76.67-7.53 1.29-11.29 2a3.32 3.32 0 0 1-2.93-1c-.24-2.27 1-4.16 1.63-6.21s1.42-4.24 2.1-6.24c.51-1.5 1.09-3.07 3.07-2.37 1.82.65 1.32 2.17.87 3.59-.36 1.15-1.1 2.23-.9 3.75 2.72-1.71 4.83-3.92 7.14-5.88q23.65-20.12 47.24-40.33c.44-.38.81-.83 1.22-1.24a34.06 34.06 0 0 0 5.43-4.53q16.17-13.53 32.35-27.06 30.76-25.68 61.54-51.33 11.22-9.36 22.47-18.68c.38-.31.81-.56 1.64-1.13-2.22-.72-3.68 0-5.15.15s-3.07.26-3.27-1.7c-.19-1.77 1.27-2.06 2.66-2.29 3.53-.58 7-1.25 10.58-1.82 2.62-.43 3.7.77 2.88 3.28-1.16 3.56-2.44 7.09-3.7 10.62-.46 1.28-1.22 2.33-2.76 1.8s-1.47-1.83-1.05-3.13c.47-1.48 1-3 1.46-4.47-1.16-.38-1.56.42-2.06.84q-50.59 43.22-101.16 86.47-8.25 7.06-16.53 14.09a35.34 35.34 0 0 0-5.46 4.69zM163.15 319.45a82.91 82.91 0 0 1 4.23 10.28c2.53 10.25 2 20.38-2.18 30.05-6.27 14.35-17.49 22.49-32.92 24.74-15.8 2.31-29.6-2-40.58-13.68-10-10.69-12.46-23.69-10.13-37.84.16-1 .25-2 .38-3 1.66-3.88 2.94-7.93 5.26-11.53 7.36-11.4 17.63-18.22 31.09-20.33 2.53-.4 4.74-2.31 7.55-1.77 2.52.49 5.12.67 7.6 1.3 12.16 3.08 22.08 9.37 28.67 20.33a16.57 16.57 0 0 0 1.03 1.45zm2.35 21.38c-.54-5-.14-10.57-3.22-15.78-3.23-5.46-6-11.17-11.06-15.23-8.13-6.56-17.14-10.66-28-9.58-3.74.37-7.49.59-11 1.86-15.33 5.49-24.94 16.25-27.81 32.24-2.48 13.84.9 26.4 11.41 36.25a42.56 42.56 0 0 0 49.87 5.91c13.51-7.53 19.7-19.77 19.81-35.67z"/><path class="cls-7" d="M557.09 344.75h187c16.47 0 32.94.1 49.4.6 2.41.07 4.82.27 7.22.39.89 0 2-.25 2 1.14s-1.12 1.24-2 1.33c-7 .65-13.94 1-20.92 1.1-87.42 1.57-174.85 1.3-262.28.83-63.67-.34-127.34-1.29-191-2-3.08 0-6.16-.05-9.24-.11-1 0-2.5.36-2.42-1.3.07-1.44 1.45-1.06 2.39-1.06h239.85v-.92z"/><path class="cls-8" d="M566.08 415.99h143.47c31.77 0 63.54.22 95.31.34 1 0 2.32-.23 2.28 1.19s-1.5 1.25-2.53 1.28c-25.43.76-50.88 1-76.32 1.19-46.49.39-93 .84-139.48.58q-87.41-.49-174.82-1c-29.1-.19-58.2-.59-87.31-.89-1 0-2.28.28-2.32-1.14 0-1.67 1.44-1.27 2.44-1.27 13-.05 26-.06 39-.11l175.94-.66h24.37v.46zM554.17 383.16c62.57-.07 125.15-.6 187.72-.07 16.3.14 32.59.69 48.88 1.12 1.07 0 3-.71 2.9 1.28-.05 1.64-1.78 1.14-2.84 1.17-35.73 1-71.46 1.16-107.2 1.08-52.69-.11-105.37-.08-158.06-.25q-77.82-.25-155.63-.81c-17.55-.11-35.1-.56-52.66-.09-1 0-2.3.26-2.36-1.12-.07-1.69 1.46-1.23 2.44-1.27 14.4-.54 28.81-.43 43.22-.5q69.81-.32 139.63-.54c17.98-.05 35.97 0 53.96 0zM612.64 53.83c32.95.29 65.89 1.21 98.84.89 5 0 10-.26 15-.54 2.29-.13 3.08.66 3 3-.27 9.32-.69 18.64 0 28 .16 2.11-1.54 2-2.7 2.06-3.56.28-7.14.43-10.71.47-44.07.39-88.13-.32-132.19-.45-26.58-.09-53.08-.58-79.58-.43-3.19 0-3.41-.12-3.42-3.38 0-7.75 0-15.49.14-23.24 0-1.84-.31-2.84-2.35-2.67a9.62 9.62 0 0 1-1.73-.21 1.65 1.65 0 1 1 .09-3.29c1-.1 2-.19 3-.23 23.1-.75 46.2.08 69.3 0 14.4.02 28.85.02 43.31.02zm2.72 4.36h-61.34c-16.12 0-32.24.13-48.36-.35-1.65 0-2.35.21-2.32 2.09.12 7.25.12 14.5.06 21.74 0 2.06.48 2.78 2.78 2.77q61.12-.41 122.31-.61c32-.05 64.09-.37 96.14.4 1.13 0 2.21.39 2.18-1.6-.12-8.08-.09-16.16 0-24.24 0-1.6-.62-1.72-1.92-1.64-4 .24-8 .45-12 .52-32.49.56-65.02.48-97.54.94z"/><path class="cls-7" d="M407.44 315.23h-98.87c-3.2 0-3.55-.34-3.62-3.55-.22-10.83.23-21.65.42-32.48.1-5.3.05-5.33 5.55-5.4 31.53-.39 63.06.67 94.59.59 33.79-.09 67.59 0 101.38 0 4.6 0 4.74.16 4.69 4.78q-.17 16.23-.3 32.46c0 3.73-.27 4-4.13 4.2-11.53.52-23.07.2-34.61.16-21.7-.07-43.39 0-65.09 0v-.76zm1.16-3.3v-.22c13.39 0 26.79.06 40.18 0 19.6-.11 39.19-.5 58.78.45 1.48.07 1.23-.68 1.23-1.46v-32c0-1.51-.62-1.79-1.92-1.76-2.58.05-5.16 0-7.74 0-35.51-.11-71 1.27-106.52 1.4-27.7.11-55.41.66-83.1-.58-2-.09-1.68.89-1.72 2-.33 10.07-.48 20.14-.17 30.22.07 2.26.62 2.87 2.89 2.85q49.06-.53 98.09-.9z"/><path class="cls-6" d="M412.84 48.83c36.21-1.29 69.49 33.78 69.06 67-.47 37.05-31.47 68-69.23 68s-66.91-29.15-66.62-66.83c.25-38.58 29.25-68.17 66.79-68.17zm-.32 130.59a42.74 42.74 0 0 0 10.55-.82c17.09-3.41 31.2-11.75 41.58-25.89a61.16 61.16 0 0 0 11.74-46.14c-1.85-13.35-8.79-24-17.87-33.56-9.83-10.31-22.78-15.34-35.43-20.87a3.42 3.42 0 0 0-1-.23c-12.33-1.42-24.34-.13-35.54 5.37-27.62 13.55-41.15 42.42-35.54 72.19s30.45 49.91 61.51 49.94z"/><path class="cls-9" d="M728.96 180.38c-10.83 0-21.66-.23-32.47 0-35.72.9-71.44.39-107.15.15-21.4-.14-42.8-.13-64.19-.34-1.16 0-2.33 0-3.49-.15a1.24 1.24 0 0 1-1.36-1.21c0-.89.66-1.06 1.37-1.09h1c21.48-.16 43-.14 64.44-.54 23.81-.44 47.62-.13 71.43-.52 12.24-.2 24.47 0 36.69.33 21.23.55 42.46 0 63.69.29 1.75 0 3.5.07 5.24.2a1.36 1.36 0 0 1 1.51 1.34c0 1-.78 1.2-1.54 1.33a10.51 10.51 0 0 1-1.74.08h-33.43v.13zM676.59 123.16c-13.32 0-26.65.21-40 0-22.32-.43-44.64 0-66.95-.5-15.24-.32-30.48-.17-45.72-.31h-2.25a1.22 1.22 0 0 1-1.35-1.18 1.16 1.16 0 0 1 1.27-1.23h1.75c9.83 0 19.67.15 29.49-.11 19.65-.52 39.3-.15 59-.49 34.81-.6 69.62-.49 104.43-.3a33.69 33.69 0 0 1 4.71.45 1.75 1.75 0 0 1 1.71 1.81 1.73 1.73 0 0 1-1.64 1.62 32.29 32.29 0 0 1-4.46.44h-40v-.11zM673.51 151.65c-16.08 0-32.16.22-48.23-.05-22.49-.38-45-.08-67.46-.48-8.5-.15-17-.17-25.48-.28-1 0-2.51.54-2.48-1.18 0-1.56 1.49-1.24 2.53-1.25 17.41-.06 34.83.09 52.24-.2 29.57-.5 59.14-.11 88.71-.51 12.49-.17 25-.21 37.47-.2 5.41 0 10.82.19 16.22.49 1.29.07 3.58-.39 3.54 1.73s-2.21 1.56-3.6 1.64c-17.81 1.02-35.67.16-53.46.29z"/><path class="cls-7" d="M122.74 39.21l80.83 1.09c3.12 0 3.76.68 3.71 3.89-.23 15.47-.59 30.94-.06 46.41.07 2-1.1 2.88-2.91 3-5.73.27-11.47.7-17.2.66q-58-.42-116-1c-10.07-.09-20.13-.09-30.2-.12-3.25 0-3.61-.27-3.65-3.52-.15-12.32 0-24.64.42-37 .11-3.49.82-7.08-.9-10.52-.6-1.21.36-2.21 1.82-2.3 2.32-.15 4.65-.37 7-.37h77.16v-.22zm-.55 51.29c26.55-.31 53.11 0 79.66-.41 2 0 2.7-.53 2.68-2.63q-.19-21.11-.14-42.22c0-1.71-.63-2.13-2.14-2.14-4.49 0-9-.17-13.47-.2-47.86-.32-95.71.36-143.56.86-4.95.05-4.84 0-5 5-.35 12.82-.62 25.65-.21 38.47.11 3.55-.52 3.26 3.48 3.27q39.37.02 78.7 0zM103.8 117.08c20.13.06 40.27.07 60.39.75 3.07.1 3.37.36 3.37 3.54 0 6.5-.19 13 0 19.49.06 2.63-1 3.33-3.35 3.34-9.65.05-19.3.32-29 .29-30.72-.1-61.44-.33-92.15-.41-2.57 0-3.4-.89-3.35-3.32.12-6.58.21-13.16.09-19.74 0-2.59.94-3.25 3.35-3.28 15.73-.15 31.46-.44 47.18-.64 4.49-.07 8.97-.02 13.47-.02zm-.21 3.49h-25.2q-17-.08-33.93-.28c-1.52 0-2.22.2-2.19 2 .09 5.58.12 11.16-.07 16.73-.08 2.32.79 2.73 2.86 2.67 5.07-.14 10.15 0 15.23-.06 34.2-.2 68.39-.69 102.59-.13 1.85 0 2.21-.63 2.19-2.29-.09-5.49-.11-11 0-16.48 0-2-.65-2.42-2.55-2.48-19.65-.69-39.29-.3-58.93.32zM104.79 284.02H44.35c-2.31 0-3.15-.8-3.12-3 .09-6.75.18-13.5.09-20.24 0-2.32.84-3 3.06-3 12.48-.1 25-.24 37.45-.5 27.79-.58 55.57-.14 83.35.58 3.78.1 3.9.18 3.89 4 0 6.25-.06 12.49-.09 18.74 0 3.3-.19 3.5-3.51 3.59-15.81.45-31.61.34-47.42.19h-13.24v-.34zm.23-2.44v-.17c19.56 0 39.12-.05 58.67.07 2.41 0 2.91-.71 2.85-2.92-.14-5.41-.07-10.82 0-16.24 0-1.4-.31-2.09-1.93-2.09-4.24 0-8.49-.28-12.73-.31q-35.58-.23-71.16.68c-11.57.29-23.12-.37-34.69-.34-1.76 0-2.26.47-2.23 2.22.09 5.41.1 10.83-.06 16.24-.06 2.24.57 2.92 2.89 2.91 19.44-.09 38.92-.05 58.39-.05zM104.3 212.1c20.13 0 40.27.06 60.4.73 3.07.1 3.37.36 3.37 3.54 0 6.5-.19 13 0 19.49.06 2.63-1 3.3-3.35 3.34-12.81.22-25.62.33-38.43.24q-41.33-.31-82.67-.37c-2.57 0-3.4-.88-3.35-3.32.12-6.58.21-13.16.09-19.74 0-2.58.93-3.26 3.35-3.28 15.65-.15 31.29-.42 46.94-.63 4.51-.05 9.08 0 13.65 0zm-.28 24.48v-.17c19.56 0 39.12-.05 58.67.07 2.42 0 2.9-.73 2.84-2.93-.14-5.41-.07-10.82 0-16.24 0-1.41-.32-2.08-1.94-2.08-4.24 0-8.49-.28-12.73-.31q-35.58-.23-71.16.68c-11.57.29-23.12-.37-34.69-.34-1.77 0-2.25.49-2.23 2.23.09 5.41.1 10.83-.06 16.24-.07 2.25.58 2.91 2.9 2.9 19.46-.09 38.93-.05 58.4-.05zM104.07 163.72c20.3-.08 40.6 0 60.9.58 2.26.07 3.14.86 3.11 3.1-.1 6.91-.17 13.83-.1 20.74 0 2.6-1.65 2.51-3.33 2.53-9.57.13-19.13.35-28.7.32-30.8-.1-61.6-.34-92.4-.41-2.59 0-3.37-.93-3.33-3.34.12-6.66.19-13.33.1-20 0-2.38.95-3 3.11-3 13.48-.13 27-.37 40.44-.52 6.73-.06 13.43 0 20.2 0zm-.06 24.36v-.17c19.56 0 39.12-.05 58.67.06 2.4 0 2.91-.7 2.86-2.92-.14-5.41-.07-10.82 0-16.24 0-1.4-.3-2.09-1.93-2.09-4.24 0-8.49-.28-12.73-.31q-35.58-.23-71.16.68c-11.57.29-23.12-.37-34.69-.34-1.76 0-2.27.47-2.24 2.22.09 5.41.1 10.83-.06 16.24-.06 2.23.56 2.93 2.89 2.92 19.45-.09 38.92-.05 58.39-.05z"/><path class="cls-10" d="M165.5 340.83c-.12 15.92-6.3 28.17-19.81 35.67a42.56 42.56 0 0 1-49.87-5.91c-10.51-9.85-13.89-22.41-11.41-36.25 2.87-16 12.48-26.75 27.81-32.24 3.54-1.27 7.29-1.49 11-1.86 10.84-1.08 19.84 3 28 9.58 5 4.06 7.83 9.77 11.06 15.23 3.08 5.19 2.68 10.78 3.22 15.78z"/><path class="cls-4" d="M615.35 58.21c32.52-.46 65-.41 97.56-.95 4-.07 8-.28 12-.52 1.3-.08 1.94 0 1.92 1.64-.09 8.08-.12 16.16 0 24.24 0 2-1.05 1.62-2.18 1.6-32-.77-64.09-.45-96.14-.4q-61.15.1-122.31.63c-2.3 0-2.8-.71-2.78-2.77.06-7.25.06-14.5-.06-21.74 0-1.88.67-2.14 2.32-2.09 16.12.48 32.24.33 48.36.35q30.65.04 61.31.01zM408.6 311.93q-49 .43-98.06.91c-2.27 0-2.82-.58-2.89-2.85-.3-10.08-.15-20.15.17-30.22 0-1.14-.27-2.13 1.72-2 27.69 1.24 55.4.69 83.1.58 35.51-.14 71-1.52 106.52-1.4 2.58 0 5.16.09 7.74 0 1.3 0 1.93.25 1.92 1.76-.06 10.66 0 21.32 0 32 0 .77.25 1.53-1.23 1.46-19.59-1-39.18-.56-58.78-.45-13.39.07-26.79 0-40.18 0v.22z"/><path class="cls-10" d="M412.52 179.41c-31.06 0-55.84-20.07-61.47-49.95s7.92-58.64 35.54-72.19c11.2-5.49 23.21-6.78 35.54-5.37a3.42 3.42 0 0 1 1 .23c12.65 5.53 25.6 10.56 35.43 20.87 9.08 9.52 16 20.22 17.87 33.56a61.16 61.16 0 0 1-11.74 46.14c-10.39 14.13-24.54 22.48-41.63 25.89a42.74 42.74 0 0 1-10.54.82z"/><path class="cls-11" d="M122.19 90.5H43.52c-4 0-3.37.29-3.48-3.27-.41-12.83-.14-25.65.21-38.47.13-4.95 0-4.93 5-5 47.85-.51 95.7-1.18 143.56-.86 4.49 0 9 .17 13.47.2 1.51 0 2.14.43 2.14 2.14q0 21.11.14 42.22c0 2.1-.65 2.6-2.68 2.63-26.58.4-53.13.1-79.69.41z"/><path class="cls-12" d="M103.59 120.57c19.64-.62 39.28-1 58.92-.35 1.9.06 2.59.51 2.55 2.48-.11 5.49-.09 11 0 16.48 0 1.66-.34 2.32-2.19 2.29-34.2-.56-68.39-.07-102.59.13-5.08 0-10.16-.08-15.23.06-2.07.06-2.94-.36-2.86-2.67.19-5.57.16-11.16.07-16.73 0-1.77.68-2 2.19-2q17 .21 33.93.28c8.41.07 16.81.03 25.21.03z"/><path class="cls-13" d="M105.02 281.58c-19.47 0-38.94 0-58.42.05-2.32 0-3-.67-2.89-2.91.16-5.41.15-10.82.06-16.24 0-1.75.47-2.22 2.23-2.22 11.57 0 23.12.62 34.69.34q35.57-.88 71.16-.68c4.24 0 8.49.31 12.73.31 1.62 0 1.94.69 1.93 2.09 0 5.41-.11 10.83 0 16.24.06 2.21-.45 2.93-2.85 2.92-19.56-.12-39.11-.07-58.67-.07v.17zM104.02 236.58c-19.47 0-38.94 0-58.42.05-2.31 0-3-.65-2.9-2.9.16-5.41.15-10.82.06-16.24 0-1.74.45-2.23 2.23-2.23 11.57 0 23.12.63 34.69.34q35.57-.88 71.16-.68c4.24 0 8.49.31 12.73.31 1.62 0 2 .68 1.94 2.08 0 5.41-.11 10.83 0 16.24.06 2.2-.43 2.94-2.84 2.93-19.56-.12-39.11-.07-58.67-.07v.17zM104.01 188.08c-19.47 0-38.94 0-58.42.06-2.33 0-2.95-.68-2.89-2.92.15-5.41.15-10.82.06-16.24 0-1.75.48-2.21 2.24-2.22 11.57 0 23.12.62 34.69.34q35.57-.88 71.16-.68c4.24 0 8.49.31 12.73.31 1.63 0 1.94.7 1.93 2.09 0 5.41-.11 10.83 0 16.24.06 2.21-.46 2.93-2.86 2.92-19.56-.12-39.11-.06-58.67-.06v.17z"/><path class="cls-1" d="M1512.85 639.6v1c29.36 0 58.71-.14 88.07 0 68.5.41 137 1 205.5 1.44 41.14.24 82.29.27 123.43.31 14.89 0 29.79.28 44.67-.43 3.47-.17 3.88-.61 3.78-4-.75-26.54-.67-53.09-.47-79.64.51-68.75 1.3-137.5 1.66-206.25.26-49.61-.08-99.21 0-148.82.12-46.46.28-92.92.75-139.37.18-17.21.63-34.44-.92-51.63-.39-4.33-2.34-6.22-6.71-6.39-7.65-.29-15.3-.57-23-.74-47-1-93.92-1.47-140.89-1.62q-176.82-.52-353.76-.63-87.65-.11-175.3.05c-1.34 0-3.2.63-2.89-2a1 1 0 0 0-1-.94 1 1 0 0 0-1.26.94c.18 2.47-1.49 2-2.91 2-66.3.6-132.62-1-198.89 2l-22.69 1c-1.33.06-2.91.3-2.22 2 1.06 2.69.73 5.41.72 8.1q-.3 54.15-.74 108.3c-.47 61.41-.86 122.81-.59 184.22.28 62.63.38 125.27-.15 187.9-.2 23.53.53 47.06.7 70.59.17 23.71-.28 47.43.48 71.15.08 2.5 1.06 3.16 3.3 3.12 4.08-.07 8.16.07 12.24 0 36.83-.41 73.66-1 110.49-1.24q80.36-.48 160.72-.51 88.94-.02 177.88.09zm471-159.94a1.81 1.81 0 1 0-3.6.35 1.64 1.64 0 0 0 1.8 1.64 1.75 1.75 0 0 0 1.79-2z"/><path class="cls-2" d="M1512.85 639.6h-177.87q-80.36.11-160.72.51c-36.83.22-73.66.83-110.49 1.24-4.08 0-8.16-.09-12.24 0-2.24 0-3.22-.62-3.3-3.12-.76-23.71-.31-47.43-.48-71.15-.17-23.53-.9-47.06-.7-70.59.54-62.63.43-125.27.15-187.9-.27-61.41.12-122.82.59-184.22q.41-54.15.74-108.3c0-2.69.34-5.42-.72-8.1-.69-1.74.89-2 2.22-2l22.69-1c66.27-3 132.59-1.39 198.89-2 1.43 0 3.1.49 2.91-2a1 1 0 0 1 1.26-.94 1 1 0 0 1 1 .94c-.31 2.59 1.55 2 2.89 2q87.65 0 175.3-.05 176.94.22 353.87.64c47 .15 93.93.58 140.89 1.62 7.65.17 15.3.45 23 .74 4.37.16 6.31 2.06 6.71 6.39 1.56 17.19 1.1 34.42.92 51.63-.47 46.46-.63 92.92-.75 139.37-.13 49.61.22 99.21 0 148.82-.36 68.75-1.16 137.5-1.66 206.25-.2 26.55-.28 53.1.47 79.64.1 3.38-.32 3.82-3.78 4-14.88.71-29.78.45-44.67.43-41.14 0-82.29-.07-123.43-.31-68.5-.4-137-1-205.5-1.44-29.36-.17-58.71 0-88.07 0q-.12-.61-.12-1.1zm-298.46-307.32c18.39.27 36.78.73 55.18.6 4 0 3.34.51 3.34-3.2.08-39.38 0-78.77.2-118.15q.51-100.2 1.34-200.4c0-2.29-.56-2.84-2.84-2.83-29.3.11-58.61.22-87.91.11-43.64-.16-87.27 1.07-130.92.61-1.78 0-2 .66-1.95 2.16q.48 65.38.89 130.77.54 94.15.94 188.3c0 2.25.52 2.92 2.85 2.9 24.55-.26 49.11-.4 73.66-.57-.06.33-.11.65-.17 1-2.9 14.2-1 27.48 8.71 38.69 10.9 12.53 25 17.08 41.32 14.87 14.41-2 25.39-9.24 32-22.27 5.27-10.36 6.11-21.34 3.36-32.59zM1624.97 8.7v-.33h-104.42q-120.77 0-241.53-.06c-1.77 0-2.22.44-2.19 2.2.18 11.05.27 22.11.34 33.16.37 54.7.92 109.4 1 164.09q.29 136.85.08 273.71c0 2.18.6 2.57 2.58 2.55 22.95-.21 45.9-.42 68.84-.48q80.86-.2 161.72-.27l194.59-.34q81.77-.07 163.54.12c34.12.11 68.24.61 102.36 1 1.73 0 2.42-.24 2.42-2.26q-.16-52.26-.15-104.53V206.55c.05-45.83.2-91.66.7-137.49.2-18.69 1-37.38.47-56.08-.07-2.18-.81-3.2-3-3.26-6.4-.17-12.79-.54-19.19-.64-42.82-.69-85.65-.45-128.48-.39q-99.84.14-199.68.01zm1.33 626.71q46.28.38 92.56.77c57.4.53 114.79.64 172.19.68 27.13 0 54.26.09 81.38 1.1 3.31.12 3.31.13 3.23-3.2-.2-7.74-.46-15.48-.6-23.23-.76-40.85-.76-81.7-.76-122.52 0-2.07-.48-2.71-2.58-2.61-14 .62-28 .41-41.94.5-41.4.25-82.8.76-124.2.8-64.42.06-128.84-.21-193.26-.32q-116.72-.19-233.43-.36c-32.61-.07-65.23-.34-97.84-.62-2.34 0-2.84.65-2.81 2.87.12 8 .07 16 0 24q-.68 59.38-1.46 118.76c0 1.95.44 2.51 2.44 2.48 11.82-.15 23.65-.18 35.47-.19q155.84-.22 311.61 1.09zm-463.4-145.26h-13.45q-47.16-.35-94.32-.76c-2.1 0-2.84.36-2.82 2.68 0 9-.17 18-.31 27-.63 39.25-1.31 78.51-1.2 117.77 0 1.87.66 2.1 2.28 2.12 20.82.18 41.61-.81 62.42-1.36q77.94-2.06 155.91-3c2.6 0 3.1-.71 3.07-3.16q-.66-48.39-1.14-96.78-.23-21.56-.34-43.11c0-1.56-.31-2.25-2.07-2a38.66 38.66 0 0 1-5.48.27c-34.15.1-68.37.88-102.55.33zm4.22-35.91v.12h15.48q15.86 0 31.72-.07c3.05 0 3.58-.55 3.81-3.62 0-.58.05-1.17.06-1.75.07-8.24.11-16.48.2-24.72 0-1.41-.7-1.58-1.9-1.59-12.41 0-24.81-.08-37.22-.11q-29.84-.08-59.69-.13c-2.89 0-3.06.35-2.36 3a7.57 7.57 0 0 1 .07 2q-.18 11.74-.37 23.48c0 3 .17 3.22 3.23 3.33h46.96zM1983.84 479.65a1.75 1.75 0 0 1-1.81 2 1.64 1.64 0 0 1-1.8-1.64 1.814 1.814 0 1 1 3.61-.36z"/><path class="cls-1" d="M1624.97 8.7h199.68c42.83-.06 85.66-.3 128.48.39 6.4.1 12.79.48 19.19.64 2.24.06 3 1.07 3 3.26.56 18.7-.27 37.39-.47 56.08-.5 45.83-.65 91.66-.7 137.49q-.1 85.35 0 170.71 0 52.26.15 104.53c0 2-.69 2.28-2.42 2.26-34.12-.37-68.24-.86-102.36-1q-81.77-.27-163.54-.12-97.3.08-194.59.34-80.86.14-161.72.27c-22.95.06-45.9.26-68.84.48-2 0-2.58-.37-2.58-2.55q.06-136.85-.08-273.71c-.12-54.7-.67-109.4-1-164.09-.07-11.05-.16-22.11-.34-33.16 0-1.76.42-2.2 2.19-2.2q120.77.08 241.53.06h104.42v.33zm131.74 394.59c30.39.09 56.74 1 83.09.27 9.31-.26 18.63-.37 27.93-1.16 3.28-.28 4.35-1.53 4.22-4.83-.05-1.33-.11-2.66-.29-4-2.81-20.39-2-40.85-1.05-61.29.46-9.38 1.57-18.74 1.54-28.15 0-7.35-.68-8-8.14-8.19-44.9-.9-89.79-2-134.7-1.67-22 .16-43.93-.2-65.89.48a22.4 22.4 0 0 0-6.08 1.23 2.4 2.4 0 0 0-1.83 3 32.6 32.6 0 0 1 .26 5.23c.38 26.38-.32 52.75-.8 79.12-.09 4.81 0 9.63.1 14.45 0 1.68.26 3.32 2.68 3.37 34.33.76 68.66 1.5 98.96 2.14zm-296.8.5c30.17.08 56.51 1 82.86.27 9.31-.26 18.63-.37 27.93-1.15 3.29-.28 4.37-1.53 4.24-4.81-.05-1.33-.11-2.66-.29-4-2.82-20.39-2-40.85-1.05-61.29.45-9.38 1.57-18.74 1.54-28.15 0-7.37-.67-8.06-8.11-8.21-44.81-.89-89.63-2-134.45-1.67-22 .16-44.1-.2-66.14.47a22.21 22.21 0 0 0-6.08 1.23 2.39 2.39 0 0 0-1.85 3 32.57 32.57 0 0 1 .26 5.23c.38 26.38-.32 52.75-.8 79.12-.09 4.9 0 9.8.12 14.69 0 1.62.38 3.1 2.63 3.15 34.33.74 68.67 1.48 99.19 2.16zm170.74-197.96c66.23-.54 142.63.91 219-1.22 4.07-.11 8.14-.2 12.21-.28a1.49 1.49 0 0 0 1.72-1.1 1.1 1.1 0 0 0-.87-1.32 7.35 7.35 0 0 0-1.74-.14c-15-.39-29.92-.81-44.87-1.16-26.54-.63-53.08-.24-79.62-.24q-82.7 0-165.4.22c-63.78.26-127.55 1.2-191.33 1.27h-1.45a1.09 1.09 0 0 0-1.13 1.1 1.14 1.14 0 0 0 1.19 1.3h1.75l58.59.57c60.6.45 121.18 1 191.95 1zm-17.9 31.59v-.52q-70.63.38-141.25.77-56.5.33-113 .73c-1.06 0-2.71-.51-2.62 1.33.08 1.61 1.61 1.08 2.6 1.08 47.3.27 94.61.63 141.91.76 45.83.13 91.66 0 137.49 0 44.55.06 89.1.33 133.65.31 31.42 0 62.85-.26 94.27-1 1.35 0 3.87 1 3.92-1.24s-2.49-1.29-3.82-1.31c-24.18-.37-48.36-.86-72.54-.9q-90.31-.11-180.61.03zm3.17-153.59v-1h-46.84c-22.27.06-44.54-.72-66.8.05-1.43 0-3.67-.55-3.88 1.66-.24 2.45 2.13 1.91 3.51 2 1.73.13 2.15.7 2.12 2.41-.15 7.83-.16 15.66-.15 23.49 0 3.27.23 3.42 3.4 3.4 26.62-.16 53.23.33 79.84.39 43.81.1 87.62.89 131.43.4 3.74 0 7.48-.16 11.2-.43 1.15-.08 2.88.08 2.73-2-.69-9.32-.26-18.64 0-28 .07-2.32-.67-3.13-3-3-5.91.28-11.82.55-17.73.56q-47.92.14-95.83.07zm100.16 49c-34.29-.36-66.29.23-98.3.15-2.15 0-2.74.89-2.74 2.81q0 12.37-.11 24.73c0 2.23 1 3 3.21 3 9.75-.09 19.5 0 29.24 0l148.41.44c4.66 0 9.32-.13 14-.31 1.22 0 2.72.06 2.71-2 0-8.74.06-17.49.13-26.23 0-1.76-.81-2.37-2.48-2.23-1.82.15-3.66.26-5.49.27-30.3.19-60.58-.57-88.58-.63zm-232.52 27.86h51.27c7.81 0 15.63-.27 23.44-.44 2 0 3.66-.52 3.5-3.09-.48-8 0-16 .19-24 .06-2.35-.93-3.05-3.11-3-5.41.11-10.82.07-16.22.13-43.89.45-87.78-1-131.67-.38a2.07 2.07 0 0 1-1.36-.26c-.38-1-.78-1.79-1.95-1.2-1 .5-.76 1.61-.77 2.47-.08 8.49-.14 17-.14 25.47 0 3.2.32 3.41 3.44 3.47 24.45.47 48.92.52 73.38.79z"/><path class="cls-3" d="M1626.3 635.41q-155.81-1.16-311.63-1.12c-11.82 0-23.65 0-35.47.19-2 0-2.47-.54-2.44-2.48q.8-59.38 1.46-118.76c.09-8 .14-16 0-24 0-2.22.47-2.89 2.81-2.87 32.61.28 65.23.54 97.84.62q116.71.26 233.43.36c64.42.11 128.84.37 193.26.32 41.4 0 82.8-.55 124.2-.8 14-.08 28 .13 41.94-.5 2.1-.09 2.58.54 2.58 2.61 0 40.84 0 81.67.77 122.5.14 7.74.4 15.49.6 23.23.09 3.33.08 3.33-3.23 3.2-27.12-1-54.25-1.09-81.38-1.1-57.4 0-114.8-.15-172.19-.68q-46.23-.39-92.55-.72zM1129.17 332.57c-24.55.17-49.11.31-73.66.57-2.33 0-2.84-.65-2.85-2.9q-.39-94.15-.94-188.3-.37-65.38-.89-130.77c0-1.49.16-2.18 1.95-2.16 43.64.46 87.27-.77 130.92-.61 29.3.11 58.61 0 87.91-.11 2.27 0 2.86.54 2.84 2.83q-.75 100.2-1.34 200.4c-.2 39.38-.12 78.77-.2 118.15 0 3.71.67 3.17-3.34 3.2-18.4.13-36.78-.33-55.18-.6-4.53-14.12-13.28-24.43-27.26-29.9a40.59 40.59 0 0 0-17.51-3.19c-1.77.11-2.8 1.58-4.58 1.7a34.94 34.94 0 0 0-13.92 4.45c-11.17 5.98-18.3 15.21-21.95 27.24zm49.86-290.68h-82.16a108 108 0 0 0-11 .41c-1.68.17-2.82 1.05-2 2.54 1.4 2.65 1 5.37.88 8-.38 13.07-.67 26.14-.48 39.21 0 3.27.39 3.53 3.62 3.54 10.15 0 20.3 0 30.45.11l116 1c5.65 0 11.3-.38 16.95-.65 1.78-.08 3-.9 2.94-2.93-.54-15.47-.18-30.94.06-46.41 0-3.3-.57-3.87-3.93-3.92zm-28.47 104.67v.34h13c15.48.13 31 .24 46.42-.15 4.47-.11 4.46-.07 4.48-4.64 0-6 .09-12 .11-18 0-3.49-.2-3.66-3.66-3.75-27.94-.71-55.88-1.14-83.83-.58q-18.59.37-37.19.5c-2.23 0-3.08.74-3 3.05.09 6.75 0 13.49-.09 20.24 0 2.24.84 3 3.13 3 20.18-.04 40.37-.01 60.63-.01zm.29 95v.45c8.49 0 17-.05 25.47 0 11.73.09 23.46 0 35.18-.31 3.25-.07 3.44-.3 3.46-3.39 0-6.41.08-12.83.09-19.24 0-3.44-.21-3.62-3.7-3.71-27.94-.72-55.88-1.14-83.83-.58-12.4.25-24.79.36-37.19.54-1.57 0-3 0-3 2.31 0 7 0 14-.12 21 0 2.28.93 3 3.18 3 20.18-.1 40.32-.07 60.46-.07zm1.34 18.28c-8.81 0-17.63-.06-26.44 0-11.48.1-23 .34-34.45.46-2 0-3 .6-3 2.87.08 6.75 0 13.49-.1 20.24 0 2.31.76 3.18 3.22 3.19 31.63.09 63.26.31 94.88.42 8.82 0 17.64-.23 26.46-.29 2.23 0 3.28-.68 3.23-3.2-.13-6.58 0-13.16 0-19.74 0-3-.35-3.32-3.23-3.42-20.14-.66-40.35-.67-60.57-.54zm-1.27-66.77v.49h39.19c7.24 0 14.48-.19 21.72-.34 1.46 0 3.14.13 3.14-2.19q0-10.74.09-21.49c0-1.91-.87-2.62-2.76-2.64-4.83-.06-9.66-.34-14.49-.4-24.61-.31-49.23-.72-73.84-.16-11.23.26-22.47.35-33.7.53-1.43 0-2.89-.06-2.89 2.12 0 7.16-.05 14.33-.12 21.49 0 2.09 1 2.65 3 2.64q30.32-.1 60.66-.06zM1162.9 490.15c34.18.55 68.36-.23 102.53-.38a38.66 38.66 0 0 0 5.48-.27c1.76-.26 2.06.43 2.07 2q.12 21.56.34 43.11.52 48.39 1.14 96.78c0 2.44-.47 3.13-3.07 3.16q-78 .87-155.91 3c-20.8.55-41.6 1.54-62.42 1.36-1.62 0-2.28-.25-2.28-2.12-.11-39.26.57-78.52 1.2-117.77.14-9 .35-18 .31-27 0-2.32.72-2.7 2.82-2.68q47.16.45 94.32.76c4.5.08 8.98.05 13.47.05z"/><path class="cls-14" d="M1129.17 332.57c3.64-12 10.77-21.26 22-27.22a34.94 34.94 0 0 1 13.92-4.45c1.78-.13 2.81-1.59 4.58-1.7a40.59 40.59 0 0 1 17.51 3.19c14 5.47 22.73 15.78 27.26 29.9 2.75 11.24 1.92 22.23-3.33 32.55-6.64 13-17.62 20.31-32 22.27-16.3 2.22-30.42-2.33-41.32-14.87-9.75-11.21-11.6-24.48-8.71-38.69-.01-.32.04-.65.09-.98zM1167.12 454.24h-46.97c-3.06-.1-3.27-.32-3.23-3.33q.18-11.74.37-23.48a7.57 7.57 0 0 0-.07-2c-.7-2.69-.54-3 2.36-3q29.84 0 59.69.13c12.41 0 24.81.1 37.22.11 1.2 0 1.91.18 1.9 1.59-.09 8.24-.14 16.48-.2 24.72 0 .58 0 1.17-.06 1.75-.23 3.07-.76 3.61-3.81 3.62q-15.86.06-31.72.07h-15.48v-.12z"/><path class="cls-2" d="M1756.71 403.29c-30.29-.64-64.63-1.39-99-2.08-2.42 0-2.64-1.69-2.68-3.37-.11-4.81-.18-9.63-.1-14.45.48-26.37 1.18-52.74.8-79.12a32.6 32.6 0 0 0-.26-5.23 2.4 2.4 0 0 1 1.83-3 22.4 22.4 0 0 1 6.08-1.23c22-.68 43.93-.32 65.89-.48 44.91-.33 89.81.77 134.7 1.67 7.46.15 8.11.84 8.14 8.19 0 9.41-1.08 18.76-1.54 28.15-1 20.45-1.76 40.9 1.05 61.29.18 1.32.24 2.65.29 4 .13 3.3-.94 4.55-4.22 4.83-9.29.79-18.61.9-27.93 1.16-26.31.68-52.66-.24-83.05-.33zm6.24-104.46c-13.55 0-27.11-.09-40.66 0-20.86.17-41.72 1-62.59.68-1.71 0-1.59.79-1.57 2 .57 31.55 0 63.1.12 94.65 0 2 .35 2.69 2.54 2.71 68.38.61 136.75 1.71 205.12-1 1.89-.07 2.56-.65 2.39-2.42-.32-3.48-.72-6.95-.94-10.43q-1.46-23.79-.57-47.62c.43-11.89 1.73-23.73 1.69-35.64 0-1.8-.58-2.37-2.23-2.4-2.74 0-5.48-.25-8.22-.29-31.73-.54-63.39-.82-95.08-.24zM1459.91 403.83c-30.52-.65-64.86-1.39-99.2-2.08-2.25 0-2.59-1.53-2.63-3.15-.11-4.9-.2-9.8-.12-14.69.47-26.37 1.18-52.74.8-79.12a32.57 32.57 0 0 0-.26-5.23 2.39 2.39 0 0 1 1.85-3 22.21 22.21 0 0 1 6.08-1.23c22-.67 44.09-.31 66.14-.47 44.83-.33 89.64.78 134.45 1.67 7.44.15 8.09.84 8.11 8.21 0 9.41-1.09 18.76-1.54 28.15-1 20.45-1.76 40.9 1.05 61.29.18 1.32.24 2.65.29 4 .13 3.28-1 4.53-4.24 4.81-9.29.78-18.61.89-27.93 1.15-26.34.69-52.68-.31-82.85-.31zm5.77-104.49c-13.39 0-26.78-.11-40.17 0-20.95.21-41.89 1-62.84.71-1.74 0-1.57.84-1.55 2 .57 31.55 0 63.1.11 94.65 0 2 .41 2.67 2.57 2.69 25.72.3 51.43.68 77.15.62 41.91-.1 83.83.5 125.72-1.57 5-.25 5.12-.14 4.5-5.22-1.94-15.81-1.74-31.7-1.63-47.57.09-14.4 1.89-28.72 1.93-43.13 0-2-.65-2.63-2.51-2.64-2.66 0-5.31-.23-8-.28-31.73-.57-63.51-.85-95.28-.3zM1630.65 205.83c-70.77 0-131.36-.6-192-1.06l-58.62-.48h-1.75a1.14 1.14 0 0 1-1.19-1.3 1.09 1.09 0 0 1 1.13-1.1h1.5c63.78-.07 127.55-1 191.33-1.27q82.7-.34 165.4-.22c26.54 0 53.08-.39 79.62.24 15 .36 29.92.77 44.87 1.16a7.35 7.35 0 0 1 1.74.14 1.1 1.1 0 0 1 .87 1.32 1.49 1.49 0 0 1-1.72 1.1c-4.07.08-8.14.17-12.21.28-76.32 2.19-152.74.69-218.97 1.19zM1612.75 237.46h180.59c24.18 0 48.36.53 72.54.9 1.33 0 3.87-1 3.82 1.31s-2.56 1.21-3.92 1.24c-31.42.73-62.84 1-94.27 1-44.55 0-89.1-.25-133.65-.31-45.83-.06-91.66.09-137.49 0-47.3-.13-94.61-.48-141.91-.76-1 0-2.52.53-2.6-1.08-.09-1.84 1.56-1.32 2.62-1.33q56.5-.39 113-.73 70.63-.41 141.25-.77v.52zM1615.92 83.83h95.83c5.91 0 11.82-.28 17.73-.56 2.32-.11 3.06.69 3 3-.27 9.32-.69 18.64 0 28 .16 2.11-1.58 1.95-2.73 2-3.73.27-7.47.39-11.2.43-43.81.49-87.62-.3-131.43-.4-26.61-.06-53.23-.56-79.84-.39-3.17 0-3.39-.13-3.4-3.4 0-7.83 0-15.66.15-23.49 0-1.71-.39-2.29-2.12-2.41-1.38-.1-3.74.44-3.51-2 .21-2.21 2.45-1.61 3.88-1.66 22.27-.77 44.53 0 66.8-.05h46.84v1zm2.4 3.4h-61.31c-16.11 0-32.23.12-48.34-.35-1.63 0-2.36.19-2.32 2.08q.19 11 .07 22c0 2.12.73 2.55 2.74 2.53 27.69-.24 55.38-.49 83.07-.54 45.27-.07 90.54-.55 135.8.36 1.45 0 1.8-.35 1.79-1.76-.06-8-.07-16 0-24 0-1.68-.56-1.89-2-1.8-4 .26-8 .46-12 .52-32.52.56-64.99.56-97.52.98zM1716.08 132.83c28 .1 58.28.85 88.57.56 1.83 0 3.66-.13 5.49-.27 1.67-.13 2.49.48 2.48 2.23-.07 8.74-.15 17.49-.13 26.23 0 2.11-1.49 2-2.71 2-4.65.18-9.32.32-14 .31q-74.21-.2-148.41-.44c-9.75 0-19.5-.08-29.24 0-2.25 0-3.23-.75-3.21-3q.09-12.37.11-24.73c0-1.92.59-2.82 2.74-2.81 32.02.11 64.02-.48 98.31-.08zm-2.26 27.34c31.47-.11 62.95-.11 94.42.62 1.5 0 1.86-.45 1.84-1.81q-.14-10.86-.16-21.73c0-1.34-.44-1.56-1.75-1.54q-26.2.34-52.4.52c-28.51.2-57 0-85.53.53-16.47.33-32.95.73-49.39-.79-3.4-.32-3.46-.2-3.45 3.31q0 8 .17 16c.1 5.81.13 5.84 5.91 5.79q45.17-.48 90.35-.94zM1483.56 160.65c-24.46-.27-48.93-.32-73.39-.81-3.12-.06-3.44-.28-3.44-3.47 0-8.49.07-17 .14-25.47 0-.87-.22-2 .77-2.47 1.16-.59 1.57.25 1.95 1.2a2.07 2.07 0 0 0 1.36.26c43.89-.63 87.78.82 131.67.38 5.41-.05 10.82 0 16.22-.13 2.19 0 3.18.65 3.11 3-.21 8-.67 16-.19 24 .15 2.57-1.51 3-3.5 3.09-7.81.17-15.62.41-23.44.44-17.08.02-34.17-.02-51.26-.02zm-8.26-27.35c-15.43-.22-39.81.6-64.18-.37-1.39-.06-1.86.27-1.85 1.71.05 6.74.1 13.49-.07 20.23-.05 2.13.61 2.56 2.61 2.59 20.55.29 41.1 0 61.64-.08 27.94-.09 55.88-.27 83.81-.34 1.69 0 2-.51 2-2.11-.08-6.49-.1-13 0-19.48 0-2.14-.34-3-2.76-2.92-24.02.42-48.13.91-81.2.77zM1179.03 41.89l71.33 1c3.36 0 4 .62 3.93 3.92-.23 15.47-.6 30.94-.06 46.41.07 2-1.16 2.85-2.94 2.93-5.65.27-11.3.69-16.95.65q-58-.43-116-1c-10.15-.09-20.3-.08-30.45-.11-3.23 0-3.57-.27-3.62-3.54-.19-13.08.09-26.14.48-39.21.08-2.67.52-5.39-.88-8-.79-1.48.35-2.36 2-2.54a108 108 0 0 1 11-.41c24.23-.1 48.43-.1 82.16-.1zm-9.67 51.17v-.45h79.63c1.88 0 2.58-.47 2.56-2.5q-.19-21.23-.15-42.46c0-1.51-.47-2-2-2-4.32 0-8.64-.18-13-.21-48-.33-96 .35-144 .85-5.17.05-5.07.05-5.22 5.24-.37 12.74-.61 25.47-.22 38.21.11 3.59-.52 3.3 3.44 3.3q39.53.04 78.97.02zM1150.56 146.56h-60.68c-2.29 0-3.16-.77-3.13-3 .09-6.75.18-13.5.09-20.24 0-2.31.82-3 3-3.05q18.6-.16 37.19-.5c27.95-.56 55.89-.13 83.83.58 3.46.09 3.67.25 3.66 3.75 0 6-.08 12-.11 18 0 4.57 0 4.53-4.48 4.64-15.47.39-30.95.29-46.42.15h-13v-.34zm0-2.39c19.64-.44 39.28-.53 58.92-.14 2.1 0 2.68-.54 2.62-2.63-.15-5.33-.14-10.66 0-16 0-2-.51-2.61-2.62-2.68-17.07-.55-34.14-.35-51.21-.15-22.21.26-44.41.85-66.62.21-1.88-.05-2.4.44-2.37 2.32.11 5.41.11 10.83-.06 16.24-.07 2.3.68 2.87 2.92 2.86 19.47-.06 38.94-.02 58.42-.02zM1150.85 241.56h-60.43c-2.25 0-3.21-.68-3.18-3 .1-7 .17-14 .12-21 0-2.29 1.4-2.29 3-2.31 12.4-.18 24.8-.29 37.19-.54 28-.56 55.89-.14 83.83.58 3.49.09 3.71.27 3.7 3.71 0 6.41-.06 12.83-.09 19.24 0 3.09-.21 3.32-3.46 3.39-11.73.27-23.45.4-35.18.31-8.49-.07-17 0-25.47 0v-.45zm.15-23.42h-25q-17-.09-33.95-.32c-1.65 0-2.35.28-2.31 2.13.11 5.74.06 11.49 0 17.24 0 1.53.48 2 2 2 5.57-.08 11.15 0 16.73 0 33.88-.17 67.76-.64 101.64-.11 1.8 0 2.48-.39 2.44-2.33q-.19-8.12 0-16.24c0-2-.49-2.64-2.61-2.71-19.64-.67-39.29-.34-58.94.34zM1152.19 259.83c20.21-.14 40.43-.13 60.64.55 2.88.1 3.24.42 3.23 3.42 0 6.58-.17 13.16 0 19.74.05 2.52-1 3.18-3.23 3.2-8.82.06-17.64.32-26.46.29-31.63-.11-63.26-.33-94.88-.42-2.45 0-3.25-.88-3.22-3.19.11-6.75.18-13.49.1-20.24 0-2.27.92-2.85 3-2.87 11.48-.12 23-.36 34.45-.46 8.75-.08 17.56-.02 26.37-.02zm-.12 3.3h-25.22q-17-.09-33.95-.31c-1.62 0-2.15.41-2.13 2.06.08 5.5.11 11-.07 16.49-.08 2.39.81 2.88 3 2.82 5.07-.14 10.15 0 15.23-.05 34.13-.18 68.26-.64 102.39-.12 1.76 0 2.29-.51 2.25-2.25-.1-5.41-.14-10.83 0-16.24.06-2.21-.64-2.72-2.8-2.78-19.57-.62-39.13-.29-58.7.38zM1150.92 193.06h-60.68c-2 0-3-.56-3-2.64.07-7.16.13-14.33.12-21.49 0-2.18 1.46-2.1 2.89-2.12 11.23-.18 22.47-.27 33.7-.53 24.62-.56 49.23-.15 73.84.16 4.83.06 9.66.34 14.49.4 1.88 0 2.77.73 2.76 2.64q-.08 10.74-.09 21.49c0 2.32-1.68 2.16-3.14 2.19-7.24.15-14.48.31-21.72.34-13.06.05-26.13 0-39.19 0v-.49zm.13-2.42q29.47-.6 58.94-.15c1.36 0 2.63.23 2.59-1.9-.11-5.75-.07-11.49 0-17.24 0-1.41-.33-2.08-1.94-2.08-4.25 0-8.49-.28-12.74-.31-24.23-.17-48.45.26-72.67.63-11 .17-22-.09-33-.29-2 0-2.5.59-2.47 2.5.1 5.33.1 10.66-.06 16-.07 2.25.58 2.92 2.9 2.91 19.49-.11 38.97-.07 58.45-.07z"/><path class="cls-3" d="M1762.95 298.83c31.69-.58 63.38-.3 95.06.25 2.74 0 5.48.25 8.22.29 1.65 0 2.23.6 2.23 2.4 0 11.91-1.26 23.76-1.69 35.64q-.87 23.82.57 47.62c.21 3.48.62 7 .94 10.43.16 1.77-.51 2.35-2.39 2.42-68.36 2.69-136.74 1.59-205.12 1-2.19 0-2.54-.75-2.54-2.71-.1-31.55.45-63.1-.12-94.65 0-1.18-.14-2 1.57-2 20.87.32 41.73-.51 62.59-.68 13.57-.11 27.13-.01 40.68-.01zM1465.68 299.3c31.77-.55 63.54-.27 95.31.28 2.66 0 5.31.26 8 .28 1.86 0 2.52.61 2.51 2.64 0 14.41-1.84 28.73-1.93 43.13-.1 15.87-.31 31.76 1.63 47.57.62 5.08.51 5-4.5 5.22-41.89 2.07-83.81 1.47-125.72 1.57-25.72.06-51.43-.32-77.15-.62-2.16 0-2.56-.7-2.57-2.69-.1-31.55.45-63.1-.11-94.65 0-1.15-.19-2 1.55-2 21 .31 41.89-.5 62.84-.71 13.36-.13 26.76-.02 40.14-.02zM1618.3 87.25c32.51-.46 65-.42 97.52-.95 4-.07 8-.26 12-.52 1.46-.09 2 .12 2 1.8-.1 8-.09 16 0 24 0 1.41-.34 1.79-1.79 1.76-45.27-.91-90.54-.42-135.8-.36-27.69 0-55.38.29-83.07.54-2 0-2.77-.41-2.74-2.53q.13-11-.07-22c0-1.9.69-2.13 2.32-2.08 16.11.47 32.22.33 48.34.35q30.65.02 61.29-.01zM1713.83 160.13q-45.17.45-90.35.89c-5.78.05-5.81 0-5.91-5.79q-.14-8-.17-16c0-3.51 0-3.62 3.45-3.31 16.44 1.53 32.92 1.12 49.39.79 28.51-.57 57-.33 85.53-.53q26.2-.19 52.4-.52c1.31 0 1.75.2 1.75 1.54q0 10.86.16 21.73c0 1.36-.34 1.84-1.84 1.81-31.47-.72-62.94-.72-94.41-.61zM1475.3 133.3c33.05.14 57.17-.35 81.28-.78 2.42 0 2.81.78 2.76 2.92-.14 6.49-.13 13 0 19.48 0 1.6-.34 2.1-2 2.11-27.94.08-55.88.25-83.81.34-20.55.06-41.1.37-61.64.08-2 0-2.66-.45-2.61-2.59.17-6.74.12-13.48.07-20.23 0-1.45.46-1.77 1.85-1.71 24.3.98 48.68.16 64.1.38z"/><path class="cls-11" d="M1169.37 93.06h-78.89c-4 0-3.33.28-3.44-3.3-.39-12.74-.15-25.47.22-38.21.15-5.18.05-5.18 5.22-5.24 48-.5 96-1.18 144-.85 4.32 0 8.64.21 13 .21 1.51 0 2 .52 2 2q0 21.23.15 42.46c0 2-.68 2.5-2.56 2.5q-39.81-.07-79.63 0v.45zM1150.56 144.18c-19.48 0-39 0-58.43.05-2.24 0-3-.55-2.92-2.86.17-5.41.17-10.83.06-16.24 0-1.88.49-2.37 2.37-2.32 22.21.63 44.41 0 66.62-.21 17.07-.2 34.14-.4 51.21.15 2.11.07 2.67.65 2.62 2.68-.12 5.33-.14 10.66 0 16 .06 2.09-.52 2.67-2.62 2.63-19.63-.42-39.27-.33-58.91.12z"/><path class="cls-13" d="M1151 218.14c19.65-.69 39.3-1 58.95-.39 2.12.07 2.66.69 2.61 2.71q-.18 8.12 0 16.24c0 1.94-.64 2.35-2.44 2.33-33.88-.54-67.76-.07-101.64.11-5.58 0-11.15-.05-16.73 0-1.53 0-2-.44-2-2 .08-5.75.12-11.5 0-17.24 0-1.85.66-2.16 2.31-2.13q17 .24 33.95.32c8.35.09 16.67.05 24.99.05zM1152.07 263.13c19.57-.68 39.13-1 58.7-.39 2.15.07 2.86.58 2.8 2.78-.15 5.41-.1 10.83 0 16.24 0 1.74-.49 2.28-2.25 2.25-34.13-.53-68.26-.07-102.39.12-5.08 0-10.15-.09-15.23.05-2.18.06-3.07-.43-3-2.82.19-5.49.15-11 .07-16.49 0-1.66.51-2.09 2.13-2.06q17 .24 33.95.31c8.45.05 16.82.01 25.22.01zM1151.05 190.64c-19.48 0-39 0-58.43.05-2.31 0-3-.66-2.9-2.91.16-5.33.16-10.66.06-16 0-1.92.43-2.54 2.47-2.5 11 .2 22 .46 33 .29 24.22-.38 48.45-.8 72.67-.63 4.25 0 8.49.3 12.74.31 1.61 0 2 .67 1.94 2.08 0 5.75-.07 11.5 0 17.24 0 2.13-1.23 1.92-2.59 1.9q-29.49-.44-58.96.17z"/><path d="M6.15 717.72v-17.89h1.79v16.33h6.92l.26 1.61h-9zM24.35 718.06c-4.78 0-8.06-3.8-8.06-9.28s3.33-9.33 8.11-9.33 8.09 3.8 8.09 9.28-3.3 9.33-8.14 9.33zm0-17c-3.77 0-6.24 3.12-6.24 7.67s2.5 7.72 6.27 7.72 6.24-3.12 6.24-7.67-2.47-7.72-6.24-7.72zM48.58 717.9l-2.31-6h-7.85l-2.21 5.8h-1.82l7.07-18h1.84l7 17.84zm-6.28-16.07l-3.28 8.55h6.6zM65.9 717.72l-10.48-15.1v15.11h-1.69v-17.9h1.69l10.17 14.64v-14.64h1.71v17.94h-1.4zM85.19 718.06c-4.78 0-8.06-3.8-8.06-9.28s3.33-9.33 8.11-9.33 8.09 3.8 8.09 9.28-3.3 9.33-8.14 9.33zm0-17c-3.77 0-6.24 3.12-6.24 7.67s2.5 7.72 6.27 7.72 6.24-3.12 6.24-7.67-2.47-7.72-6.24-7.72zM99.1 701.39v6.44h5.77l.26 1.61h-6v8.29H97.3v-17.9h9v1.61h-7.2zM111.5 701.39v6.44h5.8l.26 1.61h-6v8.29h-1.79v-17.9h9v1.61h-7.2zM122.3 717.72v-17.89h1.79v17.94h-1.79zM136.41 718.06c-4.86 0-8.14-3.74-8.14-9.28s3.33-9.33 8.27-9.33a8.66 8.66 0 0 1 5 1.53l-.24 1.85a8.1 8.1 0 0 0-4.78-1.74c-4 0-6.4 3.12-6.4 7.67s2.47 7.7 6.37 7.7a8.41 8.41 0 0 0 5.12-1.87l.26 1.72a9.33 9.33 0 0 1-5.46 1.75zM145.92 717.72v-17.89h9.38v1.61h-7.57v6.14h6l.26 1.61h-6.24v7h7.83v1.61h-9.62zM170.78 717.51l-1.82.39-5.82-8.07h-2.31v7.93h-1.79v-17.93h4.58c3.51 0 5.75 1.77 5.75 4.89 0 2.78-1.79 4.37-4.26 4.89zm-7.25-16.15h-2.7v6.89h2.39c2.65 0 4.32-1.2 4.32-3.48s-1.41-3.4-4.01-3.4zM183.68 710.16h-2.24v7.57h-1.79v-17.9h4.45c3.61 0 5.88 1.82 5.88 5-.01 3.53-2.68 5.33-6.3 5.33zm.29-8.79h-2.52v7.2h2.31c2.73 0 4.39-1.2 4.39-3.69 0-2.32-1.46-3.51-4.19-3.51zM204.55 717.9l-2.31-6h-7.85l-2.21 5.8h-1.82l7.07-18h1.87l7 17.84zm-6.25-16.07l-3.28 8.55h6.6zM216.62 718.06c-5.3 0-8.42-3.8-8.42-9.28s3.25-9.33 8.27-9.33a8.79 8.79 0 0 1 5.3 1.56l-.32 1.82a7.8 7.8 0 0 0-5-1.79c-4 0-6.4 3.07-6.4 7.7s2.39 7.67 6.6 7.67a7.4 7.4 0 0 0 4.11-1.12v-5.38h-4.32l-.26-1.61h6.34v7.93a10.51 10.51 0 0 1-5.9 1.83zM227.04 717.72v-17.89h9.36v1.61h-7.57v6.14h6l.26 1.61h-6.24v7h7.83v1.61h-9.62zM1070.7 717.72l-1.17-15.31-6.23 15.42h-1.4l-6.24-15.42-1.17 15.31h-1.66l1.47-17.89h2.21l6.16 15.65 6.19-15.65h2.18l1.43 17.94h-1.74zM1084.06 718.06c-4.78 0-8.06-3.8-8.06-9.28s3.33-9.33 8.11-9.33 8.09 3.8 8.09 9.28-3.3 9.33-8.14 9.33zm0-17c-3.77 0-6.24 3.12-6.24 7.67s2.5 7.72 6.27 7.72 6.24-3.12 6.24-7.67-2.47-7.72-6.24-7.72zM1107.93 717.51l-1.82.39-5.81-8.07h-2.31v7.93h-1.79v-17.93h4.58c3.51 0 5.75 1.77 5.75 4.89 0 2.78-1.79 4.37-4.26 4.89zm-7.25-16.15h-2.7v6.89h2.39c2.65 0 4.32-1.2 4.32-3.48s-1.39-3.4-4.01-3.4zM1116.56 701.39v16.33h-1.77v-16.33h-5.82v-1.56h13.21l.26 1.61h-5.88zM1132.01 718.06c-5.3 0-8.42-3.8-8.42-9.28s3.25-9.33 8.27-9.33a8.8 8.8 0 0 1 5.3 1.56l-.31 1.85a7.8 7.8 0 0 0-5-1.79c-4 0-6.4 3.07-6.4 7.7s2.39 7.67 6.6 7.67a7.4 7.4 0 0 0 4.11-1.12v-5.38h-4.32l-.26-1.61h6.34v7.93a10.51 10.51 0 0 1-5.91 1.8zM1155.3 717.9l-2.31-6h-7.85l-2.21 5.8h-1.82l7.07-18h1.85l7 17.84zm-6.29-16.07l-3.28 8.55h6.6zM1167.3 718.06c-5.3 0-8.42-3.8-8.42-9.28s3.25-9.33 8.27-9.33a8.8 8.8 0 0 1 5.3 1.56l-.31 1.85a7.8 7.8 0 0 0-5-1.79c-4 0-6.4 3.07-6.4 7.7s2.39 7.67 6.6 7.67a7.4 7.4 0 0 0 4.11-1.12v-5.38h-4.32l-.26-1.61h6.34v7.93a10.51 10.51 0 0 1-5.91 1.8zM1177.74 717.72v-17.89h9.36v1.61h-7.57v6.14h6l.26 1.61h-6.24v7h7.83v1.61h-9.62zM1200.75 710.16h-2.24v7.57h-1.79v-17.9h4.45c3.61 0 5.88 1.82 5.88 5-.01 3.53-2.63 5.33-6.3 5.33zm.29-8.79h-2.52v7.2h2.31c2.73 0 4.39-1.2 4.39-3.69 0-2.32-1.45-3.51-4.18-3.51zM1221.63 717.9l-2.31-6h-7.85l-2.21 5.8h-1.82l7.07-18h1.79l7 17.84zm-6.24-16.07l-3.28 8.55h6.6zM1233.69 718.06c-5.3 0-8.42-3.8-8.42-9.28s3.25-9.33 8.27-9.33a8.79 8.79 0 0 1 5.3 1.56l-.31 1.85a7.8 7.8 0 0 0-5-1.79c-4 0-6.4 3.07-6.4 7.7s2.39 7.67 6.6 7.67a7.4 7.4 0 0 0 4.11-1.12v-5.38h-4.32l-.26-1.61h6.34v7.93a10.51 10.51 0 0 1-5.91 1.8zM1244.12 717.72v-17.89h9.36v1.61h-7.57v6.14h6l.26 1.61h-6.24v7h7.83v1.61h-9.62z"/></svg>