<svg id="Layer_1" xmlns="http://www.w3.org/2000/svg" viewBox="0 0 652 329.5"><style>.st0{fill:#FFFFFF;}</style><path class="st0" d="M8 94.4c6.3 5 14.5 9 24.5 9 12.3 0 16.6-6.6 16.6-13.8 0-7.5-4.4-11.4-16.2-18.3C15.1 60.8 7.5 55.6 7.5 43.2c0-11.6 9-23.8 28.5-23.8 9.9 0 18.9 3.9 24.1 7.6l-2.9 11c-5.9-4.4-13.5-7.6-20.9-7.6-11.6 0-16.2 4.8-16.2 11.9 0 6.2 3.6 9.9 18.5 17.9 17.1 9.2 23.6 17.9 23.6 28.6 0 17.1-12.3 25.6-29.7 25.6-12.5 0-23.2-4.4-27.6-8.4L8 94.4zM147.1 39.6c-4.1-2.8-14.1-9-26.5-8.8-17 .1-32.8 11.9-32.8 37.1 0 20.5 13.4 35.2 33.1 35.2 11.4 0 19.8-4.6 27.7-9.5l3.3 10.7c-7.4 5.6-19.3 10.2-31.3 10.2-27.2 0-45.9-20.6-45.9-46.1 0-30.9 21.6-49 46.2-49 12.5 0 23.7 5.1 29.2 9.1l-3 11.1zM181 112.5h-12.6v-91H181v91zM254.8 32.4h-39v27.2h34.9v11h-34.9v30.9h40.3v11h-52.9v-91h51.5v10.9zM337.4 86.6h1.1V21.4H351v92.4h-4l-61.9-66.4H284v65.1h-12.6V20.1h4l62 66.5zM440.3 39.6c-4.2-2.8-14.1-9-26.5-8.8-17 .1-32.8 11.9-32.8 37.1 0 20.5 13.4 35.2 33.1 35.2 11.4 0 19.8-4.6 27.7-9.5l3.3 10.7c-7.4 5.6-19.3 10.2-31.3 10.2-27.2 0-45.9-20.6-45.9-46.1 0-30.9 21.6-49 46.2-49 12.5 0 23.7 5.1 29.2 9.1l-3 11.1zM511.8 32.4h-39v27.2h34.9v11h-34.9v30.9h40.3v11h-52.9v-91h51.5v10.9zM571.9 112.5h-12.6v-91h12.6v91zM591.8 94.4c6.3 5 14.5 9 24.5 9 12.3 0 16.6-6.6 16.6-13.8 0-7.5-4.4-11.4-16.2-18.3-17.8-10.4-25.4-15.7-25.4-28 0-11.6 9-23.8 28.5-23.8 9.9 0 18.9 3.9 24.1 7.6l-2.9 11c-5.9-4.4-13.5-7.6-20.9-7.6-11.6 0-16.2 4.8-16.2 11.9 0 6.2 3.6 9.9 18.5 17.9 17.1 9.2 23.6 17.9 23.6 28.6 0 17.1-12.3 25.6-29.7 25.6-12.5 0-23.2-4.4-27.6-8.4l3.1-11.7zM17.3 176.5c.4-2.5-1.7-4.5-5.2-3.3l-.4-.4c4.5-2.2 13.4-5 19.5-5 7.3 0 10.1 2.7 8.4 11.3l-11.8 61.6.5.1c8.5-32.6 21.3-40.2 32.7-40.2 15.9 0 14.9 13.1 13.4 21.9l-3.1 18.1c-1.9 11-3.1 25.2 2.5 27.4l-.4.4c-13.8 2.7-29.4 1-26.1-19.6l5.1-31.6c.9-6 .9-9.7-2.2-9.7-7.1 0-15.9 14.6-20.6 33.6-2.2 8.8-5.7 24.7-1.4 26.9l-.4.4c-17.3 2.5-26.2 1.5-22.5-19l12-72.9zM130 210c0-5-3.1-8.3-7.4-8.3-9.8 0-16.8 15.4-17.6 28.3-.8 13.5 4.1 25.3 18.2 25.3 5.9 0 13.6-2 19.6-9l.8.4c-8 13.2-21.5 22.7-36.3 22.7-15.3 0-26.3-10.2-26.3-27.3 0-21.8 18.6-41.4 42.8-41.4 9.9 0 24.5 2.4 24.5 14.3 0 9.4-11 21.8-42.3 13.5l.1-.5c17.2.9 23.9-8.9 23.9-18zM163 176.5c.4-2.5-1.7-4.5-5.2-3.3l-.4-.4c4.5-2.2 13.4-5 19.5-5 7.3 0 9.8 2.7 8.4 11.3l-9.9 62.1c-1.5 8.9-4.6 25.2-.3 27.4l-.4.4c-9.2 1.4-26.9.9-23.4-19.6l11.7-72.9zM197.3 176.5c.4-2.5-1.7-4.5-5.2-3.3l-.4-.4c4.5-2.2 13.4-5 19.5-5 7.3 0 9.8 2.7 8.4 11.3l-9.9 62.1c-1.5 8.9-4.6 25.2-.3 27.4l-.4.4c-9.2 1.4-26.9.9-23.4-19.6l11.7-72.9zM286.5 240.7c-1.9 11-3.1 25.2 2.5 27.4l-.4.4c-2.9.6-6 .9-9 .9-10.8 0-20.4-4.6-16.6-20.5l4.7-19.6-.5-.1c-8 31.7-17.8 40.2-29.3 40.2-13.4 0-18.1-11.8-18.1-23.6 0-20.2 18.2-45.1 41.5-45.1 12.6 0 22.7 11 31.8.5l-6.6 39.5zM243 252.4c0 5.2 1.1 10.1 4.5 10.1 7.8 0 16.2-19.9 19.5-38.6l1.4-7.8c1.9-10.3.9-14.4-5.3-14.4-10.7.1-20.1 29.9-20.1 50.7zM379.7 194c0-3-1.6-4.6-4.6-4.6h-21c-3 0-4.6 1.6-4.6 4.6v52.2c0 3 1.6 4.6 4.6 4.6h21c3 0 4.6-1.6 4.6-4.6v-11.8h19.4V250c0 11.3-7.8 19.1-19.1 19.1h-30.7c-11.3 0-19.1-7.8-19.1-19.1v-59.7c0-11.3 7.8-19.1 19.1-19.1H380c11.3 0 19.1 7.8 19.1 19.1v15.6h-19.4V194zm-40.7-3.8c0-2.7.8-5 2.2-6.9l-4.8-4.8c-2.7 3-4.2 6.9-4.2 11.7v59.7c0 4.8 1.5 8.7 4.2 11.7l4.8-4.8c-1.3-1.9-2.2-4.2-2.2-6.9v-59.7zm10.3-17.2c-4.7 0-8.9 1.5-11.8 4.2l4.8 4.8c1.7-1.7 4.2-2.7 7-2.7H380c2.8 0 5.2.9 7 2.7l4.8-4.8c-3-2.7-7.1-4.2-11.8-4.2h-30.7zm30.6 78c-1.1 1.1-2.7 1.6-4.7 1.6h-21c-2 0-3.6-.5-4.7-1.6l-5.9 5.9c1.5 1.2 3.5 2 5.8 2H380c2.3 0 4.3-.8 5.8-2l-5.9-5.9zm8.6-60.8c0-2.2-.5-4.2-1.5-5.7l-6.1 6.1c.4.9.7 2 .7 3.4v8.9l6.9-6.9v-5.8zm-6.9 56c0 1.3-.3 2.4-.7 3.4l6.1 6.1c.9-1.5 1.5-3.5 1.5-5.6v-5.8l-6.9-6.9v8.8zm1.5-10l6.3 6.3 6.3-6.3h-12.6zM433.1 269c-11.3 0-19.1-7.8-19.1-19.1v-59.7c0-11.3 7.8-19.1 19.1-19.1h32.4c11.3 0 19.1 7.8 19.1 19.1v59.7c0 11.3-7.8 19.1-19.1 19.1h-32.4zm-10.3-78.8c0-2.7.8-5 2.2-6.9l-4.8-4.8c-2.7 3-4.2 6.9-4.2 11.7v59.7c0 4.8 1.5 8.7 4.2 11.7l4.8-4.8c-1.3-1.9-2.2-4.2-2.2-6.9v-59.7zm10.3-17.2c-4.7 0-8.9 1.5-11.8 4.2l4.8 4.8c1.7-1.7 4.2-2.7 7-2.7h32.4c2.8 0 5.2.9 7 2.7l4.8-4.8c-3-2.7-7.1-4.2-11.8-4.2h-32.4zm32.3 78c-1.1 1.1-2.7 1.6-4.7 1.6H438c-2 0-3.6-.5-4.7-1.6l-5.9 5.9c1.5 1.2 3.5 2 5.8 2h32.4c2.3 0 4.3-.8 5.8-2l-6-5.9zm-.1-57c0-3-1.6-4.6-4.6-4.6H438c-3 0-4.6 1.6-4.6 4.6v52.2c0 3 1.6 4.6 4.6 4.6h22.7c3 0 4.6-1.6 4.6-4.6V194zm1.2-3.4c.4.9.7 2 .7 3.4v52.2c0 1.3-.3 2.4-.7 3.4l6.1 6.1c.9-1.5 1.5-3.5 1.5-5.6v-59.7c0-2.2-.5-4.2-1.5-5.7l-6.1 5.9zM520.4 269c-11.3 0-19.1-7.8-19.1-19.1v-59.7c0-11.3 7.8-19.1 19.1-19.1h32.4c11.3 0 19.1 7.8 19.1 19.1v59.7c0 11.3-7.8 19.1-19.1 19.1h-32.4zm-10.3-78.8c0-2.7.8-5 2.2-6.9l-4.8-4.8c-2.7 3-4.2 6.9-4.2 11.7v59.7c0 4.8 1.5 8.7 4.2 11.7l4.8-4.8c-1.3-1.9-2.2-4.2-2.2-6.9v-59.7zm10.3-17.2c-4.7 0-8.9 1.5-11.8 4.2l4.8 4.8c1.7-1.7 4.2-2.7 7-2.7h32.4c2.8 0 5.2.9 7 2.7l4.8-4.8c-3-2.7-7.1-4.2-11.8-4.2h-32.4zm32.3 78c-1.1 1.1-2.7 1.6-4.7 1.6h-22.7c-2 0-3.6-.5-4.7-1.6l-5.9 5.9c1.5 1.2 3.5 2 5.8 2h32.4c2.3 0 4.3-.8 5.8-2l-6-5.9zm-.1-57c0-3-1.6-4.6-4.6-4.6h-22.7c-3 0-4.6 1.6-4.6 4.6v52.2c0 3 1.6 4.6 4.6 4.6H548c3 0 4.6-1.6 4.6-4.6V194zm1.2-3.4c.4.9.7 2 .7 3.4v52.2c0 1.3-.3 2.4-.7 3.4l6.1 6.1c.9-1.5 1.5-3.5 1.5-5.6v-59.7c0-2.2-.5-4.2-1.5-5.7l-6.1 5.9zM610.3 171.6v78.6h40.6v18.3h-60v-96.9h19.4zm-10.6 87.1v-77.2l-6.9-6.9v90.9l6.9-6.8zm-5.4-85.2l6.3 6.3 6.3-6.3h-12.6zm8.9 84.9h38.1l6.3-6.3h-38.1l-6.3 6.3z"/></svg>