<svg{% if include.class %} class="{{ include.class }}"{% endif %} viewBox="0 0 600 600" fill="none" xmlns="http://www.w3.org/2000/svg">
<path d="M353.17 163.15L353.168 163.159L321.007 275.947L318.869 283.443L326.603 282.472L392.739 274.163C398.537 273.435 404.159 276.396 406.887 281.566C409.591 286.691 408.822 293.058 404.948 297.468C404.946 297.471 404.943 297.474 404.941 297.476L269.907 450.123C269.905 450.126 269.902 450.129 269.9 450.132C265.514 455.038 258.419 456.258 252.718 453.096C246.98 449.913 244.186 443.157 245.998 436.85L246 436.842L278.168 324.113L280.308 316.616L272.572 317.588L206.436 325.897C200.716 326.615 195.017 323.62 192.282 318.434C189.577 313.308 190.346 306.941 194.221 302.53C194.223 302.528 194.225 302.526 194.227 302.524L329.261 149.877C329.263 149.874 329.266 149.871 329.268 149.869C333.654 144.962 340.749 143.742 346.45 146.904C352.188 150.087 354.982 156.843 353.17 163.15Z" stroke="#F9FAFB" stroke-width="10.3034"/>
<path d="M400.21 184.376H381.112L495.404 298.656C496.147 299.399 496.147 300.604 495.404 301.347L381.112 415.627H400.21C418.877 415.627 436.779 408.212 449.979 395.013L528.856 316.144C537.772 307.229 537.772 292.774 528.856 283.859L449.979 204.99C436.779 191.791 418.877 184.376 400.21 184.376Z" fill="#76A9FA"/>
<path d="M199.79 184.376H218.888L104.597 298.656C103.854 299.399 103.854 300.604 104.597 301.347L218.888 415.627H199.79C181.123 415.627 163.221 408.212 150.021 395.013L71.1444 316.144C62.2283 307.229 62.2283 292.774 71.1444 283.859L150.021 204.99C163.221 191.791 181.123 184.376 199.79 184.376Z" fill="#76A9FA"/>
</svg>
