<svg{% if include.class %} class="{{ include.class }}"{% endif %} xmlns="http://www.w3.org/2000/svg" viewBox="0 0 70 62.02">
  <path fill="#f7f6f3" d="M48.19 7.68a2 2 0 00-1.08-2.17L39.53.2V0H70v.2l-7.58 5.31c-1.08.79-1.18 1-1.18 2.17v46.66a1.94 1.94 0 001.18 2.17L70 61.83V62H39.53v-.19l7.58-5.32a2.12 2.12 0 001.08-2.17zM21.71 54.34a1.94 1.94 0 001.18 2.17l7.58 5.32V62H0v-.19l7.58-5.32a2 2 0 001.08-2.17V7.68a2 2 0 00-1.08-2.17L0 .2V0h30.47v.2l-7.58 5.31c-1.08.79-1.18 1-1.18 2.17z"></path>
  <path fill="#f7f6f3" d="M21.66 29.08h26.58v1.87H21.66z"></path>
</svg>
