<svg{% if include.class %} class="{{ include.class }}"{% endif %} xmlns="http://www.w3.org/2000/svg" fill="none" preserveAspectRatio="xMinYMin meet" viewBox="0 0 217 217">
  <circle cx="108.5" cy="108.5" fill="#fff200" r="108.5"></circle>
  <path d="m70.9895 84-10.4752 24.09-10.4756-24.09h-17.0387v49.02h15.9919v-19.213l8.8689 19.213h5.152l8.7445-19.213v19.213h16.2709v-49.02zm63.6865 27.032v-27.032h16.621v26.821c0 6.092 3.141 8.685 7.542 8.685 4.398 0 7.541-2.382 7.541-8.335v-27.171h16.62v26.681c0 16.738-9.706 23.319-24.301 23.319-14.596 0-24.023-6.722-24.023-22.968zm-32.053 2.871-12.2901-19.1182h17.1081l4.191 7.7032 4.259-7.7032h16.831l-12.222 19.1182 12.292 19.117h-17.11l-4.259-7.773-4.26 7.773h-16.8301z" fill="#221f1f"></path>
</svg>
