<svg{% if include.class %} class="{{ include.class }}"{% endif %} viewBox="0 0 512 512" fill="none" xmlns="http://www.w3.org/2000/svg">
<rect x="72" y="74" width="364.697" height="364.704" rx="182.349" fill="url(#paint0_linear_49_7)"/>
<rect x="70" y="72" width="368.697" height="368.704" rx="184.349" stroke="#4C4E37" stroke-opacity="0.45" stroke-width="4"/>
<path d="M210.219 223.963C210.219 218.248 211.344 212.833 213.594 207.72C215.844 202.606 218.993 198.169 223.043 194.409C227.092 190.648 232.116 187.64 238.115 185.384C244.114 183.128 250.788 182 258.137 182C271.785 182 282.508 185.008 290.307 191.024C298.256 197.041 303.43 205.313 305.83 215.841H308.08C309.579 209.825 310.929 204.185 312.129 198.921C313.479 193.506 314.604 188.919 315.503 185.159C319.253 185.309 323.227 185.384 327.427 185.384C331.776 185.384 335.3 185.309 338 185.159C336.5 188.919 334.701 193.656 332.601 199.372C330.651 205.087 328.701 210.953 326.752 216.97C324.952 222.986 323.227 228.701 321.577 234.116C319.928 239.38 318.653 243.516 317.753 246.524C315.353 246.224 312.579 245.923 309.429 245.622C306.28 245.321 303.43 245.171 300.881 245.171C301.031 244.118 301.106 243.065 301.106 242.012C301.106 240.809 301.106 239.681 301.106 238.628C301.106 225.543 297.131 215.841 289.182 209.524C281.384 203.207 271.485 200.049 259.487 200.049C250.038 200.049 242.84 202.154 237.89 206.366C233.091 210.577 230.691 215.917 230.691 222.384C230.691 227.949 232.866 232.461 237.215 235.921C241.715 239.38 250.938 243.667 264.886 248.78C278.534 253.894 289.332 259.459 297.281 265.476C305.38 271.341 309.429 279.915 309.429 291.195C309.429 302.927 305.005 312.327 296.156 319.396C287.458 326.465 275.535 330 260.387 330C245.989 330 233.916 327.067 224.167 321.201C214.569 315.185 208.27 306.988 205.27 296.61L203.246 296.835C201.746 302.25 200.321 307.665 198.971 313.079C197.771 318.494 196.797 323.081 196.047 326.841C192.147 326.691 188.323 326.616 184.573 326.616C180.824 326.616 177.299 326.691 174 326.841C175.65 323.081 177.449 318.268 179.399 312.402C181.499 306.537 183.449 300.596 185.248 294.579C187.198 288.563 188.998 282.848 190.647 277.433C192.297 272.018 193.497 267.807 194.247 264.799C196.647 265.25 199.346 265.626 202.346 265.927C205.495 266.228 208.27 266.453 210.669 266.604C210.519 267.807 210.444 269.01 210.444 270.213C210.444 271.417 210.444 272.62 210.444 273.823C210.444 285.404 215.019 294.654 224.167 301.573C233.316 308.492 244.939 311.951 259.037 311.951C269.086 311.951 276.509 310.071 281.309 306.311C286.258 302.551 288.733 297.587 288.733 291.421C288.733 286.157 286.333 281.795 281.534 278.335C276.734 274.876 268.261 270.815 256.112 266.152C248.614 263.295 241.94 260.512 236.091 257.805C230.391 254.947 225.592 251.939 221.693 248.78C217.943 245.622 215.094 242.087 213.144 238.177C211.194 234.116 210.219 229.378 210.219 223.963Z" fill="#4C4E37"/>
<defs>
<linearGradient id="paint0_linear_49_7" x1="254.349" y1="74" x2="254.349" y2="438.704" gradientUnits="userSpaceOnUse">
<stop stop-color="#FBFBF9"/>
<stop offset="1" stop-color="#F5F5F0"/>
</linearGradient>
</defs>
</svg>
