<svg id="Layer_1" xmlns="http://www.w3.org/2000/svg" xmlns:xlink="http://www.w3.org/1999/xlink" viewBox="0 0 8 4"><style>.st0{fill:#2f2e2a}.st1{fill:#32302a}.st2{fill:#090908}.st3{fill:#b7b3aa}.st4{fill:#f1ba4b}.st5{fill:#f0ba4b}.st6{fill:#302e28}.st7{fill:#32312d}.st8{fill:#9f9c93}.st9{fill:#a39f97}.st10{fill:#a29f97}.st11{fill:#9c9991}.st12{fill:#9c9890}.st13{fill:#a19e96}.st14{fill:#fdfdfd}</style><title>lhfs--sections-blocks2</title><image width="1536" height="1142" xlink:href="4C1E990BB234A454.png" transform="matrix(.9993 0 0 .999 1702.16 -101.5)" overflow="visible" opacity=".5"/><path class="st0" d="M2941.2 499.9l-377.2-2.1c-155.2-.8-310.4-3.4-465.6-2.8-115 .5-229.9 1.5-344.9 2.2-9.4.1-10.3-.7-10.1-9.7 2.4-100-1.7-199.9-1.4-299.9.1-61.1 0-122.1.3-183.2.1-19.8 1.2-39.5 1.5-59.3.1-5.6 1.5-8.1 7.8-8.5 77.2-5.1 154.4-9.4 231.7-11.3 207.1-5.1 414.2-5.6 621.4-4.5 143.1.8 286.1 4.4 429 8.4 49.5 1.4 98.9 3.4 148.4 5.1 24.7.9 26.6 2.5 27.7 27.3 3.1 66.9 1.5 133.8.2 200.6-1.8 92.1-1.2 184.2-.5 276.3.1 14.4 0 28.8-.2 43.3-.2 13-5.1 17.9-18.3 18.2-79.5 1.7-159 .1-238.5-.1-.9 0-1.9.1-2.8.1 0-4.8 0-9.6.1-14.4 80 .7 159.9 1.5 239.9 2.3 6.2.1 8.5-1.8 8.7-8.2 1.9-53-.2-106-.7-159-1.1-119.7 1.6-239.4.6-359.1-.1-16.8.1-17-16.8-17.5-48.6-1.4-97.1-3.4-145.7-4-143.9-1.7-287.8-3.4-431.7-4.2-123.3-.7-246.6-.6-369.8.3-107.6.8-215.2 2.4-322.8 5.9-49.3 1.6-98.5 2-147.8 1.7-13.4-.1-13.4.2-13.6 13.4-.8 49.3-.5 98.6.8 147.8 1.8 64.8 1.2 129.7.9 194.5-.3 61.1.6 122.2-.8 183.3-.2 6.4 1.6 7.6 7.6 7.6 67.7 0 135.4-1.6 203-3.4 129.4-3.4 258.9-5.1 388.4-5.1 156.6-.2 313.3 1.2 469.9 2.4 40.4.3 80.9.6 121.3.8v14.8z"/><path class="st1" d="M3045.7 996c-83-3.1-166-1.1-249-2.3-5.6-.1-11.1-.6-16.7-.8-3.5-.2-5.9-1.8-6.2-5.3-1.8-18.9-2.9-37.8-.5-56.9 1-9 1.1-18.1.2-27.2-.6-7 2.2-8.7 8.1-8.7 18.4 0 36.7 1 55 1.1 83.8.5 167.5.2 251.3.2 10 0 20 .1 29.9-.8 9.6-.9 12.2 1.7 12.2 11.2-.1 24.9-.2 49.8-.4 74.7-.1 11.3-.8 12-12.2 12.7-23.8 1.4-47.7 2.8-71.7 2.1zm-96.3-11.4c15.5 0 28.8-.1 42 0 41.9.3 83.7-1.2 125.6.9 5.2.3 4.4-2.7 4.4-5.6 0-23.3-.2-46.5.2-69.8.1-5.8-1.9-6.8-7.1-6.7-27.2.7-54.4 1.1-81.6 1.6-82 1.6-164 2.5-246 1-3.9-.1-5.1.8-5.4 4.8-1.6 21.6-.6 43.3-.6 64.9 0 10.2 0 10.2 9.8 10.2 53.6 0 107.3.4 158.7-1.3z"/><path class="st2" d="M2941.2 499.9l.1-14.7 1-91c-.1-4 .9-8.1-1.2-12.2-.9 4.5-4.3 7.5-5.6 11.6-.8.8-1.5 1.6-2.2 2.5-1.6 2.7-3.4 5.2-7 4.4s-4.6-3.5-4.8-6.7l4.4-9.1c5.5-5.7 8.4-13.1 12.5-19.7 5.2-8.3 8.6-8.4 13.8-.2 4.2 6.6 7.1 13.9 12.6 19.7l4.4 9.6c.1 3.1-1.2 5.5-4.3 6.4-3.2.9-5.5-1-6.8-3.6-1.6-3.2-4.1-3.5-7-3.1-3.3.4-2.2 3.2-2.2 5 .1 29 .4 58 .6 87 0 4.8 0 9.6-.1 14.4v316.7l1.2.4c2.4-4.1 4.8-8.2 7.3-12.2 1.9-3.1 4.6-4.9 8.2-2.8s3.4 5.2 1.5 8.5c-5.6 9.6-11.1 19.3-17 28.8-3.3 5.3-7.4 5.2-10.8-.2-5.8-9.3-11.2-18.8-16.8-28.2-2.1-3.5-2.4-6.8 1.5-9 3.6-2 6.2 0 8.1 3.1 2.4 3.9 4.7 7.9 7.7 12.9 1.6-6.7.8-12.3.8-17.9.1-98.9.1-197.9 0-296.8.3-1.3.2-2.5.1-3.6z"/><path class="st3" d="M2942.4 394.2l-1 91c-40.4-.3-80.9-.5-121.3-.8-156.6-1.3-313.3-2.6-469.9-2.4-129.5.2-258.9 1.9-388.4 5.1-67.7 1.8-135.3 3.4-203 3.4-6 0-7.8-1.2-7.6-7.6 1.4-61.1.5-122.2.8-183.3.3-64.8.8-129.7-.9-194.5-1.3-49.3-1.6-98.6-.8-147.8.2-13.2.2-13.4 13.6-13.4 49.3.2 98.6-.1 147.8-1.7 107.6-3.5 215.2-5.1 322.8-5.9 123.3-.9 246.6-1 369.8-.3 143.9.8 287.8 2.4 431.7 4.2 48.6.6 97.1 2.5 145.7 4 16.9.5 16.6.7 16.8 17.5.9 119.7-1.8 239.4-.6 359.1.5 53 2.5 106 .7 159-.2 6.5-2.5 8.3-8.7 8.2-80-.9-160-1.6-240-2.3-.2-29-.5-58-.6-87 0-1.8-1.1-4.5 2.2-5 2.9-.4 5.4-.2 7 3.1 1.3 2.6 3.5 4.5 6.8 3.6 3.1-.9 4.4-3.2 4.3-6.4 21.1.2 42.3.5 63.4.7 26.7.3 53.4.1 80.1-2.2 4-.3 6-1.5 6-5.7.3-27.4.8-54.9 1-82.3.1-7.1-2.6-9.2-9.3-9.1-10.9.2-21.9.5-32.8.6-94.3.7-188.7.9-283-1-8.1-.2-16.3-.1-24.4 0-3.8.1-6.7 1.1-6.5 6.1.9 27-2.3 53.9-.1 80.9.8 9.1 1.4 10.2 10.6 10.5 49.1 1.8 98.1 1 147.2 1.4.2 3.2 1.3 6 4.8 6.7s5.4-1.7 7-4.4c.7-.9 1.4-1.8 2.2-2.5l6.6.5zm-807-208.5l-7 .1-2.8-.1c-14.9.5-29.9 1.4-44.8 1.2-7.7-.1-15.5.4-23.1.8-7.1.3-14.1-.1-21.1-.1-8.2.1-16.3.6-24.4.7-10 .2-20.5 1.7-30.7 2.7-11.3 1.1-23.1 0-34.3.9-8.3.7-16.8.2-25.2 1.6-6.3 1.2-12.6 1.7-19 1.4-10.9-.8-21.8 1.7-32.7-.2-3.4-.6-6 3.1-9.1 4.6-1.2.6-.9 2.5-.5 3.9.6 2 2 1.2 3.4 1 14.2-1.6 28.5-1 42.6-2.3 5.2-.5 10.1.1 15.1-.1 10.7-.4 21.3-3.2 31.9-2.7 16.4.7 32.9.1 49.2-1.9 4.5-.5 9 0 13.4-.4 6.1-.6 12.2-2 18.2-1.8 5.3.2 10.4 1.1 15.9.9 7-.3 13.9-4.9 21-.6.9.5 2.3.2 3.4.1 15.6-.9 31.1-1.9 46.7-2.8 2.8.1 5.6 3.2 8.4.2 9.1-.3 18.2.1 27.3-1.2.2-.1.4-.1.6-.3.2 1.3.7 1.8 2.2 1.8 13.1-.2 26.4-2 39.1-1 13.2 1.1 26.3-.5 39.3-.5 13.3 0 26.9.8 40.3 0 16.3-1 32.6-.2 49-.2 10.3-.1 20.7-.9 30.9-.4 7 .4 13.9.4 20.9.3 8.7-.1 17.4-1.3 26.1-1.1 9.2.2 18.4 3.9 27.5-.5 1.6-.5 3.3-.2 4.6.9 2.8 2.8 6.4 1.8 9.2 1.5 8.6-.8 17.2-1.4 25.9-1.3 4.4.1 8.8 3 13.2.5 5.8-2.1 12-.6 17.6-.3 24.2 1.1 48.3.1 72.4-.1 13.9-.1 27.9.7 41.9.1 15.3-.7 30.9-1.9 46.3-.4 15.2 1.5 30.3-5 45.3.6 1.1.4 2.8-.2 4.1-.5 14.2-3.8 28.8-2 43.2-3.5 11.8-1.3 24.3-.7 36.4-.9 13.2-.3 26.5 0 39.8-.3 19.9-.4 39.7 0 59.6-.2 2.2 0 5.9 1.6 6.3-2.2.3-3.2-2.9-4.5-5.6-5.4-2-.6-4.1-.8-6.2-.6-13.9.4-27.9.7-41.8 1.4-4.7.2-9.2-1.8-13.8-1.3-10.5 1-21.1-.3-31.6 1.2-9.1 1.2-18.5.5-27.7.7-15.8.4-31.5.8-47.3 1.5-8.9.4-18.6-1.3-26.6.6-11.1 2.6-21.7.5-32.5 1.4-10.3.9-20.9-.6-31.5 0-4.4.2-8.9 1.7-13.1.8-13.5-2.7-27 .6-40.7-1-13.7-1.6-27.9.5-42 .2-5-.1-9.7 1.3-15.3.6-12.7-1.5-25.8.3-38.8.8-4 .1-8 1.1-11.8-1.4-1.3-.8-3.8-2.2-5-.1-2.1 3.5-4.8 1.4-7.4 1.5-2.9.1-5.8-.1-8.7-.8-7-1.9-13.3 2.9-20 .8-1.9-.6-4.3-2.5-5.7-1.9-9.7 4.1-19.6.2-29.4 1.2-7.7.8-15.6 1.7-23.4 1.4-9.1-.4-18.1 1.4-27.2-.8-4.5-1.1-11.8-2.8-13.6-1.5-6.5 5-12.8.4-18.9 1.8-5.1 1.2-10.2-2.5-14.3-1.1-8.4 2.9-17.1 1.9-25.1 1.2-13.9-1.2-27.6 0-41.4-.5-11-.4-22.1 2.3-32.9 1-13.4-1.6-26.8 1.4-40.1-.8-1.9-.3-3.1.7-3.4 2.7h-2.7c-5.7-2.3-11.7-4.3-18-1.5zm-22.3-64.3c-1.9-2-4.3-1.4-6.6-1.3-9.1.4-18.3 1-27.4 1.3-17.7.5-35.3-.7-53-.2-22.7.7-45.5.2-68.2.2-11.9 0-23.9-.1-35.8 0-6.5.1-13.4-2.2-19.3-.9-9.1 2-17.9-1.6-26.9.3-3.5.7-6.2 2.4-9.3 3.5 1.7 4.2 6 3.7 9.2 5.1.2.1.5.1.7.1 15.4-1.5 30.7.2 46.1.5 8.5.2 16.8-1.4 25.5-.2 7.7 1.1 16.2-.7 24.4-.9 8.6-.2 17.1-3.6 25.4 1.4 1.3.8 1.8-.9 2-2 2.9.4 6 2.6 8.8.8 8.5-5.6 17.1.6 25.7-.7 6.3-.9 13 1.2 19.7 1.2 2.8 0 4.4-3.6 7.7-1.7 5.4 3.1 11.4 2 17 1.1 9.6-1.6 19.1 1.9 29.1-1.1 5.5-1.7 12.8-.6 19.2-1.1l1.4 1.4h2.8c1 1.6 2.7 1.4 4.2 1.3h2.7c7.8-2.4 15.6.4 23.3 0 4.4-.2 8.9-1.9 13.1-1.1 13.4 2.6 26.7-1.6 40.2.9 11.8 2.2 24.1-.5 36.2-.3 14.9.2 29.9-.1 44.9-.7 10.6-.4 21.2-.3 31.8.1 7.8.3 16-1.7 23.1-.8 8.4 1 16.6-.8 24.5.5 6.8 1 12.7 1.6 19.1-1 2.2-.9 5.6-1.1 7.9 1.3.8.8 2 1.2 3.2.9 10.8-2.1 21.9-1 32.7-1.2 14.1-.3 28.4.3 42.6.7 5.2.1 10.1-1.8 14.9-1.1 9 1.3 18 .1 27 1.4 11.3 1.5 22.9-3 34.4.5 1.4.4 3.8.5 4.7-.4 4.1-3.9 9.5-2.6 13.2-1.3 6.9 2.4 13.5.5 20 .5 11.1-.1 22.2.9 33.3 1.2 6.8.2 13.5.8 19.7-2.6 1.7 3 4.1 3.5 7 1.8 1.2-.7 2.7-2.3 3.6-1 3.3 4.6 7.8 2.2 11.3 1.6 7.8-1.3 15.8-1.3 23.4-1.7 13.2-.7 26.6.6 40-.4 7.6-.5 16.6-1 23 1.1 9.1 2.9 17.3-2.3 25.9 1.1 4.9 1.9 11.1-1.2 16.4-.6 10.3 1.2 20.5.2 30.7-.4 4.8-.3 9.8-1.2 14.4-.4 14.7 2.5 29.3 2 43.9.1 2-.3 4.5-.9 4.3-3.7s-2.2-4.1-4.7-4.3c-2.3-.3-4.6-.1-6.9.4-8.3 2.3-16.6-.6-25.1.7-9.5 1.5-19.5-1.1-29.3-1.2-12.8-.1-25.7.6-38.5.8-9.6.2-19.3.9-28.8 0-5.2-.5-9.6 1.5-14.9 1-18.3-1.8-36.8.7-55.2-.4-12.3-.7-24.7 2.1-37-.7-3.5-.8-3.3 1.1-3.4 3.4-10.3-4.6-21.6-4.1-32-3.3-7.6.6-15.5.5-23.2 1.1-16.2 1.4-32.7.2-49.1.1-15.1-.1-30.2.1-45.3-.7-8.2-.4-16.4-.1-24.6-.1s-16.2 1-24.2-.5c-5.4-1-10.5 1.5-15.8.6-15.2-2.6-30.4 3.2-45.7-.6-9.2-2.3-18.4 2.2-28.3.1-12.8-2.7-26.2 1.4-39.5.6-5.7-.4-12 .7-17.4.2-11.3-1-22.2-2.6-33.2 1.1-.6.3-1.3.4-2 .2-7.6-5.1-16-.3-23.8-1.8-7.8-1.5-15.9 1.1-23.9.2-13.1-1.5-26.3-.7-39.4-.6-6.8 0-13.6-1.2-20.5 0-3.1.5-7.8 2.2-10.7-.1-4.1-3.3-5.1.2-7 2.1l-4.2-1.5c-1.8.6-4.8-3.3-5.6 1.4l-8.4-1.3c-3.8-1-7.5-1.8-11.2 0zm-281.5 174.1c-4.8 3.9-2.6 9.2-2.8 14-.7 23.5-1.7 46.9-.7 70.4.6 13.4.8 13.8 14.5 13.9l216.2 1.5c38.8.3 77.6 1.4 116.4-1.2 5.4-.4 7.9-1.9 7.9-7.8.1-25.3.5-50.7 1-76 .1-6-.7-11.2-6-14.8l7.6-1.9h-360.2l6.1 1.9zm571.8 2.6v-1.7h-163.1c-13.2 0-13.2 0-13.5 12.6 0 .9-.1 1.9-.2 2.8-.6 23-1.6 46-.5 69.1.6 11.9 1.2 12.8 12.8 12.9 9.3.1 18.6.3 27.9.4 69.3.4 138.6.9 207.9 1.3 33 .2 66 .8 99-1.5 4.6-.3 7.4-1.3 7.4-6.8.2-26.8.7-53.5.8-80.3 0-8.7-1.9-10.1-10.4-9.9-56 1-112 1.6-168.1 1.1zm500.2-238c1.6-.3 3.2-.7 4.7-1.1 1.6-.6 4.6 2 4.9-1.8.3-3.5-2.6-3.7-4.9-4.9-3-1.5-4.5 1.7-7.2 1.4-14-1.6-28.2-2-42.3-1.1-9.8.7-19.9-1.1-29.7-1.2-7.5-.1-15.4 1-23.1.6-6.4-.3-12.7 1.4-19.1.5-5.8-.8-12.3-2.4-17.4-1.2-7.1 1.6-14.3 2-21.5 1.1-10.2-1.2-20.2 1.9-30.4-.3-5.6-1.2-11.9 1.1-17.4-.1-4.4-1-7.5 2.8-11.3 1.5-10.4-3.7-21-1-31.4-1.5-7.3-.3-14.7 2.3-21.9.5-9.5-2.4-18.9.2-28.6-.9-8.2-.8-16.6-.5-24.7 1-10.1 1.8-20.6-1.9-31 .3-.9.1-1.9.1-2.8-.1-12.8-2-25.5-.9-38.3-.1-9.7.6-19.6 1.3-29.1.9-11.5-.5-23.1-.2-34.6-1-6.9-.5-14.1 1.2-20.9 0-9-1.6-17.8-.2-26.6.5-9.3.6-18.7.5-28-.1-7.9-.4-16.2-.2-23.8 0-19.6.6-39.2-1.3-58.9 0-9.4.6-19.1-.4-28.5.3-6.7.5-14.9 3.2-19.9 1.3-10.7-4.1-20.8.2-31.1-.7-10.9-.9-22.5.3-33.7.5-20.9.3-41.8 2.5-62.7 1.1-7-.5-13.6.8-20.5.6-16.9-.6-33.8-.6-50.6 0-5.7.2-11.3.7-16.9-.1-7.1-1-14.1 0-21.1.3-4.4.1-8.5 1-13-.1-3.2-.8-7-2.8-10.1-.4-3.8 2.9-7.6 1.6-11.6 1.5-18-.5-36 0-54-.7-14.8-.5-29.5-1.1-44.2.5-2.5.3-6.4-.5-6.4 4.1 0 5.2 4.1 2.7 6.1 2.7 21.1.2 42.2.2 63.2.2 14.2 0 28.3-.2 42.4.1 6.1.1 12.4-.5 18.4.2 10.8 1.1 21.3-4.2 32.2-.4 5.7 2 12.2.7 18.1.7 14.3.1 28.7-.7 43.1-1 6.9-.1 13.8-1 20.8-.9 3.4 0 6.7 2 10.3 1 9.5-2.6 19.4-.9 29-1.6 5.9-.4 13.7 1.5 18.8-.4 5.7-2.1 8.8-1.1 14.2.1 11.1 2.7 23.1.4 34.3-.8 7.8-.9 15.7-1 23.6-.6 16.1 1 32-1.9 47.9-.2 8 .8 15.6-2.7 23.5-.4 5.6 1.7 11.3.6 17 .7 10 .1 19.8-2.3 29.8-2 3.4.1 5.5 2.5 9.1 2.2 12.7-.9 25.5-.8 38.2-.7 7.3 0 14.6.5 22 1.1 4.5.3 8-2.8 12.8-2.2 8.4 1 17.1 0 25.5 1 6 .6 12.1.4 18.1-.7 9.4-1.4 19.1 4.5 28.1-1.6.9-.2 1.8 0 2.4.6 1.6 2.5 3.9 1.3 5.9 1.8 8 1.9 15.9-1.8 24 .7 5.4 1.7 11.3-.6 17.1-.6 7.2 0 14.8 1.1 22.2-.4 4.7-1 10.5 1.7 13.9.3 10.9-4.4 21.3 1.2 32.1-.5 9.9-1.5 20.6 1.7 30.9.1 8.8-1.4 17.4 2.4 26 .1 8.1-2.1 16.3.1 24.4-.4 5.6-.3 12.4.9 18.3 1 10.9.2 22-1.7 33-.5 12.6 1.4 25-.8 37.6 0 8.2.5 16.6 2.4 25.4-.5 6.1-2 14.6-1.2 20.5.1 7.8 1.7 14.4-.1 21.6-.4.9 0 1.8 0 2.7.1 6.9.6 13.9 1.9 20.8 1.5 4.7 0 9.3-2.3 14.3-.6z"/><path class="st4" d="M2949.4 984.6c-51.4 1.7-105.1 1.3-158.9 1.3-9.7 0-9.8 0-9.8-10.2 0-21.6-1-43.3.6-64.9.3-4 1.5-4.8 5.4-4.8 82 1.4 164 .6 246-1 27.2-.5 54.4-.9 81.6-1.6 5.2-.1 7.2.9 7.1 6.7-.4 23.3-.1 46.5-.2 69.8 0 2.9.8 5.8-4.4 5.6-41.8-2.1-83.7-.5-125.6-.9-13-.1-26.2 0-41.8 0z"/><path class="st5" d="M2964.9 384.4c-5.4-5.8-8.4-13.1-12.6-19.7-5.2-8.2-8.6-8.1-13.8.2-4.1 6.6-7 14-12.5 19.7-10.7.2-21.3.4-32 .4-39.1.1-78.1.2-117.2.2-2.6 0-5.9 1-5.8-3.7.3-23.9-1.1-47.9.7-71.8.3-3.8 1.6-4.5 5.1-4.4 65.2 2 130.5.2 195.8 0 44.1-.2 88.3-1.5 132.4-2.6 5.6-.1 6.9 1.6 6.9 7-.3 23.3-.2 46.5 0 69.8 0 4.8-1.4 5.3-6 5.2-47.1-1.4-94.1-.7-141-.3z"/><path class="st6" d="M2964.9 384.4c47-.3 93.9-1.1 140.9.4 4.6.2 6.1-.4 6-5.2-.2-23.3-.2-46.5 0-69.8.1-5.3-1.2-7.1-6.9-7-44.1 1.1-88.3 2.4-132.4 2.6-65.2.3-130.5 2-195.8 0-3.5-.1-4.8.6-5.1 4.4-1.8 23.9-.4 47.9-.7 71.8-.1 4.6 3.2 3.7 5.8 3.7 39.1 0 78.1-.1 117.2-.2 10.7 0 21.3-.3 32-.4l-4.4 9.1c-49.1-.4-98.1.4-147.2-1.4-9.2-.3-9.9-1.4-10.6-10.5-2.2-27 1-53.9.1-80.9-.2-4.9 2.7-6 6.5-6.1 8.1-.1 16.3-.2 24.4 0 94.3 2 188.6 1.8 283 1 10.9-.1 21.9-.4 32.8-.6 6.8-.1 9.4 2 9.3 9.1-.2 27.4-.7 54.9-1 82.3 0 4.2-2 5.4-6 5.7-26.6 2.3-53.4 2.5-80.1 2.2-21.1-.2-42.3-.5-63.4-.7l-4.4-9.5z"/><path class="st6" d="M2942.4 394.2l-6.8-.6c1.3-4.1 4.7-7.1 5.6-11.6 2.1 4 1.1 8.1 1.2 12.2z"/><path class="st7" d="M2178.2 295.5c5.3 3.6 6.1 8.8 6 14.8-.5 25.3-.9 50.7-1 76 0 5.9-2.6 7.4-7.9 7.8-38.8 2.6-77.6 1.5-116.4 1.2-72.1-.6-144.1-1-216.2-1.5-13.8-.1-13.9-.5-14.5-13.9-1-23.5-.1-47 .7-70.4.2-4.8-2-10.1 2.8-14l42.7.9c1.3 1.3 3.1.9 4.6.9 96.5.5 192.9 1.9 289.4 0 1.9 0 4.2 1 5.7-1.3l4.1-.5zm-172.8 91.4c54.9-.5 109.8-2.6 164.7-.3 5 .2 6.3-1.1 6.2-6-.2-22.5-.4-45.1.1-67.6.2-7.4-2.2-10-9.3-8.8-.9.1-1.9.1-2.8.1-69.4 1.7-138.8 2.6-208.3 2.9-38.1.1-76.2 1-114.3-.7-5-.2-6.3.6-6.4 5.5-.7 22.3-.2 44.6-.3 67 0 6.2 1.3 8.2 7.8 8.1 54.3-.3 108.4-.2 162.6-.2zM2403.4 298.1c56.1.5 112.1 0 168.1-1 8.5-.2 10.4 1.2 10.4 9.9-.1 26.8-.7 53.5-.8 80.3 0 5.4-2.9 6.4-7.4 6.8-33 2.3-66 1.8-99 1.5-69.3-.5-138.6-.9-207.9-1.3-9.3-.1-18.6-.3-27.9-.4-11.5-.2-12.2-1-12.8-12.9-1.1-23-.1-46.1.5-69.1 0-.9.1-1.9.2-2.8.3-12.6.3-12.6 13.5-12.6h163.1v1.6zm-.9 9.1h-48.3c-37.4 0-74.8 1.1-112.2-.8-7.5-.4-8.7 1.6-8.8 8.3-.2 18.8-.5 37.7 0 56.5.4 15.7.3 15.6 16.1 15.8 106.7.8 213.5-3.1 320.2-.3 4.5.1 4.8-1.8 4.8-5.2-.1-23.2-.2-46.5.1-69.7.1-6.1-1.7-8.5-7.7-7.5-1.6.2-3.3.2-4.9.1l-159.3 2.8z"/><path class="st8" d="M2903.6 60.1c-5-1.8-9.6.5-14.3.8-6.9.3-13.9-1-20.8-1.5-.9-.1-1.8-.1-2.7-.1-7.1.3-13.8 2.1-21.6.4-6-1.3-14.4-2.2-20.5-.1-8.8 2.9-17.2 1-25.4.5-12.6-.8-25.1 1.3-37.6 0-11-1.2-22.1.7-33 .5-5.9-.1-12.7-1.4-18.3-1-8.1.5-16.3-1.7-24.4.4-8.6 2.3-17.2-1.5-26-.1-10.2 1.6-21-1.6-30.9-.1-10.8 1.7-21.2-3.9-32.1.5-3.5 1.4-9.3-1.2-13.9-.3-7.4 1.5-15 .4-22.2.4-5.7 0-11.7 2.3-17.1.6-8.1-2.5-16 1.2-24-.7-2-.5-4.3.7-5.9-1.8-.6-.6-1.6-.8-2.4-.6-9 6.1-18.7.2-28.1 1.6-6 1-12 1.3-18.1.7-8.4-1-17.1-.1-25.5-1-4.8-.5-8.4 2.5-12.8 2.2-7.3-.5-14.6-1-22-1.1-12.8 0-25.5-.1-38.2.7-3.6.2-5.7-2.1-9.1-2.2-10.1-.3-19.8 2.1-29.8 2-5.7 0-11.4 1-17-.7-7.9-2.3-15.5 1.2-23.5.4-15.8-1.7-31.8 1.2-47.9.2a133 133 0 0 0-23.6.6c-11.2 1.3-23.2 3.5-34.3.8-5.4-1.3-8.4-2.3-14.2-.1-5.1 1.9-12.9 0-18.8.4-9.6.7-19.5-1-29 1.6-3.6 1-6.9-1-10.3-1-6.9-.1-13.9.8-20.8.9-14.4.2-28.8 1.1-43.1 1-5.9-.1-12.4 1.2-18.1-.7-10.9-3.8-21.4 1.6-32.2.4-6-.6-12.2-.1-18.4-.2-14.1-.3-28.3-.1-42.4-.1-21.1 0-42.2.1-63.2-.2-2 0-6.1 2.5-6.1-2.7 0-4.6 3.9-3.9 6.4-4.1 14.7-1.6 29.4-1 44.2-.5 18 .6 36 .2 54 .7 4.1.1 7.8 1.5 11.6-1.5 3.1-2.4 6.9-.4 10.1.4 4.5 1.1 8.7.3 13 .1 7-.2 14-1.3 21.1-.3 5.5.8 11.2.3 16.9.1 16.8-.6 33.8-.6 50.6 0 6.9.2 13.6-1.1 20.5-.6 20.9 1.4 41.8-.8 62.7-1.1 11.3-.2 22.8-1.4 33.7-.5 10.3.8 20.4-3.4 31.1.7 5 1.9 13.2-.8 19.9-1.3 9.4-.6 19.1.3 28.5-.3 19.7-1.3 39.2.6 58.9 0 7.6-.2 15.9-.4 23.8 0 9.3.6 18.7.7 28 .1 8.8-.7 17.6-2 26.6-.5 6.8 1.2 14-.5 20.9 0 11.5.8 23.1.5 34.6 1 9.5.4 19.4-.3 29.1-.9 12.7-.8 25.5-1.9 38.3.1.9.2 1.9.2 2.8.1 10.3-2.2 20.9 1.5 31-.3 8.2-1.5 16.5-1.8 24.7-1 9.6 1.2 19.1-1.5 28.6.9 7.1 1.8 14.6-.9 21.9-.5 10.5.5 21.1-2.2 31.4 1.5 3.8 1.4 6.9-2.5 11.3-1.5 5.5 1.2 11.9-1.1 17.4.1 10.2 2.2 20.2-.9 30.4.3 7.2.9 14.5.5 21.5-1.1 5.1-1.2 11.6.4 17.4 1.2 6.5.9 12.7-.8 19.1-.5 7.7.4 15.6-.7 23.1-.6 9.7.1 19.9 1.9 29.7 1.2 14.1-.9 28.3-.5 42.3 1.1 2.7.3 4.2-2.9 7.2-1.4 2.3 1.1 5.2 1.4 4.9 4.9-.3 3.8-3.2 1.2-4.9 1.8-1.7.4-3.2.7-4.7.9z"/><path class="st9" d="M2648 127c-6.3 3.4-13 2.8-19.7 2.6-11.1-.3-22.2-1.3-33.3-1.2-6.6 0-13.1 1.9-20-.5-3.6-1.3-9-2.6-13.2 1.3-.9.9-3.3.8-4.7.4-11.5-3.4-23.1 1.1-34.4-.5-9-1.2-18 0-27-1.4-4.8-.7-9.7 1.2-14.9 1.1-14.2-.4-28.5-.9-42.6-.7-10.8.2-21.9-.9-32.7 1.2-1.1.3-2.4 0-3.2-.9-2.3-2.4-5.7-2.2-7.9-1.3-6.4 2.7-12.3 2-19.1 1-7.9-1.2-16.1.6-24.5-.5-7.1-.9-15.3 1.1-23.1.8-10.6-.4-21.2-.5-31.8-.1-15 .6-30 .9-44.9.7-12.1-.2-24.3 2.5-36.2.3-13.5-2.5-26.8 1.7-40.2-.9-4.1-.8-8.7.9-13.1 1.1-7.8.4-15.5-2.4-23.3 0-.2-1.2.5-3.3-1.4-3.3s-1.2 2-1.4 3.2c-1.6 0-3.2.3-4.2-1.3 1-1.7 1.5-3.6 1.4-5.6.8-4.7 3.8-.8 5.6-1.4.4 2 .4 4.5 2.9 4.7 1.7.1 1.1-2 1.3-3.2 2-1.8 2.9-5.4 7-2.1 2.9 2.3 7.5.6 10.7.1 7-1.2 13.8 0 20.5 0 13.1-.1 26.3-.9 39.4.6 7.9.9 15.9-1.8 23.9-.2s16.2-3.3 23.8 1.8c.7.2 1.4.1 2-.2 11-3.7 22-2 33.2-1.1 5.4.5 11.7-.6 17.4-.2 13.3.8 26.7-3.2 39.5-.6 9.9 2 19.1-2.4 28.3-.1 15.3 3.8 30.5-2 45.7.6 5.3.9 10.4-1.6 15.8-.6 8 1.5 16.1.5 24.2.5 8.1 0 16.4-.3 24.6.1 15.1.7 30.2.6 45.3.7 16.4.1 32.9 1.4 49.1-.1 7.7-.7 15.6-.5 23.2-1.1 10.4-.8 21.7-1.3 32 3.3v3z"/><path class="st10" d="M2484.6 184.3c13-.5 26.1-2.3 38.8-.8 5.5.7 10.2-.7 15.3-.6 14.1.3 28.4-1.8 42-.2 13.6 1.6 27.2-1.7 40.7 1 4.1.8 8.7-.6 13.1-.8 10.5-.5 21.2.9 31.5 0 10.8-.9 21.4 1.2 32.5-1.4 8-1.9 17.6-.1 26.6-.6 15.8-.8 31.5-1.1 47.3-1.5 9.2-.3 18.6.5 27.7-.7 10.6-1.5 21.1-.2 31.6-1.2 4.6-.4 9 1.5 13.8 1.3 13.9-.7 27.9-1 41.8-1.4 2.1-.1 4.2.1 6.2.6 2.6.9 5.9 2.2 5.6 5.4-.4 3.8-4.1 2.2-6.3 2.2-19.9.1-39.7-.2-59.6.2-13.2.3-26.5 0-39.8.3-12.1.2-24.6-.3-36.4.9-14.4 1.5-29.1-.3-43.2 3.5-1.3.4-2.9 1-4.1.5-15-5.6-30.2.9-45.3-.6-15.3-1.5-30.9-.3-46.3.4-14 .6-28-.2-41.9-.1-24.1.1-48.2 1.2-72.4.1-5.6-.3-11.8-1.7-17.6.3-1.4-2-1.9-4.4-1.6-6.8z"/><path class="st9" d="M2484.6 184.3c-.3 2.4.2 4.8 1.4 6.8-4.4 2.4-8.8-.5-13.1-.5-8.7-.1-17.3.6-25.9 1.3-2.8.2-6.4 1.3-9.2-1.5-1.3-1-3-1.3-4.6-.9-9.2 4.3-18.3.7-27.5.5-8.7-.2-17.4 1-26.1 1.1-7 .1-13.9.1-20.9-.3-10.3-.5-20.6.3-30.9.4-16.3.1-32.7-.7-49 .2-13.5.8-27 0-40.3 0-12.9 0-26 1.6-39.3.5-12.7-1-26 .8-39.1 1-1.6 0-2.1-.5-2.2-1.8 1.2-.7 2.7-1.3 2.1-3s-2.3-1-3.6-1.2c.3-2 1.5-3 3.4-2.7 13.3 2.1 26.7-.8 40.1.8 10.8 1.3 21.9-1.5 32.9-1 13.8.5 27.5-.6 41.4.5 8 .7 16.6 1.7 25.1-1.2 4.2-1.4 9.2 2.3 14.3 1.1 6-1.4 12.4 3.1 18.9-1.8 1.8-1.4 9.1.4 13.6 1.5 9.1 2.2 18.2.4 27.2.8 7.9.3 15.8-.6 23.4-1.4 9.8-1 19.8 2.9 29.4-1.2 1.4-.6 3.7 1.3 5.7 1.9 6.7 2.2 13-2.7 20-.8 2.8.6 5.8.9 8.7.8 2.5-.1 5.3 2 7.4-1.5 1.2-2.1 3.8-.7 5 .1 3.7 2.6 7.7 1.6 11.7 1.5z"/><path class="st11" d="M2121.4 192.5c-15.6 1-31.1 1.9-46.7 2.8-1.2.1-2.6.4-3.4-.1-7.1-4.3-14 .3-21 .6-5.4.2-10.6-.8-15.9-.9-6-.2-12.2 1.2-18.2 1.8-4.4.4-8.9-.1-13.4.4-16.3 2-32.7 2.7-49.2 1.9-10.6-.5-21.2 2.3-31.9 2.7-5 .2-10-.3-15.1.1-14.2 1.2-28.4.7-42.6 2.3-1.4.2-2.8 1-3.4-1-.4-1.3-.7-3.3.5-3.9 3.1-1.5 5.7-5.2 9.1-4.6 10.9 1.9 21.7-.6 32.7.2 6.4.3 12.7-.2 19-1.4 8.4-1.5 16.9-.9 25.2-1.6 11.3-1 23 .1 34.3-.9 10.2-1 20.6-2.5 30.7-2.7 8.1-.1 16.3-.6 24.4-.7 7-.1 14 .4 21.1.1 7.6-.3 15.4-.9 23.1-.8 14.9.2 29.9-.7 44.8-1.2 1.4 4-3.9 3.8-4.1 6.9z"/><path class="st12" d="M2132.6 122.8c.1 2-.3 3.9-1.4 5.6h-2.8c-.3-.6.6-2.4-1.4-1.4-6.5.5-13.7-.5-19.2 1.1-10 3-19.4-.5-29.1 1.1-5.6.9-11.6 2.1-17-1.1-3.3-1.9-4.9 1.7-7.7 1.7-6.6-.1-13.4-2.1-19.7-1.2-8.7 1.2-17.3-5-25.7.7-2.7 1.8-5.8-.5-8.8-.8l-.5-.3.6.3c-.2 1.2-.7 2.8-2 2-8.3-5-16.9-1.6-25.4-1.4-8.2.2-16.7 1.9-24.4.9-8.8-1.2-17.1.3-25.5.2-15.3-.3-30.7-2-46.1-.5-.2 0-.5 0-.7-.1-3.2-1.4-7.5-.9-9.2-5.1 3.1-1.1 5.8-2.8 9.3-3.5 9-1.9 17.8 1.7 26.9-.3 5.9-1.3 12.8.9 19.3.9 11.9-.1 23.9 0 35.8 0 22.7 0 45.5.5 68.2-.2 17.7-.5 35.3.7 53 .2 9.1-.2 18.3-1 27.4-1.3 2.2-.1 4.7-.7 6.6 1.3 2.3 5 7.5.5 10.5 3.2l.7-3.2 8.3 1.2z"/><path class="st13" d="M2648 127v-2.8c.1-2.2-.1-4.1 3.4-3.4 12.3 2.8 24.7 0 37 .7 18.4 1 36.9-1.4 55.2.4 5.3.5 9.8-1.5 14.9-1 9.5 1 19.2.2 28.8 0 12.8-.2 25.7-.9 38.5-.8 9.8.1 19.9 2.6 29.3 1.2 8.5-1.3 16.8 1.6 25.1-.7 2.3-.5 4.6-.7 6.9-.4 2.5.2 4.5 1.7 4.7 4.3s-2.3 3.4-4.3 3.7c-14.6 1.9-29.2 2.4-43.9-.1-4.7-.8-9.6.1-14.4.4-10.2.6-20.4 1.6-30.7.4-5.3-.6-11.5 2.5-16.4.6-8.6-3.4-16.8 1.8-25.9-1.1-6.5-2.1-15.4-1.6-23-1.1-13.4.9-26.8-.3-40 .4-7.6.4-15.6.4-23.4 1.7-3.6.6-8 3-11.3-1.6-.9-1.3-2.5.3-3.6 1-2.8 1.7-5.2 1.2-6.9-1.8z"/><path class="st14" d="M2178.2 295.5l-4.1.4c-1.9-1.8-4.4-1.3-6.6-1.3h-287c-2.1 0-4.8-1.3-6.1 1.7l-42.7-.9-6-1.9h360.2l-7.7 2z"/><path class="st11" d="M2156.3 187c1.3.2 3-.4 3.6 1.2s-1 2.3-2.1 3l-.6.3c-9 1.3-18.2.9-27.3 1.2-2.3-1.9-1.1-4.6-1.4-6.9l7-.1c5.8 3.9 12 2.7 18.2 1.3h2.6z"/><path class="st9" d="M2153.7 187c-6.2 1.4-12.4 2.6-18.2-1.3 6.2-2.8 12.2-.8 18.2 1.3zM2124.3 121.4l-.7 3.2c-3-2.8-8.2 1.8-10.5-3.2 3.7-1.8 7.4-1 11.2 0zM2128.5 185.7c.3 2.4-.9 5 1.4 6.9-2.9 3-5.6 0-8.4-.2.1-3.1 5.5-2.9 4.2-6.8l2.8.1z"/><path class="st12" d="M2142.4 122.9c-.2 1.2.4 3.4-1.3 3.2-2.4-.2-2.5-2.8-2.9-4.7l4.2 1.5zM2135.5 129.7c.2-1.2-.5-3.3 1.4-3.2 1.9 0 1.1 2 1.4 3.3l-2.8-.1z"/><path class="st9" d="M2127.1 126.9c2-1 1.1.8 1.4 1.4l-1.4-1.4z"/><path class="st14" d="M2005.4 386.9c-54.1 0-108.3-.1-162.4.2-6.5 0-7.9-1.9-7.8-8.1.1-22.3-.4-44.6.3-67 .2-5 1.4-5.8 6.4-5.5 38.1 1.7 76.2.9 114.3.7 69.4-.2 138.9-1.2 208.3-2.9.9 0 1.9 0 2.8-.1 7.1-1.2 9.4 1.5 9.3 8.8-.5 22.5-.3 45.1-.1 67.6 0 4.8-1.2 6.2-6.2 6-55.1-2.3-110-.2-164.9.3z"/><path class="st3" d="M1874.3 296.4c1.3-3 4-1.7 6.1-1.7 95.7-.1 191.3-.1 287 0 2.3 0 4.7-.5 6.6 1.3-1.5 2.2-3.8 1.3-5.7 1.3-96.5 1.9-192.9.6-289.4 0-1.6-.1-3.3.4-4.6-.9z"/><path class="st14" d="M2402.5 307.2l159.3-2.9c1.6.1 3.3 0 4.9-.1 6.1-1 7.8 1.3 7.7 7.5-.4 23.2-.2 46.5-.1 69.7 0 3.4-.3 5.4-4.8 5.2-106.7-2.7-213.5 1.1-320.2.3-15.8-.1-15.7 0-16.1-15.8-.4-18.8-.1-37.7 0-56.5.1-6.7 1.3-8.7 8.8-8.3 37.4 1.8 74.8.8 112.2.8 16.5.1 33 .1 48.3.1z"/><path class="st3" d="M2000 128.4l-.6-.3.6.3zM3358.5 272.2c-2.6-.6-6.4-1.5-9.9-2.7v-9.6c3.2 1.7 6.5 3 9.9 4 2.9.9 6 1.3 9 1.4 4.1 0 7.3-.9 9.5-2.5 2.1-1.5 3.4-4 3.4-6.7 0-4.7-3.8-7.5-12.4-9.2l-.4-.1-3.5-.7c-5-1-9-2.6-11.7-5.3-2.5-2.5-3.7-5.9-3.7-10.2 0-5.5 1.9-9.6 5.5-12.5 3.8-3.1 9.2-4.4 15.8-4.4 2.9 0 5.8.3 8.6.8 2.8.6 5.6 1.4 8.2 2.5v9c-2.5-1.5-5.2-2.7-8-3.5-2.7-.8-5.6-1.2-8.4-1.2-3.9 0-7.1.7-9.2 2-2.1 1.4-3.3 3.8-3.1 6.3-.1 2.1.7 4.2 2.3 5.6 1.6 1.2 4.9 2.4 11.6 3.6l3.7.7c4.9 1 8.2 2.7 10.5 5.2s3.5 6 3.5 10.3c0 5.8-2.1 10-6 13-4.1 3.2-9.6 4.7-16.2 4.7-3 .3-6 0-9-.5zM3413.7 265.1c-4.9-5.2-7.4-12.5-7.4-21.7 0-9.5 2.7-16.6 7.2-21.7 4.9-5.5 11.7-8.1 19.3-8.1s13.2 2.6 17.2 7.3 6.2 11.4 6.2 20v4.5H3416v.3c0 6.2 1.6 10.9 4.9 14.3 3.1 3.2 7.4 5 13.5 5 3.2 0 6.3-.5 9.3-1.4 3.6-1.1 7-2.5 10.4-4.3v9.2c-3.3 1.4-6.7 2.5-10.2 3.3-3.2.7-6.4 1.1-9.6 1.1-8.8.1-15.8-2.6-20.6-7.8zm33.2-26.9c-.1-5.8-1.6-9.9-3.8-12.5-2.4-2.8-6.1-4.2-10.5-4.2-4.2-.2-8.2 1.5-11.1 4.4-2.9 3-4.6 7.1-5.1 12.3h30.5zM3477.9 265.1c-4.9-5.2-7.4-12.6-7.4-21.8 0-9.6 2.7-16.9 7.4-21.9 5-5.2 11.9-7.8 20.3-7.8 2.8-.1 5.5.3 8.2 1.1 2.7.8 5.3 1.9 7.8 3.3v9.7c-2.2-2-4.7-3.6-7.4-4.7-2.7-1-5.5-1.5-8.4-1.5-5.9 0-10.4 1.9-13.5 5.7s-4.7 9.2-4.7 16.1c0 6.5 1.3 12.1 4.7 16.2 3.2 3.8 7.7 5.7 13.6 5.7 2.9.1 5.8-.5 8.5-1.5s5.1-2.6 7.1-4.6v9.6c-2.4 1.4-5 2.5-7.7 3.3-2.7.7-5.6 1.1-8.4 1.1-8.3-.1-15.3-2.8-20.1-8zM3565.2 271.7c-6.9 0-11.9-1.4-14.7-4.2s-4.3-7.6-4.3-14.4v-30.9h-15.1V215h15.1v-14.8l9.3-4V215h21.1v7.2h-21.1v30.9c0 4.1.8 7.1 2.4 8.7s4.3 2.5 8.3 2.5h10.4v7.4h-11.4zM3630.1 272c-5.4 0-9.6-1.6-12.9-5.3-3.1-3.6-4.6-8.6-4.6-15.1v-29.2h-12.4V215h21.6v36.4c0 4.2.8 7.4 2.3 9.4 1.6 2.1 4.1 3.3 6.8 3.2h10.9v7.9l-11.7.1zm-17-67.2c-.7.1-1.4-.4-1.5-1.1v-9.1c-.1-.7.4-1.4 1.1-1.5h7.7c.7-.1 1.4.4 1.5 1.1v9.1c.1.7-.4 1.4-1.1 1.5h-7.7zM3662.1 265.4c-4.2-5.2-6.2-12.7-6.2-22.2s2.1-16.9 6.2-22 10.1-7.6 18-7.6c8.1 0 14 2.6 18 7.6s6.2 12.4 6.2 22-2 17.2-6.2 22.2c-4 5-10.1 7.6-18 7.6-7.7 0-13.8-2.5-18-7.6zm28.7-5.8c2.4-3.7 3.6-9.1 3.6-16.2s-1.2-12.6-3.6-16.3-6-5.5-10.8-5.5-8.3 1.8-10.7 5.5-3.6 9.1-3.6 16.3 1.2 12.6 3.6 16.2c2.3 3.6 6.4 5.8 10.7 5.5 4.8 0 8.4-1.8 10.8-5.5zM3721.1 215h8.4l.9 8.5c1.5-3 3.8-5.6 6.7-7.4 3-1.7 6.5-2.6 10-2.5 6.1 0 10.2 2 13 5.7 2.8 3.8 4.2 9.5 4.2 17.2v35h-9.3v-35c0-5.1-.9-8.8-2.7-11.2s-4.6-3.6-8.4-3.6c-4.4 0-7.7 1.6-9.9 4.6s-3.5 7.5-3.5 13.3v32h-9.3l-.1-56.6zM3783.9 237h41.4v8.3h-41.4V237zM3846.1 237h41.4v8.3h-41.4V237zM3918.6 272.2c-2.6-.6-6.4-1.5-9.9-2.7v-9.6c3.2 1.7 6.5 3 9.9 4 2.9.9 6 1.3 9 1.4 4.1 0 7.3-.9 9.5-2.5 2.1-1.5 3.4-4 3.4-6.7 0-4.7-3.8-7.5-12.4-9.2l-.4-.1-3.5-.7c-5-1-9-2.6-11.7-5.3-2.5-2.5-3.7-5.9-3.7-10.2 0-5.5 1.9-9.6 5.5-12.5 3.8-3.1 9.2-4.4 15.8-4.4 2.9 0 5.8.3 8.6.8 2.8.6 5.6 1.4 8.2 2.5v9c-2.5-1.5-5.2-2.7-8-3.5-2.7-.8-5.6-1.2-8.4-1.2-3.9 0-7.1.7-9.2 2-2.1 1.4-3.3 3.8-3.1 6.3-.1 2.1.7 4.2 2.3 5.6 1.6 1.2 4.9 2.4 11.6 3.6l3.7.7c4.9 1 8.2 2.7 10.5 5.2s3.5 6 3.5 10.3c0 5.8-2.1 10-6 13-4.1 3.2-9.6 4.7-16.2 4.7-2.9.3-6 0-9-.5zM3973.9 265.1c-4.9-5.2-7.4-12.5-7.4-21.7 0-9.5 2.7-16.6 7.2-21.7 4.9-5.5 11.7-8.1 19.3-8.1s13.2 2.6 17.2 7.3 6.2 11.4 6.2 20v4.5h-40.2v.3c0 6.2 1.6 10.9 4.9 14.3 3.1 3.2 7.4 5 13.5 5 3.2 0 6.3-.5 9.3-1.4 3.6-1.1 7-2.5 10.4-4.3v9.2c-3.3 1.4-6.7 2.5-10.2 3.3-3.2.7-6.4 1.1-9.6 1.1-8.8.1-15.8-2.6-20.6-7.8zm33.2-26.9c-.1-5.8-1.6-9.9-3.8-12.5-2.4-2.8-6.1-4.2-10.5-4.2-4.2-.2-8.2 1.5-11.1 4.4-2.9 3-4.6 7.1-5.1 12.3h30.5zM4034.4 268.1c-3.2-3.1-5.1-7.2-5.1-13.1 0-6.2 2.1-11 6.4-14.3s10.4-4.9 18.6-4.9h12.5v-1.5c0-4.3-1.2-7.8-3.4-9.8s-5.9-3-10.8-3c-3.3 0-6.5.5-9.6 1.4-3.3.9-6.5 2.3-9.4 4v-9.3a81 81 0 0 1 9.9-3c3-.7 6.1-1 9.2-1 4.1-.1 8.2.6 12 2.1 3.1 1.3 5.9 3.4 8 6.1 1.3 1.9 2.3 4 2.7 6.3.6 3.7.9 7.4.8 11.2v11.6c.1 3.9.1 6.7.4 9.3.3 2.3.6 4.6 1.2 6.8.4 1.6.8 3.1 1.4 4.6h-9.3c-.6-1.4-1-2.9-1.4-4.4-.4-1.5-.7-3.1-.8-4.2-2 3.2-4.9 5.9-8.3 7.6-3.4 1.7-7.1 2.5-10.9 2.4-6 0-10.7-1.6-14.1-4.9zm27.8-8.2c3-3.6 4.4-8.5 4.4-14.7v-2.1h-11.8c-5.4 0-9.4 1-12.2 2.8s-4.1 4.8-4.1 8.6c-.2 2.9 1 5.8 3.1 7.9 2 1.8 4.7 2.8 8.6 2.8 5.1 0 9.1-1.7 12-5.3zM4099.9 215h8.4l.9 11c1.4-3.7 3.9-7 7.2-9.2 3.4-2.2 7.3-3.3 11.4-3.2 2.2 0 4.4.3 6.5.9 2 .6 4 1.5 5.7 2.7v9.5c-1.8-1.5-3.9-2.6-6.1-3.4-2.2-.7-4.5-1.1-6.8-1.1-5.8 0-10.1 1.8-13.2 5.5-3.1 3.6-4.6 8.8-4.6 15.8v28.1h-9.3l-.1-56.6zM4162.6 265.1c-4.9-5.2-7.4-12.6-7.4-21.8 0-9.6 2.7-16.9 7.4-21.9 5-5.2 11.9-7.8 20.3-7.8 2.8-.1 5.5.3 8.2 1.1 2.7.8 5.4 1.9 7.8 3.3v9.7c-2.2-2-4.7-3.6-7.4-4.7-2.7-1-5.5-1.5-8.4-1.5-5.9 0-10.4 1.9-13.5 5.7s-4.7 9.2-4.7 16.1c0 6.5 1.3 12.1 4.7 16.2 3.2 3.8 7.7 5.7 13.6 5.7 2.9.1 5.8-.5 8.5-1.5s5.1-2.6 7.1-4.6v9.6c-2.4 1.4-5 2.5-7.7 3.3-2.7.7-5.6 1.1-8.4 1.1-8.3-.1-15.3-2.8-20.1-8zM4219 193h9.3v30.5c1.5-3 3.8-5.6 6.7-7.4 3-1.7 6.5-2.6 10-2.5 6.1 0 10.2 2 13 5.7 2.8 3.8 4.2 9.5 4.2 17.2v35h-9.3v-35c0-5.1-.9-8.8-2.7-11.2-1.8-2.4-4.6-3.6-8.4-3.6-4.4 0-7.7 1.6-9.9 4.6s-3.5 7.5-3.5 13.3v32h-9.3l-.1-78.6z"/><path class="st4" d="M3363 842.3c-2.6-1.5-4.8-3.7-6.2-6.4l-.9 7.1h-8.4v-78.5h9.3v29.2c1.4-2.7 3.5-4.9 6.2-6.4 2.8-1.5 6-2.3 9.1-2.2 6.3-.2 12.3 2.7 16 7.8 3.9 5.2 5.9 12.7 5.9 21.8s-2 16.5-5.9 21.8-9.2 8-16.1 8c-3.2.2-6.3-.6-9-2.2zm17.7-11.1c2.3-3.7 3.4-9.1 3.4-16.3s-1.2-12.6-3.4-16.3c-2.1-3.6-6-5.7-10.1-5.5-4.2-.2-8.1 1.9-10.2 5.5-2.3 3.7-3.5 9.1-3.5 16.3s1.2 12.6 3.5 16.2c2.2 3.6 6.1 5.7 10.3 5.6 4 .2 7.9-2 10-5.5zM3441.5 843.5c-5.4 0-9.6-1.6-12.9-5.3-3.1-3.6-4.6-8.6-4.6-15.1v-51.2h-14.9v-7.3h24.2V823c0 4.2.8 7.4 2.3 9.4 1.6 2.1 4.1 3.3 6.8 3.2h10.9v7.9h-11.8zM3475.4 837c-4.2-5.2-6.2-12.7-6.2-22.2s2.1-16.9 6.2-22 10.1-7.6 18-7.6c8.1 0 14 2.6 18 7.6s6.2 12.4 6.2 22-2 17.2-6.2 22.2c-4 5-10.1 7.6-18 7.6-7.8-.1-13.8-2.6-18-7.6zm28.7-5.9c2.4-3.7 3.6-9.1 3.6-16.2s-1.2-12.6-3.6-16.3-6-5.5-10.8-5.5-8.3 1.8-10.7 5.5-3.6 9.1-3.6 16.3 1.2 12.6 3.6 16.2c2.3 3.6 6.4 5.8 10.7 5.6 4.8 0 8.4-1.9 10.8-5.6zM3540.1 836.7c-4.9-5.2-7.4-12.6-7.4-21.8 0-9.6 2.7-16.9 7.4-21.9 5-5.2 11.9-7.8 20.3-7.8 2.8-.1 5.5.3 8.2 1.1 2.7.8 5.3 1.9 7.8 3.3v9.7c-2.2-2-4.7-3.6-7.4-4.7-2.7-1-5.5-1.5-8.4-1.5-5.9 0-10.4 1.9-13.5 5.7s-4.7 9.2-4.7 16.1c0 6.5 1.3 12.1 4.7 16.2 3.2 3.8 7.7 5.7 13.6 5.7 2.9.1 5.8-.5 8.5-1.5s5.1-2.6 7.1-4.6v9.6c-2.4 1.4-5 2.5-7.7 3.3-2.7.7-5.6 1.1-8.4 1.1-8.2-.2-15.2-2.8-20.1-8zM3598.1 764.5h9.6V810l24.4-23.5h11.3l-22.3 21.3 25.7 35.2h-11.4l-20.9-29.2-6.9 6.5V843h-9.6v-78.5h.1zM3659.4 808.6h41.4v8.3h-41.4v-8.3zM3721.6 808.6h41.4v8.3h-41.4v-8.3zM3789.1 836.7c-4.9-5.2-7.4-12.6-7.4-21.8 0-9.6 2.7-16.9 7.4-21.9 5-5.2 11.9-7.8 20.3-7.8 2.8-.1 5.5.3 8.2 1.1 2.7.8 5.3 1.9 7.8 3.3v9.7c-2.2-2-4.7-3.6-7.4-4.7-2.7-1-5.5-1.5-8.3-1.5-5.9 0-10.4 1.9-13.5 5.7s-4.7 9.2-4.7 16.1c0 6.5 1.3 12.1 4.7 16.2 3.2 3.8 7.7 5.7 13.6 5.7 2.9.1 5.8-.5 8.5-1.5s5.1-2.6 7.1-4.6v9.6c-2.4 1.4-5 2.5-7.7 3.3-2.7.7-5.6 1.1-8.4 1.1-8.3-.2-15.4-2.8-20.2-8zM3876.4 843.3c-6.9 0-11.9-1.4-14.7-4.2s-4.3-7.6-4.3-14.4v-30.9h-15.1v-7.2h15.1v-14.8l9.3-4v18.8h21.1v7.2h-21.1v30.9c0 4.1.8 7.1 2.4 8.7s4.3 2.5 8.3 2.5h10.4v7.4h-11.4zM3909.9 839.6c-3.2-3.1-5.1-7.2-5.1-13.1 0-6.2 2.1-11 6.4-14.3s10.4-4.9 18.6-4.9h12.5v-1.5c0-4.3-1.2-7.8-3.4-9.8s-5.9-3-10.8-3c-3.3 0-6.5.5-9.6 1.4-3.3.9-6.5 2.3-9.4 4v-9.3a81 81 0 0 1 9.9-3c3-.7 6.1-1 9.2-1 4.1-.1 8.2.6 12 2.1 3.1 1.3 5.9 3.4 8 6.1 1.3 1.9 2.3 4 2.7 6.3.6 3.7.9 7.4.8 11.2v11.6c.1 3.9.1 6.7.4 9.3.3 2.3.6 4.6 1.2 6.8.4 1.6.8 3.1 1.4 4.6h-9.3c-.6-1.4-1-2.9-1.4-4.4-.4-1.5-.7-3.1-.8-4.2-2 3.2-4.9 5.9-8.3 7.6-3.4 1.7-7.1 2.5-10.9 2.4-6 0-10.7-1.6-14.1-4.9zm27.9-8.2c3-3.6 4.4-8.5 4.4-14.7v-2.1h-11.8c-5.4 0-9.4 1-12.2 2.8s-4.1 4.8-4.1 8.6c-.2 2.9 1 5.8 3.1 7.9 2 1.8 4.7 2.8 8.6 2.8 5.1.1 9-1.7 12-5.3z"/></svg>