<svg id="Layer_1" data-name="Layer 1" xmlns="http://www.w3.org/2000/svg" viewBox="0 0 498.35 442.92"><defs><style>.cls-1{fill:#f4f3ef}.cls-2{fill:#2b2a26}.cls-3{fill:#9fb1b2}.cls-4{fill:#b7b3aa}.cls-5{fill:#292824}.cls-6{fill:#2d2c29}.cls-7{fill:#2f2e27}.cls-8{fill:#c5c3bf}.cls-9{fill:#f0ba4b}.cls-10{fill:#b0aeaa}.cls-11{fill:#918f8b}.cls-12{fill:#32312d}.cls-13{fill:#9f9c93}.cls-14{fill:#a29f97}.cls-15{fill:#fdfdfd}</style></defs><title>lhfs-page-home</title><path class="cls-1" d="M248.5 374.73c34.93-.31 69.86-.1 104.8.09 40.34.22 80.68.75 121 .19 6.64-.09 13.28-.1 19.91-.18 2.11 0 2.42-.39 2.44-2.42.13-11.92.22-23.83.4-35.75q.63-40.87 1-81.74c.2-22 0-44-.09-66q-.15-83.14-.32-166.27c0-6.5-.1-13-.7-19.49-.17-1.8-1-2.49-2.82-2.57-2-.09-4-.2-6.05-.21C456.2.25 424.33.02 392.46.03q-97.95 0-195.89.25-84.27.06-168.54 0c-7.8 0-15.6-.17-23.39.19-4 .18-3.42.14-3.41 3.69.09 41.78-.22 83.57-.43 125.35Q.52 185.31.25 241.1c-.11 33.31-.7 66.62.29 99.93.31 10.49.29 21 .43 31.48 0 1.81.34 2.11 2.13 2.13h5.93c22 .41 44.09.61 66.14.71 29.16.14 58.31-.43 87.46-.6 28.64-.16 57.25-.02 85.87-.02z"/><path class="cls-2" d="M248.5 374.73c-28.61 0-57.23-.14-85.84 0-29.15.18-58.31.75-87.46.6-22-.11-44.1-.31-66.14-.71H3.13c-1.79 0-2.11-.32-2.13-2.13-.14-10.49-.12-21-.43-31.48-1-33.31-.39-66.62-.29-99.93q.18-55.8.55-111.59c.21-41.78.52-83.57.43-125.35C1.26.59.69.64 4.67.45c7.8-.36 15.6-.19 23.39-.19H196.6Q294.55.19 392.49.01c31.87 0 63.74.22 95.61.35 2 0 4 .12 6.05.21 1.83.08 2.65.77 2.82 2.57.6 6.48.69 13 .7 19.49q.18 83.14.32 166.27c0 22 .29 44 .09 66q-.38 40.87-1 81.74c-.18 11.92-.27 23.83-.4 35.75 0 2-.33 2.39-2.44 2.42-6.64.08-13.28.09-19.91.18-40.34.57-80.68 0-121-.19-34.97-.18-69.9-.39-104.83-.07zm52.2-3.17c34.25.24 60.63.45 87 .6 25.62.14 51.24.18 76.86.33 9.6.06 19.2.28 28.8.52 1.4 0 1.77-.35 1.73-1.68-.06-2.15.1-4.31.1-6.46 0-56.78.18-113.55-.08-170.33q-.24-51.69-.27-103.39-.09-26.36-.09-52.72c0-11.31.13-22.61.18-33.92 0-2 0-2-2-2-8.93-.26-17.86-.26-26.79-.17-13.91.14-27.82.19-41.73.28q-21.34.14-42.67.26c-11.52.05-23 0-34.57.06l-130.33.22q-46.49.07-93 .06c-1.32 0-1.63.34-1.61 1.63q.25 21.27.39 42.55c.13 17.18.36 34.36.34 51.55-.06 67.24.6 134.48-.39 201.72-.2 13.78.07 27.56 0 41.34 0 9.65-.21 19.3-.37 28.95 0 1.08.21 1.46 1.39 1.44 13.73-.21 27.46-.44 41.19-.52q38.58-.21 77.15-.26c22.25-.13 44.44-.06 58.77-.06zM3.49 94.89v10.36c.16 26.83.24 53.66-.09 80.49 0 1 .24 1.39 1.33 1.38q11.65-.11 23.3-.08a1.17 1.17 0 0 0 1.44-1.34 28.32 28.32 0 0 1 28.36-27 2 2 0 0 0 1.17-.1c1-1.11 2.17-.76 3.26-.57a30.64 30.64 0 0 1 8.32 2.6c10.42 5.19 16.6 13.4 17.62 25.17.09 1 .58 1 1.29 1l28.81.24c2.15 0 1.82.26 1.82-1.87 0-29.73 0-59.46.18-89.19q.34-45.43.62-90.86c0-2.41.13-1.94-1.91-1.94h-70.1c-15 0-30 .23-45-.24-1.19 0-1.38.28-1.38 1.37 0 12.88.28 25.76.42 38.65q.31 25.95.54 51.93zm58.26 278.35v-.07h4.44q26.71-.36 53.42-.7c1.17 0 1.4-.41 1.38-1.47q-.16-8.68-.22-17.37c-.12-13.54-.06-27.09 0-40.63 0-14.26-.38-28.52-.55-42.78 0-1.08-.39-1.24-1.32-1.22-11.52.31-23 .11-34.56.2-26.52.19-53-.2-79.55-.25-1.79 0-1.79 0-1.79 1.84 0 6.45-.06 12.91 0 19.36.2 27.1-.77 54.2-.46 81.3 0 1.78 0 1.79 1.75 1.79h57.46zM58.6 214.87a20.63 20.63 0 0 0 4-.31c.83-.16 1.67-.31 2.5-.53 13.52-3.62 21.45-15.32 20.93-27.91a25.7 25.7 0 0 0-4.28-13 27.6 27.6 0 0 0-28.79-12.5c-11.7 2.16-19.49 11.67-21.21 22.42-.24 1.47-.79 3 .23 4.48.13.19.37.79 0 1-.82.35-.48 1-.44 1.49a27 27 0 0 0 27.06 24.86z"/><path class="cls-3" d="M300.7 371.56h-58.71q-38.58.07-77.15.26c-13.73.08-27.46.31-41.19.52-1.18 0-1.4-.36-1.39-1.44.16-9.65.34-19.3.37-28.95 0-13.78-.23-27.56 0-41.34 1-67.24.33-134.48.39-201.72 0-17.18-.21-34.36-.34-51.55q-.16-21.27-.39-42.55c0-1.29.29-1.63 1.61-1.63q46.49 0 93-.06 65.16-.09 130.33-.22c11.52 0 23 0 34.57-.06q21.34-.09 42.67-.26c13.91-.09 27.82-.14 41.73-.28 8.93-.09 17.86-.09 26.79.17 2 .06 2.05.06 2 2 0 11.31-.17 22.61-.18 33.92q0 26.36.08 52.73.12 51.69.27 103.39c.26 56.78.13 113.55.08 170.33 0 2.15-.16 4.31-.1 6.46 0 1.33-.33 1.71-1.73 1.68-9.6-.24-19.2-.46-28.8-.52-25.62-.15-51.24-.19-76.86-.33-26.42-.1-52.8-.32-87.05-.55zm6.22-349h-21.81l-65.27-.07c-1.21 0-2.42.09-3.63.18a1.23 1.23 0 0 0-1.31 1.26 1.31 1.31 0 0 0 1.34 1.25 19.26 19.26 0 0 0 4.3.19c1.14-.07 1.42.33 1.41 1.43-.1 6.06-.14 12.12-.18 18.18 0 2.18.08 2.24 2.29 2.25 18.85.05 37.7-.07 56.55.15 16.05.11 32.14.29 48.14.32s32.38.35 48.57.12c6.23-.09 12.47 0 18.7-.36 1.23-.06 1.91-.46 1.91-1.83 0-6.78 0-13.56.06-20.33 0-1.71-.35-2.08-2-2.12-3-.07-6-.16-9-.16-10.72 0-21.44.17-32.16 0-15.97-.15-31.94-.04-47.91-.53zm5.91 290.46v.33h52.09c13.59 0 27.17.11 40.76.17 15.24.07 30.49.37 45.73 0 2.81-.07 3.67-.95 3.67-3.78V289c-.25-19.38.23-38.75.43-58.12.07-7.22.08-14.44-.3-21.66-.19-3.74 0-4.69-5.22-4.87-6.19-.22-12.38-.5-18.57-.68-13.46-.39-26.91-.8-40.37-1.09-14.89-.32-29.79-.66-44.68-.75-33.78-.21-67.57-.41-101.35.3-15.52.33-31 .42-46.56 1.16-8.24.39-16.48 1-24.72 1.51-1.22.07-1.48.59-1.5 1.67-.05 3.82-.25 7.63-.26 11.45 0 18.26-.2 36.52.13 54.78.23 12.69.29 25.38.09 38.08 0 2.11.07 2.21 2.18 2.2 22.08-.13 44.16-.31 66.23-.4 24.05-.09 48.14.14 72.22.39zm-1.82-240.85v.23h1.48c21.75.14 43.5 0 65.25-.12 17.94-.11 35.88.1 53.82-.26.75 0 1.7.13 1.76-1s-1-1.11-1.74-1.12c-3.59-.07-7.18-.16-10.77-.17-30.87-.08-61.73-.22-92.6-.19-26.83 0-53.66.2-80.49.35-17.86.1-35.71.27-53.57.4h-4.58a.74.74 0 0 0-.9.6.64.64 0 0 0 .65.71 6.34 6.34 0 0 0 .81 0c24 .17 48 .39 72 .5 16.3.09 32.62.02 48.88.02zm7.08 27.46v.35c36.31.25 72.61-.05 108.91-.32 3.1 0 6.19-.16 9.29-.27.52 0 1.22 0 1.19-.76s-.72-.66-1.25-.7c-1.16-.08-2.33-.22-3.49-.23-24.09-.2-48.19-.47-72.28-.54-49.22-.15-98.44.29-147.66.74-4 0-7.9 0-11.86.08-.58 0-1.51-.25-1.53.63 0 1.08 1 .66 1.56.66 17.1.14 34.2.3 51.3.34 21.94.02 43.88-.03 65.82-.03zm102.66 50.45c6.54-.05 18.48.29 30.42-.32 3.5-.18 3.5-.23 3.72-3.68 0-.18 0-.36.05-.54a84.56 84.56 0 0 0 0-10.5 2.2 2.2 0 0 0-2.27-2.17c-3-.35-6.09-.33-9.14-.45-3.81-.15-7.63 0-11.45-.14-16.84-.41-33.67-.28-50.51.16a14 14 0 0 0-4.4.47 1.3 1.3 0 0 0-1.06 1.34v13.74c0 1.22.5 1.62 1.71 1.63 12.48.11 25.01.26 42.93.46zm-110.28-.21v.42c13.27 0 26.54.26 39.8-.38a1.15 1.15 0 0 0 1.32-1.17 112.49 112.49 0 0 0 .17-12.92c-.14-2.09-.67-2.51-2.76-2.67-6.4-.49-12.82-.41-19.23-.56q-25.17-.57-50.32.15a21.56 21.56 0 0 0-4.95.39 1.37 1.37 0 0 0-1.34 1.39c0 4.49-.06 9 0 13.46 0 1.83.14 1.88 1.95 1.88h35.4zm-98.67-18.88c-10.36-.07-20.72.08-31.08.37a32.21 32.21 0 0 0-5.89.41 1.35 1.35 0 0 0-1.38 1.35c0 4.49-.06 9 0 13.46 0 1.9.12 1.91 2 1.93 11.58.11 23.15.2 34.73.34 12.73.15 25.46.35 38.18-.28 3.45-.17 3.48-.19 3.64-3.7a81.81 81.81 0 0 0 0-10.9 2.14 2.14 0 0 0-2.27-2.16c-1-.06-2-.18-3-.21-11.61-.4-23.27-.46-34.93-.61z"/><path class="cls-4" d="M3.49 94.89l-.52-52c-.14-12.88-.42-25.76-.42-38.65 0-1.09.19-1.4 1.38-1.37 15 .47 30 .2 45 .24 23.37.07 46.73 0 70.1 0 2 0 1.93-.47 1.91 1.94q-.3 45.43-.62 90.86c-.22 29.73-.17 59.46-.18 89.19 0 2.13.33 1.89-1.82 1.87l-28.81-.24c-.71 0-1.2 0-1.29-1-1-11.77-7.2-20-17.62-25.17a30.64 30.64 0 0 0-8.32-2.6c-1.09-.2-2.3-.54-3.26.57a2 2 0 0 1-1.17.1 28.32 28.32 0 0 0-28.36 27 1.17 1.17 0 0 1-1.44 1.34q-11.65 0-23.3.08c-1.1 0-1.35-.34-1.33-1.38.33-26.83.25-53.66.09-80.49V94.82zm56.44-43.4H97.08c1.52 0 1.9-.42 1.91-1.8q.05-12.52.08-25c0-2.13-.14-2.23-2.34-2.26-14-.17-27.9-.46-41.85-.46-10.35 0-20.72-.75-31.06.46-2 .23-2.07.21-2.13 2.22 0 .49-.05 1-.07 1.48-.22 7.72-.33 15.44 0 23.16.08 2 .12 2 2.12 2 12.01.07 24.12.31 36.19.2zm-9.11 49.49v-.17H25.64a5 5 0 0 0-2 .28.86.86 0 0 0-.54 1.38 3 3 0 0 1 .31 1.82c0 2.92-.05 5.84-.07 8.75 0 2.33 0 2.39 2.41 2.44 15.21.33 30.43.28 45.64.29 1.84 0 3.68 0 5.52-.12a1.21 1.21 0 0 0 1.4-1.38v-10.64c0-1.62-.34-2-1.95-2zm-1.32-26v.26h25.84a1.39 1.39 0 0 0 1.64-1.69c-.08-3.27 0-6.55 0-9.83 0-2.25-.19-2.48-2.41-2.53-4.35-.1-8.7-.21-13.06-.27q-18.3-.26-36.59-.48a5.89 5.89 0 0 0-2.39.26c-.57.24-.94.69-.56 1.26a3.43 3.43 0 0 1 .36 2.07c0 3.05-.05 6.1-.07 9.16 0 1.59.17 1.78 1.77 1.79H49.5zm.13 20.74h25.71a1.39 1.39 0 0 0 1.64-1.68c-.09-3.18 0-6.37 0-9.56 0-2.64-.08-2.75-2.66-2.81-4.53-.1-9.06-.16-13.6-.28-11.93-.33-23.86-.31-35.78-.46a5.92 5.92 0 0 0-2.39.26c-.58.24-.94.68-.57 1.26a3.66 3.66 0 0 1 .36 2.21c0 3-.05 6-.07 9 0 1.59.17 1.75 1.77 1.8 8.53.26 17.06.28 25.59.27zm68.49 86.41a.58.58 0 0 0-.52-.66.48.48 0 0 0-.61.51.66.66 0 0 0 .51.68.55.55 0 0 0 .61-.52zM61.75 373.24H4.25c-1.74 0-1.73 0-1.75-1.79-.31-27.1.65-54.2.46-81.3v-19.36c0-1.84 0-1.84 1.79-1.84 26.52.05 53 .44 79.55.25 11.52-.08 23 .11 34.56-.2.93 0 1.31.14 1.32 1.22.17 14.26.57 28.52.55 42.78 0 13.54-.08 27.09 0 40.63q.07 8.68.22 17.37c0 1.06-.22 1.46-1.38 1.47q-26.71.3-53.42.7h-4.44v.07z"/><path class="cls-3" d="M58.6 214.87a27 27 0 0 1-27.13-24.9c0-.51-.38-1.14.44-1.49.4-.17.17-.77 0-1-1-1.46-.47-3-.23-4.48 1.76-10.76 9.55-20.27 21.26-22.43a27.6 27.6 0 0 1 28.81 12.55 25.7 25.7 0 0 1 4.28 13c.52 12.59-7.41 24.29-20.93 27.91-.82.22-1.66.37-2.5.53a20.63 20.63 0 0 1-4 .31z"/><path class="cls-5" d="M306.92 22.49c16 .46 31.94.35 47.91.55 10.72.13 21.44 0 32.16 0 3 0 6 .09 9 .16 1.67 0 2 .41 2 2.12 0 6.78-.06 13.56-.06 20.33 0 1.37-.68 1.76-1.91 1.83-6.23.32-12.47.27-18.7.36-16.19.23-32.38-.09-48.57-.12s-32.12-.18-48.18-.37c-18.85-.22-37.7-.1-56.55-.15-2.21 0-2.3-.07-2.29-2.25 0-6.06.08-12.12.18-18.18 0-1.1-.27-1.49-1.41-1.43a19.26 19.26 0 0 1-4.3-.19 1.31 1.31 0 0 1-1.34-1.25 1.23 1.23 0 0 1 1.31-1.26c1.21-.09 2.42-.18 3.63-.18l65.31.03h21.81zm69 20.22c-.27.11-.64.22-.48.61s.2.77.63.71a.64.64 0 0 0 .42-.73.53.53 0 0 0-.61-.56z"/><path class="cls-6" d="M312.83 312.97c-24.09-.25-48.17-.53-72.26-.42-22.08.1-44.16.27-66.23.4-2.11 0-2.22-.1-2.18-2.2.2-12.69.14-25.39-.09-38.08-.33-18.26-.17-36.52-.13-54.78 0-3.82.21-7.63.26-11.45 0-1.08.28-1.6 1.5-1.67 8.24-.47 16.47-1.12 24.72-1.51 15.51-.74 31-.83 46.56-1.16 33.78-.71 67.57-.51 101.35-.3 14.9.09 29.79.43 44.68.75 13.46.29 26.91.7 40.37 1.09 6.19.18 12.38.47 18.57.68 5.18.18 5 1.13 5.22 4.87.37 7.22.37 14.44.3 21.66-.2 19.37-.68 38.74-.43 58.12.09 6.91.05 13.82 0 20.74 0 2.83-.86 3.71-3.67 3.78-15.24.36-30.49.06-45.73 0-13.59-.06-27.17-.15-40.76-.17h-52.09v-.33zm.37-3l59.07.52 56.39.48c7.54.07 15.07.14 22.61.25 1.17 0 1.72-.27 1.7-1.56 0-2.06.19-4.13.18-6.19-.1-11.53-.35-23.06-.36-34.59 0-20.19.09-40.38.2-60.57 0-1.36-.36-1.91-1.75-2-5.56-.17-11.12-.49-16.68-.6-10.9-.23-21.8-.43-32.7-.53q-38.57-.34-77.14-.56c-19.48-.08-39-.14-58.44.06q-35.59.36-71.18 1.37c-6.77.2-13.54.12-20.32.15-.87 0-1.28.2-1.28 1.19 0 5.3-.28 10.6-.18 15.89.33 16.41.73 32.82.52 49.24-.16 12.42.14 24.84-.13 37.26 0 1.87 0 1.88 1.81 1.87 22.63 0 45.23-.92 67.85-1.25q34.91-.52 69.83-.4zM311.01 72.12c-16.29 0-32.58.06-48.86 0-24-.11-48-.33-72-.5a6.34 6.34 0 0 1-.81 0 .64.64 0 0 1-.65-.71.74.74 0 0 1 .9-.6h4.58c17.86-.13 35.71-.3 53.57-.4 26.83-.15 53.66-.33 80.49-.35 30.87 0 61.73.11 92.6.19 3.59 0 7.18.09 10.77.17.79 0 1.81-.09 1.74 1.12s-1 .94-1.76 1c-17.94.36-35.88.15-53.82.26-21.75.14-43.5.26-65.25.12h-1.48v-.23zM318.09 99.58h-65.81c-17.1 0-34.2-.21-51.3-.34-.57 0-1.59.42-1.56-.66 0-.88.95-.63 1.53-.63 4 0 7.9 0 11.86-.08 49.22-.46 98.44-.9 147.66-.74 24.09.08 48.19.35 72.28.54 1.16 0 2.33.15 3.49.23.53 0 1.22 0 1.25.7s-.67.75-1.19.76c-3.1.11-6.19.24-9.29.27-36.3.26-72.61.56-108.91.32v-.35zM420.75 150.08c-17.93-.2-30.46-.35-43-.45-1.21 0-1.72-.41-1.71-1.63q.06-6.87 0-13.74a1.3 1.3 0 0 1 1.06-1.34 14 14 0 0 1 4.4-.47c16.83-.44 33.67-.57 50.51-.16 3.82.09 7.64 0 11.45.14 3 .12 6.1.1 9.14.45a2.2 2.2 0 0 1 2.27 2.17 84.56 84.56 0 0 1 0 10.5c0 .18 0 .36-.05.54-.23 3.45-.22 3.5-3.72 3.68-11.86.6-23.81.26-30.35.31zm-6.55-1.82c11.45 0 22.89-.59 34.34-.27 1.3 0 2.6.16 3.89.26a.65.65 0 0 0 .83-.73c.1-3.54.35-7.09.11-10.64-.17-2.56-.22-2.58-2.84-2.64q-7.41-.16-14.81-.27c-19-.28-38.07.45-57.1.75-.86 0-.92.37-.92 1v11.18c0 1.09.34 1.32 1.37 1.31q17.56.01 35.14.04z"/><path class="cls-7" d="M310.47 149.86h-35.4c-1.81 0-1.94-.05-1.95-1.88v-13.46a1.37 1.37 0 0 1 1.34-1.39 21.56 21.56 0 0 1 4.95-.39q25.16-.71 50.32-.15c6.41.15 12.83.07 19.23.56 2.1.16 2.62.58 2.76 2.67a112.49 112.49 0 0 1-.17 12.92 1.15 1.15 0 0 1-1.32 1.17c-13.26.64-26.53.41-39.8.38v-.42zm-36-8.33c0 1.79.07 3.59 0 5.38-.07 1.24.25 1.66 1.6 1.65 17-.08 33.91.09 50.87-.22 7.35-.13 14.71-.44 22.05.16.61 0 1.36.29 1.37-.86.05-3.27.38-6.56.11-9.82-.28-3.45.57-3.18-3.38-3.34-10.85-.44-21.71-.22-32.56-.27-13.05-.06-26.09.72-39.14.72-.78 0-.89.31-.89.94 0 1.9-.01 3.78-.01 5.62zM211.8 130.99c11.66.15 23.32.21 35 .62 1 0 2 .15 3 .21a2.14 2.14 0 0 1 2.27 2.16 81.81 81.81 0 0 1 0 10.9c-.15 3.51-.19 3.53-3.64 3.7-12.72.63-25.45.43-38.18.28-11.58-.14-23.15-.23-34.73-.34-1.91 0-2 0-2-1.93v-13.46a1.35 1.35 0 0 1 1.38-1.35 32.21 32.21 0 0 1 5.89-.41c10.29-.3 20.65-.45 31.01-.38zm.63 1.85c-12.36.26-24.56.53-36.75.74-.9 0-.91.41-.91 1.06v11.17c0 1.13.33 1.4 1.43 1.39 16.91-.07 33.82.11 50.73-.21 7.44-.14 14.89-.45 22.32.17.7.06 1.41.2 1.41-1 0-3.18.27-6.38.09-9.55-.21-3.68.55-3.33-3.49-3.49-11.68-.45-23.34-.15-34.83-.27z"/><path class="cls-6" d="M59.93 51.49c-12.07.11-24.18-.13-36.18-.25-2 0-2 0-2.12-2-.3-7.72-.2-15.44 0-23.16 0-.49 0-1 .07-1.48.07-2 .12-2 2.13-2.22 10.34-1.2 20.71-.46 31.06-.46 14 0 27.9.29 41.85.46 2.21 0 2.35.13 2.34 2.26q0 12.52-.08 25c0 1.38-.39 1.79-1.91 1.8H59.93zM24.69 23.78c-1.24-.2-1.79.24-1.73 1.58s-.1 2.86-.13 4.29q-.15 9.33.18 18.65c.06 1.66 0 1.66 1.67 1.56 6.91 0 13.82.12 20.73.08 17.08-.1 34.16-.6 51.25-.33.73 0 1-.09 1-.91q-.12-11.84-.15-23.68a1 1 0 0 0-1.19-1.12c-2.15 0-4.3-.1-6.46-.1q-25.67.08-51.35.17c-4.58 0-9.2-.13-13.82-.19zM50.82 101l25.58.62c1.6 0 1.95.4 1.95 2 0 3.55-.06 7.09 0 10.64a1.21 1.21 0 0 1-1.4 1.38c-1.84.07-3.68.12-5.52.12-15.21 0-30.43 0-45.64-.29-2.37-.05-2.42-.12-2.41-2.44 0-2.92.06-5.84.07-8.75a3 3 0 0 0-.31-1.82.86.86 0 0 1 .54-1.38 5 5 0 0 1 2-.28h25.18v.17zm-.18 2H26.13c-.88 0-1.17.23-1.16 1.12 0 2.87.05 5.75 0 8.62 0 1.18.39 1.41 1.46 1.39 6-.12 12 .23 18 .09 10.41-.25 20.82-.29 31.23-.39a.87.87 0 0 0 1.09-1.14v-7.54c0-2.15 0-2.17-2.23-2.17H50.64z"/><path class="cls-7" d="M49.5 74.99H24.05c-1.6 0-1.78-.2-1.77-1.79 0-3.05.06-6.1.07-9.16a3.43 3.43 0 0 0-.36-2.07c-.38-.57 0-1 .56-1.26a5.89 5.89 0 0 1 2.4-.22q18.3.23 36.59.48c4.35.06 8.71.17 13.06.27 2.22.05 2.42.28 2.41 2.53 0 3.28-.11 6.56 0 9.83a1.39 1.39 0 0 1-1.64 1.69H49.5v-.3zm.15-1.24v-.39H74.4c1.07 0 1.26-.32 1.24-1.27-.05-2.69-.08-5.39 0-8.08.05-1.24-.39-1.47-1.51-1.49-16.5-.3-33-.07-49.5-.09-.75 0-1 .18-1 1v9.16c0 .89.27 1.12 1.14 1.14q12.43.22 24.88.01z"/><path class="cls-6" d="M49.63 95.73c-8.53 0-17.05 0-25.58-.26-1.6 0-1.78-.21-1.77-1.8 0-3 .06-6 .07-9a3.66 3.66 0 0 0-.36-2.21c-.37-.57 0-1 .57-1.26a5.92 5.92 0 0 1 2.39-.26c11.93.15 23.86.13 35.78.46 4.53.13 9.06.18 13.6.28 2.58.06 2.68.17 2.66 2.81 0 3.19-.1 6.38 0 9.56a1.39 1.39 0 0 1-1.64 1.68H49.63zm0-1.53v-.36h24.9a.9.9 0 0 0 1.13-1.12v-7.95c0-1.72 0-1.72-1.74-1.75-16.38-.31-32.76-.09-49.14-.1-.78 0-1.12.12-1.11 1q.06 4.51 0 9c0 1 .31 1.19 1.23 1.2 8.19.22 16.45.28 24.71.08z"/><path class="cls-1" d="M118.11 182.14a.55.55 0 0 1-.61.53.66.66 0 0 1-.51-.68.48.48 0 0 1 .61-.51.58.58 0 0 1 .51.66z"/><path class="cls-8" d="M375.88 42.74a.53.53 0 0 1 .57.58.64.64 0 0 1-.42.73c-.42.06-.51-.42-.63-.71s.2-.49.48-.6z"/><path class="cls-4" d="M313.2 310q-34.92-.09-69.84.38c-22.62.33-45.23 1.24-67.85 1.25-1.83 0-1.85 0-1.81-1.87.27-12.42 0-24.84.13-37.26.21-16.42-.18-32.83-.52-49.24-.11-5.29.14-10.59.18-15.89 0-1 .42-1.18 1.28-1.19 6.77 0 13.55.05 20.32-.15q35.58-1 71.18-1.37c19.48-.2 39-.14 58.44-.06q38.57.17 77.14.56c10.9.1 21.8.3 32.7.53 5.56.12 11.12.43 16.68.6 1.39 0 1.76.6 1.75 2-.11 20.19-.21 40.38-.2 60.57 0 11.53.25 23.06.36 34.59 0 2.06-.2 4.13-.18 6.19 0 1.3-.54 1.58-1.7 1.56-7.54-.11-15.07-.18-22.61-.25l-56.38-.46zm-65.09-69.56c-.35-.16-.73-.44-.82.25a29.6 29.6 0 0 0-3.21-.4c-2.8-.27-5.63.14-8.46.07s-5.91 0-8.86.06h-9.41a12 12 0 0 0-2.12-.09c-2.44.44-4.88 0-7.33.17-2.25.16-4.52-.45-6.79-.08a1.56 1.56 0 0 1-.8 0 3.9 3.9 0 0 0-3 .16c-.44.17-1.31-.21-1.28.54 0 .54.81.6 1.31.75a1.19 1.19 0 0 0 .64.11 7.94 7.94 0 0 1 3.79-.07c3.33.56 6.63-.21 10 .15 2.44.26 5-.28 7.54-.39.84 0 1.62.5 2.43.11 1 .48 1.89-.29 2.87-.28a27.81 27.81 0 0 1 5.12.31c1.69.35 3.24-.55 4.87.16 1 .42 2.24-.25 3.29-.09 2 .31 3.92-.21 5.87-.08 1.11.07 2.21-.31 3.31 0a.79.79 0 0 0 .83.24h.5c1.57-.52 3.17.16 4.77-.12a13.85 13.85 0 0 1 3.06-.07 13.25 13.25 0 0 0 5.32-.27c.19-.07.45-.27.58 0 .35.76 1 .45 1.54.45 3.16 0 6.32 0 9.47-.19 1.23-.07 2.43.13 3.64.06 1.55-.09 3.1-.14 4.65-.22 1.91-.1 3.8.29 5.73.2a14 14 0 0 1 2.25-.35 15.15 15.15 0 0 0 4 .18c1.47-.18 3 .54 4.55-.18a1.29 1.29 0 0 1 1.05 0c1.28.78 2.69.21 4 .32s2.64-.14 3.92-.07c2.18.12 4.35 0 6.53.15a44.71 44.71 0 0 0 6-.28 29 29 0 0 1 3.16.28c2.21.09 4.43-.6 6.65 0a1.27 1.27 0 0 0 1-.12c.83-.74 1.77-.31 2.56-.17a5 5 0 0 0 1.62.12 31.07 31.07 0 0 1 5.5-.11 27 27 0 0 0 5.33.16c1.11-.17 2.31.61 3.32-.32a.41.41 0 0 1 .35.14c.37.77 1 .46 1.52.31a9.25 9.25 0 0 1 3.1-.25c.87 0 1.64-.49 2.48-.2 1.17.41 2.37-.09 3.55.15 1.35.27 2.7-.55 4-.17 1.82.54 3.69-.16 5.48.46a1.73 1.73 0 0 0 1.67-.28.7.7 0 0 1 .87 0 4.82 4.82 0 0 0 3.4.24c1.82-.27 3.61.13 5.47-.13a20.11 20.11 0 0 1 6.65.26c.6.12.93-.62 1.49-.37a6.06 6.06 0 0 0 3.94.11c.54-.12 1.35 0 1.31-.79s-.87-.64-1.39-.81a1.41 1.41 0 0 0-.79 0c-1.59.48-3.2-.16-4.85.17-1 .21-2.25-.12-3.36.24a.49.49 0 0 1-.34 0c-1.48-.81-3-.45-4.58-.29a27.82 27.82 0 0 1-3.76.11c-2-.06-4 .28-6-.16-1.18-.25-2.4.24-3.65.21-3.85-.1-7.71.13-11.57.12a21 21 0 0 1-3.58.08c-1.62-.36-3.15 0-4.7-.16a21 21 0 0 0-6-.07 24.92 24.92 0 0 1-2.92.18c-2 .13-4.1-.34-6.1-.11a22.61 22.61 0 0 1-3.55 0c-3.14-.14-6.28.19-9.4-.15-1.11-.12-2.2.24-3.27.08a49.32 49.32 0 0 0-5.1-.12c-2.32-.1-4.69 0-7 .07a8.68 8.68 0 0 1-2.51.17c-2.77-.76-5.55.08-8.34-.22-1.77-.19-3.77-.67-5.49.53a.54.54 0 0 1-.49-.07c-.34-.91-1-.42-1.59-.41a32.86 32.86 0 0 1-3.49 0c-1.44-.14-2.88-.07-4.32-.18-.68-.05-1.68.79-2.14.42-1.32-1-2.73-.16-4.07-.37-2.07-.33-4.28.11-6.44.11-.64 0-1.22-.45-1.76-.34-2.85.61-5.73 0-8.59.23-.62.05-1.42.35-1.94 0-.76-.51-1.09-.15-1.48.37a1.51 1.51 0 0 0-1.2-.16zm-2.43 13.47c1.64.75 3.34 0 5 .24 3.83.44 7.66-.32 11.5 0a51.36 51.36 0 0 0 5.44-.17c2.22 0 4.44.07 6.65 0 3.47-.06 6.94-.07 10.42-.11 2.07 0 4.15-.11 6.22-.12 1.33 0 2.65.13 4 .1 1.68 0 3.36-.25 5-.21s3.54.74 5.32-.09a1.55 1.55 0 0 1 1 .22 1.79 1.79 0 0 0 .86.24 57 57 0 0 1 6.05-.26c2 .14 4 0 5.94 0 3 0 6 .18 9.06 0 2.25-.12 4.48.18 6.72-.05 1.94-.2 3.87.15 5.84 0a61.75 61.75 0 0 1 7.62-.1c3.8.21 7.57-.57 11.35-.08a1.9 1.9 0 0 0 .8 0c2.34-.76 4.78-.18 7.19-.5a64 64 0 0 1 7-.2c2.56-.05 5.12 0 7.67-.06 3.74-.08 7.49 0 11.23 0 .51 0 1.41.39 1.46-.41s-.83-1.05-1.55-1.17a5 5 0 0 0-.94 0c-2.64.09-5.29.2-7.93.25-.88 0-1.78-.24-2.66-.19-1.94.12-3.88.09-5.82.22-1.52.11-3.16-.2-4.62 0-2.46.3-4.93.3-7.37.37-3.73.1-7.45.45-11.18.38-1.74 0-3.51.33-5.22.14-2.8-.3-5.59.25-8.36 0-1.11-.11-2.12.27-3.24.18a12.68 12.68 0 0 0-2.73-.37 35.79 35.79 0 0 1-6.2.19c-1 0-2.23-.65-3.08.55-.2.28-.5.14-.63-.15a.79.79 0 0 0-1.13-.38 2.75 2.75 0 0 1-1.57 0 9.2 9.2 0 0 0-3.08-.06 11.84 11.84 0 0 1-5.14-.07.91.91 0 0 0-.62 0c-.59.9-1.37.3-2.06.29-.92 0-2-.48-2.7-.11-1.57.85-3-.27-4.53 0a12.62 12.62 0 0 1-3.46-.09c-1.6-.2-3.38.24-5.1.31a23 23 0 0 1-5.92-.1c-.78-.17-2-.51-2.37-.26-1.33 1-2.7 0-3.89.41s-1.89-.72-2.79-.22c-1.35.75-2.81.11-4.26.46-1.7.42-3.54-.84-5.6-.29-1.31.35-3-.18-4.49-.06-1.82.14-3.65-.07-5.43.16-1 .13-1.92-.36-2.82-.19a32 32 0 0 1-5.6.17 18.3 18.3 0 0 0-5.37.39c-1.63.54-3.26-.25-4.9 0a7 7 0 0 1-1.44.14 46.77 46.77 0 0 0-6.56 0c-1.95.19-3.91-.16-5.82.21-1.29.25-2.7-.42-3.78.2-.91.53-1.39-.06-2-.17-.84-.14-1.48.49-2.3.49-2 0-4 .22-6 .21a63.71 63.71 0 0 0-6.74.31c-2.8.29-5.68-.36-8.42.66-.36.13-.43-.22-.63-.35a2 2 0 0 0-2.23 1c0 .35-.08.75.53.65 2-.34 4.06 0 6-.31a47.21 47.21 0 0 1 6.07-.38c2.63 0 5.22-.71 7.85-.37 2.21.29 4.4-.2 6.6-.25 2.63-.06 5.25-.28 7.88-.4a26.29 26.29 0 0 1 3.89-.34 60.23 60.23 0 0 0 6.93 0 17.05 17.05 0 0 0 5.2-.5zm10.44 20.28c.13-.65.92 0 1.12-.52h-69.2l1.15.36c-.93.75-.51 1.77-.54 2.69-.16 4.71-.33 9.42-.11 14.14.09 1.86.32 2.1 2.13 2.13 3.14.05 6.28.11 9.43.13l38.91.24c5.56 0 11.12.08 16.68-.33.85-.06 1.34-.29 1.35-1.25q.07-7.81.18-15.63a1.94 1.94 0 0 0-1.09-1.96zm148.48 0c-11.63-.15-22.17 0-32.71-.32-2.67-.09-2.69 0-2.73 2.64-.06 4.8-.41 9.6-.07 14.4.08 1.2.45 1.81 1.76 1.8 2 0 4 .11 6.06.14 14.85.23 29.71-.05 44.56.29a137.17 137.17 0 0 0 15.05-.43 1 1 0 0 0 1.09-1.18c.06-5.25.16-10.5.2-15.75 0-1.46-.48-1.83-1.88-1.8-10.8.25-21.61.27-31.32.23zm-105 0h-31.11c-2.93 0-2.95 0-3 2.8-.15 4.67-.32 9.33-.08 14 .09 1.66.35 1.93 2 2 3.19.05 6.37.11 9.56.13l38.78.24c5.56 0 11.12.07 16.68-.32 1-.07 1.45-.36 1.46-1.43 0-5.07.13-10.15.16-15.22 0-1.84-.29-2.06-2.14-2-10.8.1-21.57.25-32.35-.16zm96.54-45.63a7.63 7.63 0 0 1 1.09-.2c.29 0 .65.22.72-.29a.7.7 0 0 0-.51-.84 1.52 1.52 0 0 0-.88-.19c-.69.57-1.39.14-2.06.08a28.44 28.44 0 0 0-5-.13c-2.1.2-4.13-.05-6.18.09-.72 0-1.43-.6-2-.16s-1.21.27-1.85.29c-.88 0-1.73-.22-2.63-.18a13.49 13.49 0 0 1-3.17.11c-2.1-.4-4.2 0-6.3 0-1.49 0-3 .06-4.48 0-1.8 0-3.6-.15-5.4-.18-.9 0-2.05.49-2.63.28-1.82-.65-3.63-.23-5.42-.35-2.1-.14-4.19.34-6.37.13a29 29 0 0 0-5.26 0c-2.88.26-5.79 0-8.7.1a30.18 30.18 0 0 0-3.06-.17 38 38 0 0 1-4.74.1c-2.61.06-5.24.18-7.88.1a35 35 0 0 0-6.39 0c-2.09.32-4.17-.35-6.31-.07a14.74 14.74 0 0 1-3.07.13 41.2 41.2 0 0 0-5.43-.16c-1.58.08-3.17 0-4.75.13-3.23.19-6.46-.29-9.7.12a10.17 10.17 0 0 1-1.77-.12 40.34 40.34 0 0 0-4.91.09c-1.12.06-2.37.56-3.34.22-2.17-.75-4.24.2-6.36 0a25.56 25.56 0 0 0-4.39 0c-2.31.14-4.62-.18-6.94.17a7.84 7.84 0 0 1-3.05.25 16.74 16.74 0 0 0-3.3-.24c-1.5 0-3 .22-4.49.08-2.76-.26-5.53.1-8.29.11-1.59 0-3.18 0-4.77-.08a32 32 0 0 0-4.16.08 7.08 7.08 0 0 1-2.24-.05c-.75-.16-1.6-.53-2.31.09a1.24 1.24 0 0 1-1.35.2 5.44 5.44 0 0 0-1.58-.26c-3.14 0-6.27.16-9.41.07a61.24 61.24 0 0 0-8.75.14c-.73.08-1 .32-1 .88s.59.42.93.4c2.05-.08 4.14-.18 6.16-.1s3.93 0 5.89.08c3 .16 6 .09 9 0 2.47-.06 5 .7 7.4-.62a.29.29 0 0 1 .24 0c2 1.25 4.12.46 6.17.55a26.64 26.64 0 0 0 5.41-.23 21.86 21.86 0 0 1 4.08 0 36.41 36.41 0 0 0 5.7.11 18.72 18.72 0 0 0 3.52-.25c1-.29 2.26.75 3.34-.26a1.38 1.38 0 0 1 .31.22.56.56 0 0 0 .91-.18c.5-.75 1-.7 1.42 0a.72.72 0 0 0 .55.34c2.27.32 4.44-.7 6.79-.25 1.55.3 3.25-.35 5-.15 2.82.32 5.72-.14 8.57 0 1.57.08 3.1-.55 4.66-.11a9.92 9.92 0 0 0 3.27.13c1.68-.09 3.35-.37 5-.42 1.5 0 3 .43 4.54.38 2.24-.08 4.48-.14 6.72-.09 1.59 0 3.19.57 4.75-.22a1.38 1.38 0 0 1 .52.06c1.64.05 3.3 0 4.93.17s3.34-.42 4.93-.14c1.92.33 3.8-.41 5.69.12 1.27.35 2.63-.41 3.86.07s2.68 0 4 0 2.69.38 4-.12c1.07-.41 2.29.26 3.27 0 2-.54 3.87.44 5.84-.06a7.25 7.25 0 0 1 2.93-.06c2.51.51 5 0 7.47.11 1.76.06 3.58.08 5.38 0 1.08-.05 2.39.17 3.53.2 2.11.05 4.25-.36 6.37-.08 1.83.24 3.62-.4 5.46-.06 1.48.27 3 .05 4.53.24 1.24.16 2.51-.52 3.81-.21.9.22 1.86-.3 2.65 0a4.14 4.14 0 0 0 2.2.16 6.11 6.11 0 0 1 2.1-.24 20.72 20.72 0 0 0 3.9.29c1.04.09 2.03-.47 3.04-.11z"/><path class="cls-9" d="M414.21 148.25h-35.17c-1 0-1.39-.22-1.37-1.31.07-3.73 0-7.45 0-11.18 0-.67.05-1 .92-1 19-.29 38.06-1 57.1-.75q7.41.11 14.81.27c2.62.06 2.67.08 2.84 2.64.24 3.55 0 7.09-.11 10.64a.65.65 0 0 1-.83.73c-1.3-.1-2.59-.23-3.89-.26-11.41-.37-22.85.23-34.3.22zM274.49 141.49v-5.65c0-.64.1-.94.89-.94 13 0 26.09-.78 39.14-.72 10.85 0 21.71-.17 32.56.27 4 .16 3.11-.11 3.38 3.34.26 3.27-.06 6.55-.11 9.82 0 1.15-.77.91-1.37.86-7.35-.6-14.7-.29-22.05-.16-17 .31-33.91.14-50.87.22-1.35 0-1.66-.41-1.6-1.65.1-1.79 0-3.59 0-5.38zM212.43 132.85c11.49.13 23.15-.17 34.81.3 4 .16 3.28-.18 3.49 3.49.18 3.17-.1 6.37-.09 9.55 0 1.18-.71 1-1.41 1-7.44-.62-14.88-.31-22.32-.17-16.91.32-33.82.14-50.73.21-1.11 0-1.46-.27-1.43-1.39.07-3.72 0-7.45 0-11.17 0-.64 0-1 .91-1.06 12.21-.24 24.4-.51 36.77-.76z"/><path class="cls-8" d="M24.69 23.78c4.62.06 9.23.19 13.85.18q25.67-.05 51.35-.17c2.15 0 4.3.1 6.46.1a1 1 0 0 1 1.19 1.12q0 11.84.15 23.68c0 .82-.29.92-1 .91-17.08-.26-34.17.23-51.25.33-6.91 0-13.82 0-20.73-.08-.66-8.68-.23-17.36-.02-26.07z"/><path class="cls-10" d="M24.69 23.78c-.22 8.69-.64 17.39 0 26.08-1.69.1-1.62.1-1.67-1.56q-.32-9.32-.18-18.65c0-1.43.19-2.86.13-4.29s.48-1.78 1.72-1.58z"/><path class="cls-11" d="M50.64 102.98h23.83c2.23 0 2.23 0 2.23 2.17v7.54a.87.87 0 0 1-1.06 1.08c-10.41.09-20.82.14-31.23.39-6 .14-12-.21-18-.09-1.07 0-1.5-.21-1.46-1.39.1-2.87.08-5.74 0-8.62 0-.9.28-1.13 1.16-1.12h24.51z"/><path class="cls-8" d="M49.65 73.74q-12.45.22-24.91 0c-.87 0-1.16-.25-1.14-1.14.06-3.05.07-6.11 0-9.16 0-.78.26-1 1-1 16.5 0 33-.21 49.5.09 1.12 0 1.57.25 1.51 1.49-.11 2.69-.08 5.39 0 8.08 0 1-.17 1.28-1.24 1.27-8.25-.06-16.5 0-24.75 0v.39z"/><path class="cls-10" d="M49.61 94.2c-8.26.19-16.52.14-24.78 0-.92 0-1.25-.25-1.23-1.2q.1-4.51 0-9c0-.89.33-1 1.11-1 16.38 0 32.76-.21 49.14.1 1.74 0 1.74 0 1.74 1.75v7.95a.9.9 0 0 1-1.13 1.12h-24.9v.36z"/><path class="cls-7" d="M404.61 274.21c9.72 0 20.53 0 31.33-.21 1.4 0 1.89.35 1.88 1.8 0 5.25-.14 10.5-.2 15.75a1 1 0 0 1-1.09 1.18 137.17 137.17 0 0 1-15.05.43c-14.85-.35-29.71-.07-44.56-.29-2 0-4-.16-6.06-.14-1.3 0-1.67-.6-1.76-1.8-.34-4.8 0-9.6.07-14.4 0-2.66.06-2.73 2.73-2.64 10.53.34 21.08.17 32.71.32zm-1.55 16.91h8.2c7.94 0 15.88-.19 23.82.14 1 0 1.18-.23 1.18-1.13 0-4.44-.06-8.89 0-13.33 0-1.18-.38-1.39-1.45-1.36-5.25.15-10.5.21-15.74.32-15.81.3-31.63.47-47.44.19a.81.81 0 0 0-1 .94c-.3 4.17-.12 8.34-.12 12.51 0 2 0 2 2 2 10.32-.04 20.64.09 30.55-.28z"/><path class="cls-12" d="M256.13 274.18a1.94 1.94 0 0 1 1.08 2q-.1 7.81-.18 15.63c0 1-.5 1.18-1.35 1.25-5.55.41-11.11.37-16.68.33l-38.91-.24c-3.14 0-6.29-.08-9.43-.13-1.81 0-2-.28-2.13-2.13-.22-4.72-.05-9.43.11-14.14 0-.93-.39-1.95.54-2.7l7.54.08a1 1 0 0 0 1.1.25c18.78.13 37.56.37 56.34 0a1.85 1.85 0 0 0 1.29-.21h.16a.2.2 0 0 0 .34 0H256.12zm-33.23 17.48c10.55-.11 21.11-.49 31.66-.06 1 0 1.18-.29 1.18-1.18v-12.78c0-2 0-2-2.06-1.94q-20.16.49-40.33.57c-7.4 0-14.8.19-22.19-.14-1 0-1.19.18-1.22 1.1-.15 4.35 0 8.7-.06 13.06 0 1.13.3 1.41 1.4 1.4 10.54-.04 21.08-.03 31.62-.03zM299.56 274.23c10.77.41 21.54.26 32.31.12 1.85 0 2.15.2 2.14 2 0 5.07-.14 10.15-.16 15.22 0 1.07-.47 1.36-1.46 1.43-5.55.39-11.11.35-16.68.32l-38.77-.24c-3.19 0-6.37-.08-9.56-.13-1.67 0-1.94-.29-2-2-.24-4.67-.07-9.34.08-14 .09-2.81.11-2.8 3-2.8h31.08zm0 2.05h-9.55c-7.35 0-14.71.19-22.06-.15-1 0-1.19.17-1.22 1.09-.13 4.22-.1 8.44 0 12.65 0 2.05-.31 1.77 1.77 1.79 21 .19 42.09-.59 63.14-.05.92 0 .9-.43.9-1v-12.92c0-2 0-2-2.05-1.95z"/><path class="cls-13" d="M396.11 228.6c-1-.35-2 .2-3 .17a20.72 20.72 0 0 1-3.9-.29 6.11 6.11 0 0 0-2.1.24 4.14 4.14 0 0 1-2.2-.16c-.79-.3-1.75.22-2.65 0-1.3-.31-2.57.37-3.81.21-1.52-.19-3 0-4.53-.24-1.84-.34-3.63.3-5.46.06-2.12-.28-4.26.13-6.37.08-1.14 0-2.44-.26-3.53-.2-1.79.09-3.62.07-5.38 0-2.48-.08-5 .4-7.47-.11a7.25 7.25 0 0 0-2.93.06c-2 .5-3.87-.48-5.84.06-1 .27-2.2-.4-3.27 0-1.33.51-2.75.14-4 .12s-2.63.54-4 0-2.59.28-3.86-.07c-1.89-.52-3.77.21-5.69-.12-1.59-.27-3.26.28-4.93.14s-3.29-.12-4.93-.17a1.38 1.38 0 0 0-.52-.06c-1.56.79-3.16.26-4.75.22-2.24 0-4.48 0-6.72.09-1.54.06-3-.42-4.54-.38-1.67.05-3.34.32-5 .42a9.92 9.92 0 0 1-3.27-.13c-1.57-.44-3.09.19-4.66.11-2.85-.15-5.75.31-8.57 0-1.75-.2-3.45.45-5 .15-2.35-.45-4.53.57-6.79.25a.72.72 0 0 1-.55-.34c-.46-.72-.93-.77-1.42 0a.56.56 0 0 1-.91.18 1.38 1.38 0 0 0-.31-.22c-1.08 1-2.34 0-3.34.26a18.72 18.72 0 0 1-3.52.25 36.41 36.41 0 0 1-5.7-.11 21.86 21.86 0 0 0-4.08 0 26.64 26.64 0 0 1-5.41.23c-2.05-.09-4.22.7-6.17-.55a.29.29 0 0 0-.24 0c-2.37 1.32-4.92.56-7.4.62-3 .07-6 .14-9 0-2-.1-3.93 0-5.89-.08s-4.1 0-6.16.1c-.34 0-.93.23-.93-.4s.27-.8 1-.88a61.24 61.24 0 0 1 8.75-.14c3.13.09 6.27-.06 9.41-.07a5.44 5.44 0 0 1 1.58.26 1.24 1.24 0 0 0 1.35-.2c.71-.62 1.56-.25 2.31-.09a7.08 7.08 0 0 0 2.24.05 32 32 0 0 1 4.16-.08c1.59 0 3.18.08 4.77.08 2.76 0 5.53-.37 8.29-.11 1.5.14 3-.13 4.49-.08a16.74 16.74 0 0 1 3.3.24 7.84 7.84 0 0 0 3.05-.25c2.32-.35 4.63 0 6.94-.17a25.56 25.56 0 0 1 4.39 0c2.12.24 4.19-.71 6.36 0 1 .34 2.21-.17 3.34-.22a40.34 40.34 0 0 1 4.91-.09 10.17 10.17 0 0 0 1.77.12c3.24-.41 6.47.07 9.7-.12 1.58-.09 3.16 0 4.75-.13a41.2 41.2 0 0 1 5.43.16 14.74 14.74 0 0 0 3.07-.13c2.14-.28 4.22.39 6.31.07a35 35 0 0 1 6.39 0c2.63.08 5.26 0 7.88-.1a38 38 0 0 0 4.74-.1 30.18 30.18 0 0 1 3.06.17c2.9-.12 5.82.16 8.7-.1a29 29 0 0 1 5.26 0c2.19.21 4.27-.28 6.37-.13 1.79.12 3.6-.3 5.42.35.58.21 1.73-.29 2.63-.28 1.8 0 3.6.15 5.4.18 1.49 0 3-.06 4.48 0 2.1 0 4.2-.41 6.3 0a13.49 13.49 0 0 0 3.17-.11c.91 0 1.75.21 2.63.18.64 0 1.21.26 1.85-.29s1.24.21 2 .16c2-.14 4.09.12 6.18-.09a28.44 28.44 0 0 1 5 .13c.67.06 1.36.49 2.06-.08a1.52 1.52 0 0 1 .88.19.7.7 0 0 1 .51.84c-.07.5-.43.27-.72.29a7.63 7.63 0 0 0-1.16.18z"/><path class="cls-14" d="M245.67 253.06a18.3 18.3 0 0 1 5.37-.39 32 32 0 0 0 5.6-.17c.9-.18 1.8.32 2.82.19 1.78-.23 3.61 0 5.43-.16 1.49-.12 3.17.41 4.49.06 2.06-.54 3.9.71 5.6.29 1.45-.36 2.91.28 4.26-.46.9-.49 1.71.57 2.79.22s2.56.55 3.89-.41c.34-.25 1.59.09 2.37.26a23 23 0 0 0 5.92.1c1.72-.07 3.5-.51 5.1-.31a12.62 12.62 0 0 0 3.46.09c1.54-.27 3 .85 4.53 0 .68-.37 1.79.09 2.7.11.69 0 1.47.61 2.06-.29a.91.91 0 0 1 .62 0 11.84 11.84 0 0 0 5.14.07 9.2 9.2 0 0 1 3.08.06 2.75 2.75 0 0 0 1.57 0 .79.79 0 0 1 1.13.38c.12.3.43.43.63.15.85-1.2 2.08-.59 3.08-.55a35.79 35.79 0 0 0 6.2-.19 12.68 12.68 0 0 1 2.73.37c1.11.09 2.13-.29 3.24-.18 2.77.28 5.56-.28 8.36 0 1.71.19 3.48-.17 5.22-.14 3.73.07 7.45-.28 11.18-.38 2.44-.07 4.91-.07 7.37-.37 1.45-.18 3.1.13 4.62 0 1.94-.13 3.88-.11 5.82-.22.88-.05 1.77.21 2.66.19 2.65 0 5.29-.17 7.93-.25a5 5 0 0 1 .94 0c.73.12 1.61.35 1.55 1.17s-1 .41-1.46.41h-11.23c-2.56.06-5.12 0-7.67.06a64 64 0 0 0-7 .2c-2.41.32-4.85-.26-7.19.5a1.9 1.9 0 0 1-.8 0c-3.78-.49-7.55.29-11.35.08a61.75 61.75 0 0 0-7.62.1c-2 .14-3.9-.21-5.84 0-2.24.23-4.47-.06-6.72.05-3 .16-6 0-9.06 0-2 0-4 .1-5.94 0a57 57 0 0 0-6.05.26 1.79 1.79 0 0 1-.86-.24 1.55 1.55 0 0 0-1-.22c-1.78.83-3.55.13-5.32.09s-3.36.18-5 .21c-1.32 0-2.65-.11-4-.1-2.07 0-4.15.09-6.22.12-3.47 0-6.94.06-10.42.11-2.22 0-4.44-.08-6.65 0a51.36 51.36 0 0 1-5.44.17c-3.84-.33-7.68.43-11.5 0-1.68-.19-3.38.51-5-.24zM249.17 240.72c.39-.52.72-.89 1.48-.37.52.35 1.32.05 1.94 0 2.86-.25 5.74.38 8.59-.23.55-.12 1.12.34 1.76.34 2.16 0 4.37-.44 6.44-.11 1.34.21 2.74-.67 4.07.37.47.37 1.46-.47 2.14-.42 1.44.11 2.88 0 4.32.18a32.86 32.86 0 0 0 3.49 0c.55 0 1.25-.5 1.59.41a.54.54 0 0 0 .49.07c1.73-1.2 3.73-.72 5.49-.53 2.79.3 5.57-.55 8.34.22a8.68 8.68 0 0 0 2.51-.17c2.35-.11 4.72-.18 7-.07a49.32 49.32 0 0 1 5.1.12c1.07.16 2.16-.2 3.27-.08 3.12.34 6.26 0 9.4.15a22.61 22.61 0 0 0 3.55 0c2-.23 4.07.24 6.1.11a24.92 24.92 0 0 0 2.92-.18 21 21 0 0 1 6 .07c1.56.16 3.08-.2 4.7.16a21 21 0 0 0 3.58-.08c3.86 0 7.72-.21 11.57-.12 1.25 0 2.46-.46 3.65-.21 2 .43 4 .09 6 .16a27.82 27.82 0 0 0 3.76-.11c1.54-.16 3.1-.53 4.58.29a.49.49 0 0 0 .34 0c1.12-.36 2.33 0 3.36-.24 1.65-.33 3.26.32 4.85-.17a1.41 1.41 0 0 1 .79 0c.52.17 1.36.08 1.39.81s-.77.67-1.31.79a6.06 6.06 0 0 1-3.94-.11c-.55-.25-.89.49-1.49.37a20.11 20.11 0 0 0-6.65-.26c-1.86.26-3.66-.14-5.47.13a4.82 4.82 0 0 1-3.4-.24.7.7 0 0 0-.87 0 1.73 1.73 0 0 1-1.67.28c-1.8-.62-3.66.08-5.48-.46-1.28-.38-2.64.43-4 .17-1.18-.23-2.38.26-3.55-.15-.84-.29-1.61.23-2.48.2a9.25 9.25 0 0 0-3.1.25c-.49.15-1.15.46-1.52-.31a.41.41 0 0 0-.35-.14c-1 .93-2.21.15-3.32.32a27 27 0 0 1-5.33-.16 31.07 31.07 0 0 0-5.5.11 5 5 0 0 1-1.62-.12c-.79-.14-1.73-.57-2.56.17a1.27 1.27 0 0 1-1 .12c-2.22-.64-4.43.05-6.65 0a29 29 0 0 0-3.16-.28 44.71 44.71 0 0 1-6 .28c-2.18-.15-4.35 0-6.53-.15-1.29-.07-2.68.18-3.92.07s-2.72.46-4-.32a1.29 1.29 0 0 0-1.05 0c-1.52.72-3.08 0-4.55.18a15.15 15.15 0 0 1-4-.18 14 14 0 0 0-2.25.35c-1.93.09-3.82-.31-5.73-.2-1.55.08-3.1.13-4.65.22-1.22.07-2.41-.13-3.64-.06-3.15.18-6.31.17-9.47.19-.52 0-1.19.31-1.54-.45-.13-.29-.39-.09-.58 0a13.25 13.25 0 0 1-5.32.27 13.85 13.85 0 0 0-3.06.07c-1.59.27-3.19-.4-4.77.12.18-.21-.41-1 .57-.66.39-.01.32-.54.35-.78z"/><path class="cls-13" d="M247.03 241.77c-1.11-.28-2.21.1-3.31 0-2-.12-3.88.39-5.87.08-1-.16-2.33.51-3.29.09-1.63-.71-3.18.2-4.87-.16a27.81 27.81 0 0 0-5.12-.31c-1 0-1.86.76-2.87.28l-.1-.06.11.06c-.81.39-1.59-.14-2.43-.11-2.52.1-5.1.65-7.54.39-3.33-.36-6.63.4-10-.15a7.94 7.94 0 0 0-3.79.07 1.19 1.19 0 0 1-.64-.11c-.5-.16-1.29-.21-1.31-.75 0-.76.84-.37 1.28-.54a3.9 3.9 0 0 1 3-.16 1.56 1.56 0 0 0 .8 0c2.27-.37 4.54.24 6.79.08 2.44-.18 4.89.28 7.33-.17a12 12 0 0 1 2.12.09h9.41c3 0 5.91-.13 8.86-.06s5.66-.34 8.46-.07a29.58 29.58 0 0 1 3.21.4 1.82 1.82 0 0 1-.23 1.11zM245.67 253.06v.85a17 17 0 0 1-5.13.49 60.23 60.23 0 0 1-6.93 0 26.29 26.29 0 0 0-3.89.34c-2.63.12-5.25.34-7.88.4-2.2.05-4.38.54-6.6.25-2.63-.34-5.22.36-7.85.37a47.21 47.21 0 0 0-6.07.38c-2 .26-4 0-6 .31-.61.1-.57-.3-.53-.65a2 2 0 0 1 2.23-1c.21.13.27.49.63.35 2.74-1 5.62-.37 8.42-.66a63.71 63.71 0 0 1 6.74-.31c2 0 4-.2 6-.21.82 0 1.46-.63 2.3-.49.66.11 1.13.7 2 .17 1.08-.62 2.49.05 3.78-.2 1.91-.37 3.87 0 5.82-.21a46.77 46.77 0 0 1 6.56 0 7 7 0 0 0 1.44-.14c1.7-.29 3.33.5 4.96-.04z"/><path class="cls-15" d="M255.62 274.16h-.16c-.35-.54-.9-.29-1.35-.29h-55.83a2.2 2.2 0 0 0-1.55.25l-7.54-.08-1.15-.36h69.21c-.2.48-1-.13-1.12.52H255.96c-.12-.23-.21-.23-.34-.04z"/><path class="cls-14" d="M247.03 241.77a1.82 1.82 0 0 0 .27-1.08c.09-.69.47-.41.82-.25l-.26 1.57a.79.79 0 0 1-.83-.24z"/><path class="cls-11" d="M247.86 242.01l.26-1.57a1.51 1.51 0 0 1 1.05.28c0 .24 0 .73-.24.63-1-.37-.39.45-.57.66h-.5z"/><path class="cls-9" d="M403.06 291.12c-9.91.32-20.22.25-30.54.24-2 0-2 0-2-2 0-4.17-.19-8.34.12-12.51a.81.81 0 0 1 1-.94c15.81.28 31.63.11 47.44-.19 5.25-.1 10.5-.17 15.74-.32 1.07 0 1.47.18 1.45 1.36-.07 4.44 0 8.89 0 13.33 0 .9-.14 1.17-1.18 1.13-7.94-.33-15.88-.1-23.82-.14-2.61.03-5.21.04-8.21.04z"/><path class="cls-15" d="M222.9 291.66h-31.61c-1.1 0-1.41-.27-1.4-1.4 0-4.35-.09-8.7.06-13.06 0-.92.22-1.14 1.22-1.1 7.39.34 14.79.17 22.19.14q20.17-.06 40.33-.57c2 0 2.05 0 2.06 1.94v12.78c0 .89-.16 1.22-1.18 1.18-10.56-.4-21.12-.01-31.67.09z"/><path class="cls-4" d="M196.75 274.1a2.2 2.2 0 0 1 1.55-.25h55.83c.45 0 1-.25 1.35.29a1.85 1.85 0 0 1-1.29.21c-18.78.36-37.56.11-56.34 0a1 1 0 0 1-1.1-.25zM255.62 274.16c.11-.19.22-.19.34 0a.2.2 0 0 1-.34 0z"/><path class="cls-15" d="M299.58 276.28l30.92-.58c2 0 2 0 2.05 1.95v12.92c0 .62 0 1.07-.9 1-21-.54-42.09.24-63.14.05-2.08 0-1.74.27-1.77-1.79-.08-4.22-.11-8.43 0-12.65 0-.92.23-1.14 1.22-1.09 7.35.34 14.7.16 22.06.15h9.55z"/><path class="cls-4" d="M221.75 241.77l-.11-.06.1.06z"/><path class="cls-1" d="M248.91 374.71c49.63-.16 99.25.4 148.88.61 26.95.11 53.89.37 80.84-.11 5.34-.09 10.68-.08 16-.15 1.86 0 2.26-.44 2.27-2 .15-30.83.84-61.65 1.2-92.48.36-30.43.24-60.87.15-91.3q-.24-83.07-.34-166.14c0-6.59-.1-13.19-.7-19.76-.16-1.73-1-2.45-2.71-2.53-2.06-.1-4.12-.2-6.19-.21-31.87-.15-63.74-.4-95.56-.39Q294.8.25 196.86.5 112.59.56 28.32.5c-7.8 0-15.6-.17-23.39.19-4 .18-3.39.17-3.38 3.72.09 43.17-.24 86.34-.45 129.51Q.74 206.75.39 279.57c-.07 17.39-.28 34.78.24 52.17q.6 20.37.66 40.75c0 2.09.28 2.34 2.3 2.37 8.43.1 16.86.18 25.29.31q53 .81 106 .13c37.99-.52 76.01-.54 114.03-.59z"/><path class="cls-2" d="M248.91 374.71c-38 .05-76 .08-114.06.6q-53 .72-106-.13c-8.43-.13-16.86-.21-25.29-.31-2 0-2.3-.27-2.3-2.37q-.07-20.38-.66-40.75c-.52-17.39-.3-34.78-.24-52.17q.28-72.83.71-145.65c.21-43.17.55-86.34.45-129.51C1.52.87.93.89 4.9.7 12.7.34 20.5.51 28.29.51h168.54Q294.75.42 392.75.25c31.87 0 63.74.22 95.61.35 2.06 0 4.12.11 6.19.21 1.73.08 2.55.8 2.71 2.53.6 6.57.69 13.16.7 19.76q.18 83.07.34 166.14c.09 30.43.2 60.87-.15 91.3-.36 30.83-1 61.65-1.2 92.48 0 1.6-.41 2-2.27 2-5.34.08-10.68.06-16 .15-26.95.47-53.89.22-80.84.11-49.68-.17-99.31-.74-148.93-.57zm59.92-2.9v.34h35c14.36.05 28.72.2 43.08.25 22.84.09 45.76.09 68.64.19 12.74.08 25.48.4 38.22.65 1.12 0 1.61-.15 1.57-1.41-.06-2.19.11-4.4.11-6.59.06-56.77.18-113.55-.08-170.32-.16-34.6-.18-69.2-.26-103.79 0-17.58 0-35.15-.11-52.73 0-11.26.4-22.52.21-33.79 0-1.83-.06-1.84-1.92-1.9-9-.26-17.95-.26-26.92-.18-13.91.14-27.82.19-41.73.28q-21.4.14-42.8.26c-11.48.05-23 0-34.44.06l-130.33.22q-46.42.07-92.84.09c-1.91 0-1.72-.25-1.7 1.74q.17 21.21.35 42.41c.13 17.18.36 34.36.34 51.55-.06 67.24.6 134.48-.39 201.73-.2 13.73.07 27.47 0 41.21 0 9.69-.21 19.39-.36 29.08 0 1.1.25 1.44 1.4 1.42 13.73-.21 27.46-.44 41.19-.52q38.58-.21 77.15-.26 33.33-.05 66.62 0zM3.75 95.13v10.36c.16 26.83.24 53.66-.09 80.49 0 1 .24 1.39 1.33 1.38q11.65-.11 23.3-.08a1.17 1.17 0 0 0 1.46-1.34 28.31 28.31 0 0 1 28.36-27 2 2 0 0 0 1.17-.1c1-1.11 2.17-.76 3.26-.57a30.64 30.64 0 0 1 8.32 2.6c10.42 5.19 16.6 13.4 17.62 25.17.09 1 .58 1 1.29 1l28.81.24c2.15 0 1.82.26 1.82-1.87 0-29.73 0-59.46.18-89.19q.34-45.43.62-90.86c0-2.41.13-1.94-1.91-1.94h-70.1c-15 0-30 .23-45-.24-1.21-.06-1.44.31-1.44 1.31 0 12.88.28 25.76.42 38.65q.33 26.01.58 51.99zm50.49 278.36c27-.14 46.27-.47 65.51-.77 1.18 0 1.52-.31 1.5-1.5-.12-5.79-.18-11.58-.23-17.37-.24-27.71.2-55.43-.57-83.14 0-1.18-.3-1.49-1.49-1.46-11.47.31-23 .12-34.43.2-26.52.19-53-.2-79.55-.25-1.75 0-1.76 0-1.76 1.73 0 6.5-.07 13 0 19.49.2 27.1-.77 54.2-.45 81.3-.02 1.77-.02 1.77 1.76 1.77h49.71zm4.51-158.38a22.55 22.55 0 0 0 5.47-.56c14.39-3.28 22.61-15.51 22-28.25a25 25 0 0 0-4.25-12.87c-6.11-9.24-16.5-15-28.88-12.58-11.73 2.26-19.48 11.78-21.21 22.49-.24 1.48-.73 3 .25 4.48.13.19.3.75 0 .86-.89.35-.55 1-.5 1.59a27 27 0 0 0 27.12 24.84z"/><path class="cls-3" d="M308.83 371.8h-66.58q-38.58.07-77.15.26c-13.73.08-27.46.31-41.19.52-1.15 0-1.42-.32-1.4-1.42.16-9.69.33-19.39.36-29.08 0-13.74-.23-27.47 0-41.21 1-67.24.33-134.48.39-201.73 0-17.18-.21-34.36-.34-51.55q-.17-21.19-.39-42.4c0-2-.21-1.74 1.7-1.74q46.42-.05 92.84-.09 65.16-.09 130.33-.22c11.48 0 23 0 34.44-.06q21.4-.09 42.8-.26c13.91-.09 27.82-.14 41.73-.28 9-.09 17.95-.08 26.92.18 1.87.05 1.89.07 1.92 1.9.19 11.26-.26 22.52-.21 33.79.08 17.58.07 35.15.11 52.73.08 34.6.1 69.2.26 103.79.26 56.77.14 113.55.08 170.32 0 2.2-.17 4.4-.11 6.59 0 1.27-.45 1.44-1.57 1.41-12.74-.26-25.48-.57-38.22-.65-22.88-.11-45.8-.11-68.66-.21-14.36-.05-28.72-.19-43.08-.25h-35v-.34zm-1.69-349h-21.68l-65.71-.12c-1.07 0-2.15.1-3.22.18a1.26 1.26 0 0 0-1.41 1.3 1.32 1.32 0 0 0 1.36 1.22 18.53 18.53 0 0 0 4.16.19c1.15-.07 1.54.22 1.52 1.45-.12 6-.15 12-.19 18 0 2.32 0 2.35 2.31 2.35 18.94.05 37.88-.09 56.82.16 10.86.14 21.71.21 32.57.29q22.21.15 44.42.25c6.86 0 13.72.08 20.57 0 5.87-.1 11.76 0 17.62-.39 1.53-.1 1.86-.41 1.87-1.84q0-10.17.07-20.33c0-1.68-.36-2.06-2-2.09-3-.07-6-.16-9-.16-10.72 0-21.44.17-32.16 0-15.98-.15-31.96-.04-47.92-.5zm5.9 290.46v.33h51.42c13.81 0 27.62.11 41.43.17 15.29.07 30.58.38 45.86 0 2.64-.06 3.57-1 3.57-3.61v-21c-.24-19.33.23-38.66.43-58 .08-7.22.09-14.44-.3-21.66-.19-3.62.18-4.72-5.18-4.9-6.23-.21-12.47-.5-18.7-.68-13.41-.39-26.82-.8-40.24-1.09-14.85-.32-29.7-.67-44.55-.76-33.83-.2-67.66-.41-101.48.3-15.57.33-31.14.42-46.69 1.16-8.2.39-16.39 1-24.58 1.51a1.36 1.36 0 0 0-1.53 1.64c0 3.82-.25 7.63-.26 11.45 0 18.26-.2 36.52.13 54.78.23 12.69.29 25.38.09 38.08 0 2.14.07 2.25 2.15 2.23 22.08-.14 44.16-.31 66.23-.4 24.03-.12 48.12.15 72.2.41zm-2-240.89v.26h1.62c16.19 0 32.37.12 48.56 0 23.33-.23 46.65.06 70-.33h1.21a1 1 0 0 0 1.15-1 1 1 0 0 0-1.18-1c-.36 0-.72 0-1.08-.05-3.46-.05-6.91-.13-10.37-.14q-46.23-.12-92.46-.2-29.81 0-59.62.24c-24 .23-48.1.36-72.15.52h-6.73c-.49 0-1.09 0-1.08.69s.53.64 1 .65h.54c22.53.16 45.05.37 67.58.46 17.72-.08 35.36-.14 53.04-.14zm7.2 27.5v.35c36.31.25 72.61-.06 108.91-.31 3.1 0 6.19-.16 9.29-.26.51 0 1.22 0 1.25-.71s-.65-.72-1.19-.75c-1.21-.08-2.42-.22-3.63-.23q-25.65-.24-51.29-.44-44.27-.29-88.55 0-45.91.36-91.83.66a8.49 8.49 0 0 0-.94 0 .67.67 0 0 0-.69.68.62.62 0 0 0 .74.6h.81c17.1.11 34.2.28 51.3.33 21.98.08 43.92.04 65.85.04zm102.81 50.45c6.55 0 18.54.3 30.52-.33 3.38-.18 3.37-.22 3.57-3.55v-.54a81.81 81.81 0 0 0 0-10.63 2.2 2.2 0 0 0-2.28-2.15c-3-.35-6.09-.33-9.14-.45-3.81-.15-7.63 0-11.45-.14-16.84-.41-33.67-.28-50.51.16a14.33 14.33 0 0 0-4.27.44 1.29 1.29 0 0 0-1.17 1.25v14c0 1.09.5 1.46 1.58 1.47 12.57.13 25.14.27 43.15.47zm-110.3-.21v.38c13.27 0 26.54.26 39.8-.38a1.15 1.15 0 0 0 1.3-1.19 112 112 0 0 0 .16-12.92c-.15-2.07-.67-2.49-2.79-2.64-.8-.06-1.61-.14-2.41-.18-6.27-.31-12.56-.26-18.83-.4-16.15-.37-32.29-.28-48.44.2a20.43 20.43 0 0 0-4.81.38 1.38 1.38 0 0 0-1.31 1.41c0 4.49-.05 9 0 13.46 0 1.81.13 1.85 2 1.85h35.33zm-99.74-1.35v.43c12.5-.05 25 .31 37.51-.37 3.53-.19 3.57-.22 3.72-3.75a78.92 78.92 0 0 0 0-10.9 2.09 2.09 0 0 0-2.18-2.1c-1-.08-2.06-.18-3.09-.23-6.23-.3-12.47-.25-18.7-.39-15.7-.36-31.4-.26-47.09.14a37.05 37.05 0 0 0-6 .4 1.4 1.4 0 0 0-1.46 1.42c0 4.49-.06 9 0 13.46 0 1.82.14 1.88 2 1.88h35.4z"/><path class="cls-4" d="M3.75 95.13l-.52-52c-.16-12.84-.48-25.72-.48-38.64 0-1.09.19-1.4 1.38-1.37 15 .47 30 .2 45 .24 23.37.07 46.73 0 70.1 0 2 0 1.93-.47 1.91 1.94q-.3 45.43-.62 90.86c-.22 29.73-.17 59.46-.18 89.19 0 2.13.33 1.89-1.82 1.87l-28.77-.14c-.71 0-1.2 0-1.29-1-1-11.77-7.2-20-17.62-25.17a30.64 30.64 0 0 0-8.32-2.6c-1.09-.2-2.3-.54-3.26.57a2 2 0 0 1-1.17.1 28.31 28.31 0 0 0-28.36 27 1.17 1.17 0 0 1-1.44 1.34q-11.65 0-23.3.08c-1.1 0-1.35-.34-1.33-1.38.33-26.83.25-53.66.09-80.49V95.17zm56.48-43.39H97.24c1.63 0 2-.39 2-1.84q0-12.59.07-25.18c0-1.88-.19-2.05-2.1-2.07-18.57-.2-37.14-.45-55.72-.55-5.55 0-11.12-.46-16.66.47-2.75.46-2.8.31-2.92 3.13-.31 7.9-.37 15.8-.08 23.69.08 2.1.12 2.1 2.16 2.1 12.08.12 24.15.35 36.22.25zm-9.16 49.51v-.12H36.24c-3.64 0-7.27-.05-10.91 0-1.89 0-2.18.43-1.73 2.13a5.83 5.83 0 0 1 .08 1.47c0 2.92-.05 5.84-.07 8.75 0 2.14.08 2.25 2.28 2.29 6.37.11 12.75.22 19.12.26q10.84.07 21.68 0c3.45 0 6.91.23 10.36-.06.86-.07 1.53-.25 1.52-1.41v-10.64c0-1.61-.35-2-2-2zm-1.17-26v.24h25.71a1.39 1.39 0 0 0 1.64-1.69c-.08-3.32 0-6.64 0-10 0-2.07-.23-2.34-2.27-2.39-4.4-.1-8.79-.21-13.19-.27q-18.3-.26-36.59-.48a5.88 5.88 0 0 0-2.39.26c-.57.24-.94.69-.56 1.26a3.43 3.43 0 0 1 .36 2.07c0 3.05-.05 6.1-.07 9.16 0 1.59.17 1.78 1.77 1.78h25.57zm-.15 20.74h25.97c.77 0 1.52-.12 1.52-1.25v-11a1.46 1.46 0 0 0-1.59-1.7c-1.12-.05-2.24-.09-3.36-.11-15.87-.39-31.75-.55-47.63-.67a4.73 4.73 0 0 0-1.85.25c-.58.23-1 .67-.59 1.25a3.7 3.7 0 0 1 .36 2.21c0 3-.05 6-.07 9 0 1.61.17 1.77 1.75 1.81 8.49.18 16.98.2 25.49.21zm68.1 86.94a.59.59 0 0 0 .53-.64.55.55 0 0 0-.59-.58.47.47 0 0 0-.53.59.69.69 0 0 0 .56.64zM54.24 373.49H4.53c-1.78 0-1.78 0-1.78-1.77-.32-27.1.66-54.2.45-81.3v-19.49c0-1.73 0-1.74 1.76-1.73 26.52.05 53 .44 79.55.25 11.48-.08 23 .11 34.43-.2 1.19 0 1.46.28 1.49 1.46.77 27.71.33 55.43.57 83.14.05 5.79.11 11.58.23 17.37 0 1.19-.32 1.48-1.5 1.5-19.22.3-38.46.63-65.49.77z"/><path class="cls-3" d="M58.75 215.11a27 27 0 0 1-27-24.83c-.05-.55-.39-1.24.5-1.59.28-.11.11-.67 0-.86-1-1.46-.49-3-.25-4.48 1.73-10.71 9.48-20.24 21.21-22.49 12.38-2.38 22.76 3.34 28.88 12.58a25 25 0 0 1 4.25 12.87c.57 12.74-7.65 25-22 28.25a22.6 22.6 0 0 1-5.59.55z"/><path class="cls-5" d="M307.14 22.76c16 .47 31.94.35 47.91.55 10.72.13 21.44 0 32.16 0 3 0 6 .09 9 .16 1.68 0 2.05.41 2 2.09q0 10.17-.07 20.33c0 1.43-.34 1.74-1.87 1.84-5.87.39-11.75.3-17.62.39-6.86.11-13.71.06-20.57 0q-22.21-.1-44.42-.25c-10.86-.07-21.71-.15-32.57-.29-18.94-.25-37.88-.11-56.82-.16-2.27 0-2.33 0-2.31-2.35 0-6 .07-12 .19-18 0-1.23-.37-1.53-1.52-1.45a18.53 18.53 0 0 1-4.16-.19 1.32 1.32 0 0 1-1.36-1.22 1.26 1.26 0 0 1 1.41-1.3c1.07-.07 2.15-.18 3.22-.18l65.68.08h21.67zm69 20.21c-.22.12-.62.19-.5.58a.83.83 0 0 0 .61.76.62.62 0 0 0 .46-.7.57.57 0 0 0-.58-.64z"/><path class="cls-6" d="M313.04 313.22c-24.08-.26-48.17-.53-72.26-.43-22.08.09-44.16.27-66.23.4-2.07 0-2.18-.1-2.15-2.23.2-12.69.14-25.38-.09-38.08-.33-18.26-.17-36.52-.13-54.78 0-3.82.21-7.63.26-11.45a1.36 1.36 0 0 1 1.53-1.64c8.2-.47 16.38-1.12 24.58-1.51 15.55-.74 31.13-.83 46.69-1.16 33.83-.72 67.66-.5 101.48-.3 14.85.09 29.7.43 44.55.76 13.41.29 26.82.7 40.24 1.09 6.23.18 12.47.47 18.7.68 5.36.18 5 1.28 5.18 4.9.39 7.22.38 14.44.3 21.66-.21 19.33-.67 38.66-.43 58 .09 7 .06 14 0 21 0 2.62-.93 3.54-3.57 3.61-15.29.36-30.58.06-45.86 0-13.81-.06-27.62-.15-41.43-.17h-51.42v-.33zm.37-3l59.2.45 54.64.46c8.07.07 16.15.14 24.22.27 1.28 0 1.76-.36 1.74-1.66 0-2 .19-4 .17-6.05-.11-11.53-.35-23.06-.36-34.59 0-20.24.09-40.47.2-60.71 0-1.36-.42-1.81-1.72-1.85-5.7-.18-11.39-.49-17.08-.61-10.72-.23-21.44-.43-32.17-.52q-38.43-.35-76.87-.56c-19.66-.08-39.32-.13-59 .06q-35.33.35-70.64 1.35c-6.9.2-13.81.13-20.72.16-.83 0-1.32.11-1.32 1.15 0 5.34-.27 10.69-.17 16 .31 16.23.72 32.46.51 48.7-.16 12.6.14 25.2-.14 37.8 0 2-.32 1.77 1.78 1.77 22.63 0 45.23-.92 67.85-1.25q34.96-.46 69.88-.35zM311.07 72.33c-17.68 0-35.35.06-53 0-22.53-.1-45.05-.3-67.58-.46h-.54c-.47 0-1-.07-1-.65s.58-.69 1.08-.69h6.73c24-.16 48.1-.28 72.15-.52q29.81-.29 59.62-.24 46.23 0 92.46.2c3.46 0 6.91.09 10.37.14.36 0 .72 0 1.08.05a1 1 0 0 1 1.18 1 1 1 0 0 1-1.15 1h-1.21c-23.33.39-46.65.1-70 .33-16.19.16-32.37.09-48.56 0h-1.62v-.26zM318.27 99.83h-65.81c-17.1 0-34.2-.21-51.3-.33h-.81a.62.62 0 0 1-.74-.6.67.67 0 0 1 .69-.68 8.49 8.49 0 0 1 .94 0l91.83-.66q44.27-.34 88.55 0 25.65.17 51.29.44c1.21 0 2.42.15 3.63.23.53 0 1.21 0 1.19.75s-.73.69-1.25.71c-3.1.11-6.19.24-9.29.26-36.3.26-72.61.56-108.91.31v-.35zM421.05 150.32c-18-.2-30.58-.34-43.15-.45-1.08 0-1.59-.38-1.58-1.47v-14a1.29 1.29 0 0 1 1.17-1.25 14.33 14.33 0 0 1 4.27-.44c16.83-.44 33.67-.57 50.51-.16 3.82.09 7.64 0 11.45.14 3 .12 6.1.1 9.14.45a2.2 2.2 0 0 1 2.28 2.15 81.81 81.81 0 0 1 0 10.63v.54c-.19 3.33-.19 3.38-3.57 3.55-11.98.61-23.97.26-30.52.31zm-6.62-1.83c11.45 0 22.89-.59 34.34-.27 1.25 0 2.51.16 3.76.27.63.05 1-.08 1-.84.08-3.5.34-7 .1-10.5-.17-2.58-.22-2.61-2.82-2.66q-7.41-.16-14.81-.27c-19-.28-38.07.45-57.1.75-.82 0-1 .31-.95 1v11c0 1.16.27 1.49 1.48 1.49 11.64.03 23.32.03 35 .03z"/><path class="cls-7" d="M310.75 150.11h-35.4c-1.85 0-2 0-2-1.85V134.8a1.38 1.38 0 0 1 1.31-1.41 20.43 20.43 0 0 1 4.81-.38c16.14-.47 32.29-.57 48.44-.2 6.28.14 12.56.09 18.83.4.81 0 1.61.12 2.41.18 2.12.15 2.64.57 2.79 2.64a112 112 0 0 1-.16 12.92 1.15 1.15 0 0 1-1.3 1.19c-13.26.64-26.53.41-39.8.38v-.42zm1.52-15.62h-2.29c-11.48.06-22.95.74-34.43.69-.85 0-.82.45-.82 1v11.44c0 1 .35 1.16 1.25 1.16 16.33 0 32.66.1 49-.17 8.11-.13 16.23-.49 24.34.14.67.05 1.31.16 1.32-.94 0-3.23.36-6.47.11-9.69-.28-3.55.56-3.24-3.45-3.4-11.71-.45-23.37-.16-35.03-.23zM211 148.76h-35.4c-1.81 0-1.94-.06-2-1.88v-13.46a1.4 1.4 0 0 1 1.46-1.42 37.05 37.05 0 0 1 6-.4c15.7-.41 31.39-.5 47.09-.14 6.23.14 12.47.09 18.7.39 1 0 2.06.15 3.09.23a2.09 2.09 0 0 1 2.18 2.1 78.92 78.92 0 0 1 0 10.9c-.15 3.53-.19 3.56-3.72 3.75-12.5.69-25 .32-37.51.37v-.43zm1.28-15.61h-3.23c-11 .23-22.05.48-33.08.68a.8.8 0 0 0-1 1v11.44c0 1 .32 1.18 1.23 1.17 16.55-.05 33.11.11 49.66-.18 7.89-.14 15.78-.47 23.67.15.65.05 1.33.19 1.33-.92 0-3.23.28-6.47.09-9.69-.2-3.56.57-3.26-3.43-3.41-11.77-.47-23.48-.18-35.23-.24z"/><path class="cls-6" d="M60.21 51.74c-12.07.1-24.15-.13-36.22-.26-2 0-2.08 0-2.16-2.08-.29-7.9-.23-15.8.08-23.69.11-2.82.17-2.67 2.92-3.13 5.54-.93 11.11-.5 16.66-.47 18.57.1 37.15.35 55.72.55 1.91 0 2.11.19 2.1 2.07q0 12.59-.07 25.18c0 1.44-.38 1.83-2 1.84H60.21zM24.94 24.02c-1.24-.2-1.79.24-1.73 1.58s-.1 2.86-.13 4.29q-.15 9.33.18 18.65c.06 1.66 0 1.66 1.67 1.56 6.91 0 13.82.12 20.73.08 17.08-.1 34.16-.6 51.25-.33.73 0 1-.09 1-.91q-.1-11.85-.16-23.69a1 1 0 0 0-1.19-1.12c-2.15 0-4.3-.1-6.46-.1q-25.67.08-51.35.17c-4.58.02-9.2-.11-13.81-.18zM51.05 101.25l25.58.62c1.61 0 2 .4 2 2 0 3.55-.07 7.09 0 10.64 0 1.17-.65 1.34-1.52 1.41-3.45.29-6.91 0-10.36.06q-10.84.07-21.68 0c-6.37 0-12.75-.15-19.12-.26-2.2 0-2.3-.16-2.28-2.29 0-2.92.05-5.84.07-8.75a5.83 5.83 0 0 0-.08-1.47c-.44-1.7-.16-2.12 1.73-2.13h25.66v.12zm-.12 2H26.42a1 1 0 0 0-1.2 1.22q.07 4.31 0 8.62a1 1 0 0 0 1.28 1.29c6.05-.13 12.1.24 18.16.09 10.41-.25 20.82-.29 31.23-.38.93 0 1.11-.34 1.1-1.17v-7.54c0-2.05 0-2.08-2.05-2.08h-24z"/><path class="cls-7" d="M49.88 75.23H24.3c-1.6 0-1.78-.2-1.77-1.78 0-3.05.06-6.1.07-9.16a3.43 3.43 0 0 0-.36-2.07c-.38-.57 0-1 .56-1.26a5.88 5.88 0 0 1 2.39-.26q18.3.23 36.59.48c4.4.06 8.8.17 13.19.27 2 0 2.28.32 2.27 2.39 0 3.32-.1 6.65 0 10a1.39 1.39 0 0 1-1.64 1.69H49.88v-.26zm0-1.24v-.39h24.75c1.06 0 1.26-.31 1.24-1.27-.05-2.69-.08-5.39 0-8.08.05-1.24-.38-1.47-1.51-1.49-16.5-.3-33-.07-49.5-.09-.75 0-1 .17-1 1v9.16A.93.93 0 0 0 25 73.97q12.44.22 24.89.02z"/><path class="cls-6" d="M49.75 95.99c-8.48 0-17 0-25.44-.27-1.59 0-1.76-.2-1.75-1.81 0-3 .06-6 .07-9a3.7 3.7 0 0 0-.36-2.21c-.37-.58 0-1 .59-1.25a4.73 4.73 0 0 1 1.85-.25c15.88.11 31.76.28 47.63.67 1.12 0 2.24.06 3.36.11a1.46 1.46 0 0 1 1.59 1.7q-.08 5.52 0 11c0 1.13-.75 1.23-1.52 1.25-1.7.05-3.41 0-5.11 0H49.75zm.08-1.5v-.37h24.9c.88 0 1.16-.21 1.14-1.1 0-2.78-.06-5.57 0-8.35 0-1.07-.31-1.36-1.35-1.38-16.56-.28-33.12-.09-49.67-.09a.81.81 0 0 0-1 1v9a1 1 0 0 0 1.21 1.22c8.25.17 16.51.22 24.77.07z"/><path class="cls-1" d="M117.82 182.94a.69.69 0 0 1-.58-.63.47.47 0 0 1 .53-.59.55.55 0 0 1 .59.58.59.59 0 0 1-.54.64z"/><path class="cls-8" d="M376.13 42.97a.57.57 0 0 1 .57.64.62.62 0 0 1-.46.7.83.83 0 0 1-.61-.76c-.12-.39.28-.46.5-.58z"/><path class="cls-4" d="M313.41 310.24q-34.92-.09-69.84.38c-22.62.33-45.23 1.24-67.85 1.25-2.09 0-1.82.22-1.78-1.77.28-12.6 0-25.2.14-37.8.21-16.24-.2-32.47-.51-48.7-.1-5.34.14-10.68.17-16 0-1 .49-1.14 1.32-1.15 6.91 0 13.82 0 20.72-.16q35.31-1 70.64-1.35c19.66-.19 39.32-.15 59-.06q38.43.16 76.87.56c10.72.1 21.44.29 32.17.52 5.7.12 11.39.43 17.08.61 1.29 0 1.72.49 1.72 1.85-.11 20.24-.21 40.47-.2 60.71 0 11.53.25 23.06.36 34.59 0 2-.2 4-.17 6.05 0 1.3-.46 1.69-1.74 1.66-8.07-.13-16.15-.2-24.22-.27l-54.64-.46zm-65-69.56c-.35-.16-.73-.44-.82.25a29.62 29.62 0 0 0-3.21-.4c-2.8-.27-5.63.14-8.46.07s-5.91 0-8.86.06h-9.41a12 12 0 0 0-2.12-.09c-2.44.44-4.88 0-7.33.17-2.25.16-4.52-.45-6.79-.08a1.56 1.56 0 0 1-.8 0 3.9 3.9 0 0 0-3 .16c-.44.17-1.31-.21-1.28.54 0 .54.81.6 1.31.75a1.19 1.19 0 0 0 .64.11 7.94 7.94 0 0 1 3.79-.07c3.33.56 6.63-.21 10 .15 2.44.26 5-.28 7.54-.39.84 0 1.62.5 2.43.11 1 .48 1.89-.29 2.87-.28a27.8 27.8 0 0 1 5.12.31c1.69.36 3.24-.55 4.87.16 1 .42 2.24-.25 3.29-.09 2 .31 3.92-.21 5.87-.08 1.11.07 2.21-.31 3.31 0a.79.79 0 0 0 .83.24h.5c1.57-.52 3.17.16 4.77-.12a13.89 13.89 0 0 1 3.06-.07c1.79.1 3.57.35 5.32-.27.19-.07.46-.27.58 0 .31.71.91.46 1.4.45 3.2 0 6.41 0 9.6-.19 1.23-.07 2.43.13 3.64.06 1.55-.09 3.1-.14 4.65-.22 1.91-.1 3.8.29 5.73.2a14 14 0 0 1 2.25-.35 15.15 15.15 0 0 0 4 .18c1.47-.18 3 .54 4.55-.18a1.29 1.29 0 0 1 1.05 0c1.28.78 2.69.21 4 .32s2.64-.14 3.92-.07c2.18.12 4.35 0 6.53.15a44.68 44.68 0 0 0 6-.28 29 29 0 0 1 3.16.28c2.21.09 4.43-.6 6.65 0a1.27 1.27 0 0 0 1-.12c.83-.74 1.77-.31 2.56-.17a5 5 0 0 0 1.62.12 31 31 0 0 1 5.5-.11 27 27 0 0 0 5.33.16c1.11-.17 2.31.61 3.32-.32a.41.41 0 0 1 .35.14c.37.77 1 .46 1.52.31a9.25 9.25 0 0 1 3.1-.25c.87 0 1.64-.49 2.48-.2 1.17.41 2.37-.09 3.55.15 1.35.27 2.7-.55 4-.17 1.82.54 3.69-.16 5.48.46a1.73 1.73 0 0 0 1.67-.28.7.7 0 0 1 .87 0 4.82 4.82 0 0 0 3.4.24c1.82-.27 3.61.13 5.47-.13a20.11 20.11 0 0 1 6.65.26c.6.12.93-.62 1.49-.37a6.06 6.06 0 0 0 3.94.11c.54-.12 1.35 0 1.31-.79s-.87-.64-1.39-.81a1.41 1.41 0 0 0-.79 0c-1.59.48-3.2-.16-4.85.17-1 .21-2.25-.12-3.36.24a.49.49 0 0 1-.34 0c-1.48-.81-3-.45-4.58-.29a27.82 27.82 0 0 1-3.76.11c-2-.06-4 .28-6-.16-1.18-.25-2.4.24-3.65.21-3.85-.1-7.71.13-11.57.12a21 21 0 0 1-3.58.08c-1.62-.36-3.15 0-4.7-.16a21 21 0 0 0-6-.07 24.92 24.92 0 0 1-2.92.18c-2 .13-4.1-.34-6.1-.11a22.62 22.62 0 0 1-3.55 0c-3.14-.14-6.28.19-9.4-.15-1.11-.12-2.2.24-3.27.08a49.44 49.44 0 0 0-5.1-.12c-2.32-.1-4.69 0-7 .07a8.68 8.68 0 0 1-2.51.17c-2.77-.76-5.55.08-8.34-.22-1.77-.19-3.77-.67-5.49.53a.54.54 0 0 1-.49-.07c-.34-.91-1-.42-1.59-.41a32.94 32.94 0 0 1-3.49 0c-1.44-.14-2.88-.07-4.32-.18-.68-.05-1.68.79-2.14.42-1.32-1-2.73-.16-4.07-.37-2.07-.33-4.28.11-6.44.11-.64 0-1.22-.45-1.76-.34-2.85.61-5.73 0-8.59.23-.62.05-1.42.35-1.94 0-.76-.51-1.09-.15-1.48.37a1.51 1.51 0 0 0-1.25-.16zm-2.43 13.47c1.64.75 3.34 0 5 .24 3.83.45 7.66-.32 11.5 0a51 51 0 0 0 5.44-.17c2.22 0 4.44.07 6.65 0 3.47-.06 6.94-.07 10.42-.11 2.07 0 4.15-.11 6.22-.12 1.33 0 2.65.13 4 .1 1.68 0 3.36-.25 5-.21s3.54.74 5.32-.09a1.55 1.55 0 0 1 1 .22 1.79 1.79 0 0 0 .86.24 57 57 0 0 1 6.05-.26c2 .14 4 0 5.94 0 3 0 6 .18 9.06 0 2.25-.12 4.48.18 6.72-.05 1.94-.2 3.87.15 5.84 0a61.75 61.75 0 0 1 7.62-.1c3.8.21 7.57-.57 11.35-.08a1.9 1.9 0 0 0 .8 0c2.34-.76 4.78-.18 7.19-.5a64.05 64.05 0 0 1 7-.2c2.56-.05 5.12 0 7.67-.06 3.83-.08 7.67 0 11.5 0 .43 0 1.13.31 1.22-.42a1.15 1.15 0 0 0-1.06-1.05 3.51 3.51 0 0 0-1.19-.12c-2.73.08-5.47.2-8.2.25-.88 0-1.78-.24-2.66-.19-1.94.12-3.88.09-5.82.22-1.52.11-3.16-.2-4.62 0-2.46.3-4.93.3-7.37.37-3.73.1-7.45.45-11.18.38-1.74 0-3.51.32-5.22.14-2.8-.3-5.59.25-8.36 0-1.11-.11-2.12.27-3.24.18a12.67 12.67 0 0 0-2.73-.37 35.8 35.8 0 0 1-6.2.19c-1 0-2.23-.65-3.08.55-.2.28-.5.14-.63-.15a.79.79 0 0 0-1.13-.38 2.75 2.75 0 0 1-1.57 0 9.2 9.2 0 0 0-3.08-.06 11.83 11.83 0 0 1-5.14-.07.91.91 0 0 0-.62 0c-.59.9-1.37.3-2.06.29-.92 0-2-.48-2.7-.11-1.57.85-3-.27-4.53 0a12.64 12.64 0 0 1-3.46-.09c-1.6-.2-3.38.24-5.1.31a23 23 0 0 1-5.92-.1c-.78-.17-2-.51-2.37-.26-1.33 1-2.7 0-3.89.41s-1.89-.72-2.79-.22c-1.35.75-2.81.11-4.26.46-1.7.42-3.54-.84-5.6-.29-1.31.35-3-.18-4.49-.06-1.82.14-3.65-.07-5.43.16-1 .13-1.92-.36-2.82-.19a32 32 0 0 1-5.6.17 18.3 18.3 0 0 0-5.37.39c-1.63.54-3.26-.25-4.9 0a7 7 0 0 1-1.44.14 46.78 46.78 0 0 0-6.56 0c-1.95.19-3.9-.14-5.82.2-1.32.24-2.77-.36-3.9.18a2 2 0 0 1-1.79-.12c-.84-.22-1.49.47-2.3.46-1.94 0-3.86.23-5.83.11-2.21-.13-4.46.44-6.67.33-1.47-.08-2.89.22-4.33.23s-3-.54-4.38.46c-.38.28-.51-.12-.75-.29a2 2 0 0 0-2.23 1.05c0 .35-.07.75.54.64 2-.34 4.06-.05 6-.31a47.12 47.12 0 0 1 6.07-.38c2.63 0 5.22-.68 7.86-.38a35.46 35.46 0 0 0 6.34-.28c2.71-.17 5.42-.31 8.14-.35 1.41 0 2.84-.49 4.15-.32 2.52.32 5 0 7.48 0a11 11 0 0 0 4.39-.56zm10.45 20.28c.13-.66.92 0 1.12-.53h-69.26l1.15.36c-.93.75-.51 1.77-.54 2.69-.15 4.58-.32 9.15-.12 13.73.1 2.37.21 2.53 2.54 2.55 14.68.1 29.35.17 44 .3 6.82.06 13.63.21 20.45-.26.84-.06 1.48-.17 1.49-1.25 0-5.21.11-10.42.18-15.62a1.94 1.94 0 0 0-1.06-1.97zm148.32.06c-11.54-.14-22 0-32.36-.31-2.88-.09-2.92 0-2.95 2.82-.05 4.67-.41 9.33-.06 14 .13 1.74.28 2 2.07 2 2 0 3.95.11 5.92.15 14.81.24 29.62-.05 44.43.3a134.54 134.54 0 0 0 14.92-.42 1 1 0 0 0 1.17-1.1c.06-5.3.16-10.59.2-15.89 0-1.37-.49-1.79-1.8-1.76-10.92.21-21.82.21-31.54.21zm-104.83 0h-31.39c-2.74 0-2.74 0-2.83 2.61-.15 4.58-.32 9.15-.12 13.73.1 2.24.24 2.42 2.51 2.44 14.72.1 29.44.17 44.16.3 6.77.06 13.54.21 20.31-.25.92-.06 1.52-.23 1.53-1.36 0-5.07.13-10.15.17-15.22 0-1.93-.27-2.13-2.21-2.11-10.72.11-21.44.26-32.17-.14zm96.45-45.6c.31-.07.62-.12.91-.21s.88.39.93-.35a.86.86 0 0 0-1.07-.91c-1.19.47-2.33-.2-3.49 0-1.84.36-3.67-.2-5.57.14-2.37.42-4.81-.25-7.29 0a35.68 35.68 0 0 1-6.69-.13c-2-.21-4 .06-6 0s-4.24.24-6.35.07c-1.35-.11-2.72 0-4-.19-1-.13-2 .72-2.88.21s-2.06-.17-3-.22a23.26 23.26 0 0 0-3.86.07 22 22 0 0 1-4.4 0 32.75 32.75 0 0 0-5.26 0c-3.28.28-6.6.11-9.91.1a11.65 11.65 0 0 0-2-.18 33.73 33.73 0 0 1-4.74.1c-2.61.11-5.24.15-7.87.1s-5.54-.1-8.31-.07a41 41 0 0 0-5.67 0 35.64 35.64 0 0 1-6.12.09c-1.48 0-3 .16-4.59 0-3-.3-6 .32-9-.23a2.46 2.46 0 0 0-1 .17 7.51 7.51 0 0 1-2.67 0 40.92 40.92 0 0 0-4.91.15c-1.12.06-2.38.54-3.33.18-2.08-.77-4.07.24-6.1-.06a22.62 22.62 0 0 0-4.52.06c-2.31.13-4.62-.19-6.94.16a8.1 8.1 0 0 1-2.92.29 24.34 24.34 0 0 0-3.7-.27c-1.47-.08-2.9.2-4.36.08a68.06 68.06 0 0 0-8.15.08c-1.7.07-3.36 0-5-.08-1.08-.05-2.17 0-3.26 0s-2 .34-3 0c-.6-.17-1.36-.53-1.94-.05a2.5 2.5 0 0 1-2.11.27c-3.44-.3-6.89.12-10.33-.1a63.84 63.84 0 0 0-8.65.05c-.51 0-1.38-.09-1.31.87s.84.47 1.25.47c2 0 4.07-.22 6-.1 2.2.14 4.39.07 6.56.07s4.38.19 6.61 0c3-.29 6 .77 9-.56a.29.29 0 0 1 .24.06c1.66 1.3 3.62.45 5.41.65a58.51 58.51 0 0 0 7.09-.16c2.17 0 4.32-.11 6.51 0 2.58.15 5.18-.47 7.81-.06a4 4 0 0 0 2.24-.36c.88-.72 1.34-.85 2 .11a.66.66 0 0 0 .38.09c2.22.36 4.34-.72 6.67-.22 1.58.34 3.33-.37 5.13-.17 2.86.32 5.81-.22 8.7 0 1.54.11 3-.61 4.54-.09a8.08 8.08 0 0 0 3.14.13c1.68-.11 3.36-.36 5-.43 1.49-.06 3 .41 4.53.39 2.29 0 4.57-.17 6.85-.08 1.6.06 3.19.49 4.75-.25a1.1 1.1 0 0 1 .39 0c1.69.06 3.39 0 5.06.2s3.32-.44 4.93-.14c1.87.36 3.71-.43 5.56.11 1.22.36 2.56-.4 3.72.05 1.4.54 2.79 0 4.1 0a24.3 24.3 0 0 0 3.91-.1c3.06-.52 6.22.14 9.35-.11a9.8 9.8 0 0 1 2.93 0c2.37.59 4.73 0 7.08.12 1.88.09 3.85 0 5.77 0 1.09 0 2.38.14 3.53.19 2 .09 4-.25 6-.1 2.53.19 5.06-.12 7.6 0 1.58.09 3.2.47 4.91-.1a8.25 8.25 0 0 1 4 0 16.12 16.12 0 0 0 4 0 3.7 3.7 0 0 1 .65 0 13.93 13.93 0 0 0 4 .3 5.63 5.63 0 0 1 2.49-.14z"/><path class="cls-9" d="M414.43 148.49h-35c-1.21 0-1.51-.32-1.48-1.49.08-3.68.05-7.36 0-11 0-.71.13-1 .95-1 19-.3 38.06-1 57.1-.75q7.41.11 14.81.27c2.6.06 2.64.08 2.82 2.66.24 3.5 0 7-.1 10.5 0 .76-.38.89-1 .84-1.25-.1-2.5-.23-3.76-.27-11.45-.34-22.9.24-34.34.24zM312.27 134.49c11.66.08 23.32-.22 35 .25 4 .16 3.17-.14 3.45 3.4.26 3.22-.08 6.46-.11 9.69 0 1.1-.65 1-1.32.94-8.11-.62-16.23-.27-24.34-.14-16.33.27-32.66.13-49 .17-.9 0-1.26-.18-1.25-1.16.06-3.81 0-7.63 0-11.44 0-.56 0-1 .82-1 11.48 0 22.95-.63 34.43-.69h2.29zM212.29 133.15c11.75.06 23.5-.23 35.25.24 4 .16 3.22-.15 3.43 3.41.18 3.22-.1 6.46-.09 9.69 0 1.11-.67 1-1.33.92-7.88-.62-15.78-.29-23.67-.15-16.55.29-33.11.13-49.66.18-.92 0-1.25-.2-1.23-1.17.05-3.81 0-7.63 0-11.44a.8.8 0 0 1 1-1c11-.2 22.05-.45 33.08-.68 1.07-.02 2.14 0 3.22 0z"/><path class="cls-8" d="M24.94 24.02c4.62.06 9.23.19 13.85.18q25.67-.05 51.35-.17c2.15 0 4.3.1 6.46.1a1 1 0 0 1 1.15 1.12q0 11.84.15 23.68c0 .82-.29.92-1 .91-17.08-.26-34.17.23-51.25.33-6.91 0-13.82 0-20.73-.08-.63-8.68-.17-17.37.02-26.07z"/><path class="cls-10" d="M24.94 24.02c-.22 8.69-.64 17.39 0 26.08-1.69.1-1.62.1-1.67-1.56q-.32-9.32-.18-18.65c0-1.43.19-2.86.13-4.29s.47-1.78 1.72-1.58z"/><path class="cls-11" d="M50.93 103.22h24c2 0 2.05 0 2.05 2.08v7.54c0 .83-.17 1.16-1.1 1.17-10.41.09-20.82.13-31.23.38-6.06.15-12.11-.22-18.16-.09a1 1 0 0 1-1.28-1.29q.11-4.31 0-8.62a1 1 0 0 1 1.2-1.22h24.51z"/><path class="cls-8" d="M49.89 73.99q-12.45.22-24.91 0a.93.93 0 0 1-1.14-1.14c.06-3.05.07-6.11 0-9.16 0-.79.26-1 1-1 16.5 0 33-.21 49.5.09 1.13 0 1.56.26 1.51 1.49-.11 2.69-.09 5.39 0 8.08 0 1-.18 1.28-1.24 1.27-8.25-.06-16.5 0-24.75 0v.39z"/><path class="cls-10" d="M49.83 94.49c-8.26.19-16.52.14-24.78 0a1 1 0 0 1-1.21-1.22c.06-3 .06-6 0-9a.81.81 0 0 1 1-1c16.56 0 33.12-.19 49.67.09 1 0 1.38.31 1.35 1.38-.08 2.78-.07 5.57 0 8.35 0 .89-.26 1.11-1.14 1.1h-24.9v.3z"/><path class="cls-7" d="M404.75 274.49c9.76 0 20.65 0 31.55-.21 1.3 0 1.81.39 1.8 1.76 0 5.3-.14 10.59-.2 15.89a1 1 0 0 1-1.17 1.1 134.54 134.54 0 0 1-14.92.42c-14.81-.35-29.62-.06-44.43-.3-2 0-3.95-.1-5.92-.15-1.8 0-1.94-.27-2.07-2-.35-4.67 0-9.33.06-14 0-2.84.06-2.91 2.95-2.82 10.35.31 20.77.13 32.35.31zm-1.39 16.91h8.07c7.94 0 15.88-.18 23.82.13 1 0 1.31-.09 1.29-1.14q-.08-6.66 0-13.33c0-1-.25-1.37-1.33-1.34-5.2.15-10.41.2-15.61.31-15.9.32-31.81.48-47.71.19-.82 0-.95.26-1 1-.32 4.35-.06 8.7-.15 13.05 0 1.12.28 1.43 1.4 1.42 10.51-.1 21.05.01 31.19-.33z"/><path class="cls-12" d="M256.38 274.43a1.94 1.94 0 0 1 1.08 2c-.07 5.21-.14 10.42-.18 15.62 0 1.08-.65 1.19-1.49 1.25-6.81.47-13.63.32-20.45.26-14.68-.13-29.35-.2-44-.3-2.33 0-2.44-.18-2.54-2.55-.2-4.58 0-9.16.12-13.73 0-.93-.39-1.95.54-2.7l7.54.08a1 1 0 0 0 1.1.25c18.78.13 37.56.37 56.34 0a1.85 1.85 0 0 0 1.29-.21h.16a.2.2 0 0 0 .34 0H256.4zm-33.17 17.48c10.55-.11 21.11-.49 31.66-.06.93 0 1.12-.27 1.11-1.1v-12.92c0-2.19.37-1.92-2-1.87-13.49.3-27 .52-40.47.56-7.35 0-14.71.18-22.06-.14-1 0-1.27.14-1.3 1.15-.13 4.31 0 8.62-.05 12.92 0 1.19.28 1.49 1.47 1.48 10.56-.04 21.09-.02 31.63-.02zM299.88 274.49c10.73.43 21.45.28 32.18.14 1.94 0 2.22.18 2.21 2.11 0 5.07-.14 10.15-.17 15.22 0 1.13-.61 1.3-1.53 1.36-6.77.46-13.54.31-20.31.25-14.72-.13-29.44-.2-44.16-.3-2.27 0-2.41-.2-2.51-2.44-.2-4.58 0-9.16.12-13.73.08-2.63.09-2.61 2.83-2.61h31.35zm.17 17.46c10.55-.11 21.11-.49 31.66-.07.82 0 1.09-.15 1.08-1v-13.59c0-1-.28-1.48-1.34-1.32a8.33 8.33 0 0 1-1.08 0q-20 .47-40.06.56c-7.26 0-14.53.19-21.79-.14-1.3-.06-1.53.27-1.56 1.45-.1 4.22 0 8.44 0 12.65 0 1.25.38 1.45 1.5 1.45 10.51-.04 21.05-.03 31.59-.03z"/><path class="cls-13" d="M396.33 228.85a5.63 5.63 0 0 0-2.76.16 13.93 13.93 0 0 1-4-.3 3.7 3.7 0 0 0-.65 0 16.12 16.12 0 0 1-4 0 8.25 8.25 0 0 0-4 0c-1.7.57-3.33.19-4.91.1-2.54-.15-5.07.17-7.6 0-2-.15-4 .19-6 .1-1.15-.05-2.44-.23-3.53-.19-1.92.08-3.89.13-5.77 0-2.36-.11-4.71.48-7.08-.12a9.8 9.8 0 0 0-2.93 0c-3.13.25-6.28-.41-9.35.11a24.3 24.3 0 0 1-3.91.1c-1.31 0-2.7.55-4.1 0-1.16-.45-2.5.31-3.72-.05-1.85-.55-3.69.24-5.56-.11-1.6-.3-3.26.32-4.93.14s-3.37-.14-5.06-.2a1.1 1.1 0 0 0-.39 0c-1.56.74-3.15.31-4.75.25-2.28-.09-4.57 0-6.85.08-1.53 0-3-.45-4.53-.39-1.67.07-3.35.32-5 .43a8.08 8.08 0 0 1-3.14-.13c-1.53-.52-3 .2-4.54.09-2.89-.21-5.84.33-8.7 0-1.8-.2-3.55.51-5.13.17-2.32-.5-4.44.58-6.67.22a.66.66 0 0 1-.38-.09c-.63-1-1.09-.83-2-.11a4 4 0 0 1-2.24.36c-2.63-.41-5.23.21-7.81.06-2.18-.13-4.33-.05-6.51 0a58.51 58.51 0 0 1-7.09.16c-1.79-.19-3.76.65-5.41-.65a.29.29 0 0 0-.24-.06c-2.94 1.34-6 .28-9 .56-2.23.21-4.41 0-6.61 0s-4.37.08-6.56-.07c-2-.13-4 .08-6 .1-.41 0-1.18.45-1.25-.47s.8-.83 1.31-.87a63.84 63.84 0 0 1 8.65-.05c3.44.22 6.89-.2 10.33.1a2.5 2.5 0 0 0 2.11-.27c.58-.47 1.34-.12 1.94.05 1 .3 2-.08 3 0s2.18 0 3.26 0c1.68.08 3.34.15 5 .08a68.06 68.06 0 0 1 8.15-.08c1.46.12 2.89-.17 4.36-.08a24.34 24.34 0 0 1 3.7.27 8.1 8.1 0 0 0 2.92-.29c2.32-.35 4.63 0 6.94-.16a22.62 22.62 0 0 1 4.52-.06c2 .3 4-.7 6.1.06 1 .35 2.21-.12 3.33-.18a40.92 40.92 0 0 1 4.91-.15 7.51 7.51 0 0 0 2.67 0 2.46 2.46 0 0 1 1-.17c3 .55 6-.08 9 .23 1.55.16 3.12 0 4.59 0a35.64 35.64 0 0 0 6.12-.09 41 41 0 0 1 5.67 0c2.77 0 5.55 0 8.31.07s5.26 0 7.87-.1a33.73 33.73 0 0 0 4.74-.1 11.65 11.65 0 0 1 2 .18c3.3 0 6.62.18 9.91-.1a32.75 32.75 0 0 1 5.26 0 22 22 0 0 0 4.4 0 23.26 23.26 0 0 1 3.86-.07c1 0 2-.35 3 .22s1.85-.34 2.88-.21c1.33.16 2.69.08 4 .19 2.12.17 4.24-.15 6.35-.07s4-.2 6 0a35.68 35.68 0 0 0 6.92.04c2.49-.22 4.92.45 7.29 0 1.9-.33 3.74.22 5.57-.14 1.16-.23 2.3.44 3.49 0a.86.86 0 0 1 1.07.91c0 .74-.61.25-.93.35s-.6.17-.91.24z"/><path class="cls-14" d="M245.91 253.3a18.3 18.3 0 0 1 5.37-.39 32 32 0 0 0 5.6-.17c.9-.18 1.8.32 2.82.19 1.78-.23 3.61 0 5.43-.16 1.49-.12 3.17.41 4.49.06 2.06-.54 3.9.71 5.6.29 1.45-.36 2.91.28 4.26-.46.9-.49 1.71.57 2.79.22s2.56.55 3.89-.41c.34-.25 1.59.09 2.37.26a23 23 0 0 0 5.92.1c1.72-.07 3.5-.51 5.1-.31a12.64 12.64 0 0 0 3.46.09c1.54-.27 3 .85 4.53 0 .68-.37 1.79.09 2.7.11.69 0 1.47.61 2.06-.29a.91.91 0 0 1 .62 0 11.83 11.83 0 0 0 5.14.07 9.2 9.2 0 0 1 3.08.06 2.75 2.75 0 0 0 1.57 0 .79.79 0 0 1 1.13.38c.12.3.43.43.63.15.85-1.2 2.08-.59 3.08-.55a35.8 35.8 0 0 0 6.2-.19 12.67 12.67 0 0 1 2.73.37c1.11.09 2.13-.29 3.24-.18 2.77.28 5.56-.28 8.36 0 1.71.19 3.48-.17 5.22-.14 3.73.07 7.45-.28 11.18-.38 2.44-.07 4.91-.07 7.37-.37 1.45-.18 3.1.13 4.62 0 1.94-.13 3.88-.11 5.82-.22.88-.05 1.77.21 2.66.19 2.74 0 5.47-.17 8.2-.25a3.51 3.51 0 0 1 1.19.12 1.15 1.15 0 0 1 1.06 1.05c-.09.72-.79.41-1.22.42h-11.5c-2.56.05-5.12 0-7.67.06a64.05 64.05 0 0 0-7 .2c-2.41.32-4.85-.26-7.19.5a1.9 1.9 0 0 1-.8 0c-3.78-.49-7.56.29-11.35.08a61.75 61.75 0 0 0-7.62.1c-2 .14-3.9-.21-5.84 0-2.24.23-4.47-.06-6.72.05-3 .16-6 0-9.06 0-2 0-4 .1-5.94 0a57 57 0 0 0-6.05.26 1.79 1.79 0 0 1-.86-.24 1.55 1.55 0 0 0-1-.22c-1.78.83-3.55.13-5.32.09s-3.36.18-5 .21c-1.32 0-2.65-.11-4-.1-2.07 0-4.15.09-6.22.12-3.47 0-6.94.06-10.42.11-2.22 0-4.44-.08-6.65 0a51 51 0 0 1-5.44.17c-3.84-.33-7.68.44-11.5 0-1.68-.2-3.38.51-5-.24zM249.42 240.97c.39-.52.72-.89 1.48-.37.52.35 1.32.05 1.94 0 2.86-.25 5.74.38 8.59-.23.55-.12 1.12.34 1.76.34 2.16 0 4.37-.44 6.44-.11 1.34.21 2.74-.67 4.07.37.47.37 1.46-.47 2.14-.42 1.44.11 2.88 0 4.32.18a32.94 32.94 0 0 0 3.49 0c.55 0 1.25-.5 1.59.41a.54.54 0 0 0 .49.07c1.73-1.2 3.73-.72 5.49-.53 2.79.3 5.57-.55 8.34.22a8.68 8.68 0 0 0 2.51-.17c2.35-.11 4.72-.18 7-.07a49.44 49.44 0 0 1 5.1.12c1.07.16 2.16-.2 3.27-.08 3.12.34 6.26 0 9.4.15a22.62 22.62 0 0 0 3.55 0c2-.23 4.07.24 6.1.11a24.92 24.92 0 0 0 2.92-.18 21 21 0 0 1 6 .07c1.56.16 3.08-.2 4.7.16a21 21 0 0 0 3.58-.08c3.86 0 7.72-.21 11.57-.12 1.25 0 2.46-.46 3.65-.21 2 .43 4 .09 6 .16a27.82 27.82 0 0 0 3.76-.11c1.54-.16 3.1-.53 4.58.29a.49.49 0 0 0 .34 0c1.12-.36 2.33 0 3.36-.24 1.65-.33 3.26.32 4.85-.17a1.41 1.41 0 0 1 .79 0c.52.17 1.36.08 1.39.81s-.77.67-1.31.79a6.06 6.06 0 0 1-3.94-.11c-.55-.25-.89.49-1.49.37a20.11 20.11 0 0 0-6.65-.26c-1.86.26-3.66-.14-5.47.13a4.82 4.82 0 0 1-3.4-.24.7.7 0 0 0-.87 0 1.73 1.73 0 0 1-1.67.28c-1.8-.62-3.66.08-5.48-.46-1.28-.38-2.64.43-4 .17-1.18-.23-2.38.26-3.55-.15-.84-.29-1.61.23-2.48.2a9.25 9.25 0 0 0-3.1.25c-.49.15-1.15.46-1.52-.31a.41.41 0 0 0-.35-.14c-1 .93-2.21.15-3.32.32a27 27 0 0 1-5.33-.16 31 31 0 0 0-5.5.11 5 5 0 0 1-1.62-.12c-.79-.13-1.74-.57-2.56.17a1.27 1.27 0 0 1-1 .12c-2.22-.64-4.43.05-6.65 0a29 29 0 0 0-3.16-.28 44.68 44.68 0 0 1-6 .28c-2.18-.15-4.35 0-6.53-.15-1.29-.07-2.68.18-3.92.07s-2.72.46-4-.32a1.29 1.29 0 0 0-1.05 0c-1.52.72-3.08 0-4.55.18a15.15 15.15 0 0 1-4-.18 14 14 0 0 0-2.25.35c-1.93.09-3.82-.31-5.73-.2-1.55.08-3.1.13-4.65.22-1.22.07-2.41-.13-3.64-.06-3.19.18-6.4.16-9.6.19-.49 0-1.1.26-1.4-.45-.13-.29-.39-.09-.58 0-1.75.62-3.53.37-5.32.27a13.89 13.89 0 0 0-3.06.07c-1.59.27-3.19-.4-4.77.12.18-.21-.41-1 .57-.66.37-.05.31-.54.34-.78z"/><path class="cls-13" d="M221.95 242.02c-.81.39-1.59-.14-2.43-.11-2.52.1-5.1.65-7.54.39-3.33-.36-6.63.4-10-.15a7.94 7.94 0 0 0-3.79.07 1.19 1.19 0 0 1-.64-.11c-.5-.16-1.29-.21-1.31-.75 0-.76.84-.37 1.28-.54a3.9 3.9 0 0 1 3-.16 1.56 1.56 0 0 0 .8 0c2.27-.37 4.54.24 6.79.08 2.44-.18 4.89.28 7.33-.17a12 12 0 0 1 2.12.09h9.41c3 0 5.91-.13 8.86-.06s5.66-.34 8.46-.07a29.6 29.6 0 0 1 3.21.4 1.82 1.82 0 0 1-.27 1.08c-1.11-.28-2.21.1-3.31 0-2-.12-3.88.39-5.87.08-1-.16-2.33.51-3.29.09-1.63-.71-3.18.2-4.87-.16a27.8 27.8 0 0 0-5.12-.31c-1 0-1.86.76-2.87.28l-.1-.06zM245.91 253.3v.85a11 11 0 0 1-4.31.47c-2.49 0-5 .35-7.48 0-1.31-.16-2.74.3-4.15.32-2.71 0-5.43.17-8.14.35a35.46 35.46 0 0 1-6.34.28c-2.64-.3-5.22.37-7.86.38a47.12 47.12 0 0 0-6.07.38c-2 .26-4 0-6 .31-.61.1-.58-.29-.54-.64a2 2 0 0 1 2.23-1.05c.24.16.37.57.75.29 1.36-1 3-.45 4.38-.46s2.87-.31 4.33-.23c2.21.11 4.46-.46 6.67-.33 2 .11 3.89-.13 5.83-.11.8 0 1.46-.68 2.3-.46a2 2 0 0 0 1.79.12c1.13-.54 2.58.05 3.9-.18 1.92-.34 3.87 0 5.82-.2a46.78 46.78 0 0 1 6.56 0 7 7 0 0 0 1.44-.14c1.63-.2 3.26.6 4.89.05z"/><path class="cls-15" d="M256.38 274.43H256.21c-.12-.18-.23-.18-.34 0h-.16c-.35-.54-.9-.29-1.35-.29h-55.83a2.2 2.2 0 0 0-1.55.25l-7.54-.08-1.15-.36h69.21c-.2.44-.99-.18-1.12.48z"/><path class="cls-14" d="M247.28 242.01a1.82 1.82 0 0 0 .27-1.08c.09-.69.47-.41.82-.25l-.26 1.57a.79.79 0 0 1-.83-.24z"/><path class="cls-11" d="M248.1 242.26l.26-1.57a1.51 1.51 0 0 1 1.05.28c0 .24 0 .73-.24.63-1-.37-.39.45-.57.66h-.5z"/><path class="cls-9" d="M403.33 291.36c-10.13.33-20.67.22-31.21.27-1.12 0-1.42-.3-1.4-1.42.09-4.35-.17-8.7.15-13.05.05-.71.18-1 1-1 15.9.29 31.81.12 47.71-.19 5.2-.1 10.41-.16 15.61-.31 1.08 0 1.34.3 1.33 1.34q-.08 6.66 0 13.33c0 1.05-.28 1.18-1.29 1.14-7.94-.31-15.88-.09-23.82-.13-2.57.01-5.13.02-8.08.02z"/><path class="cls-15" d="M223.2 291.91h-31.61c-1.19 0-1.47-.3-1.47-1.48 0-4.31-.08-8.61.05-12.92 0-1 .26-1.2 1.3-1.15 7.35.32 14.7.16 22.06.14 13.49 0 27-.26 40.47-.56 2.33-.05 1.94-.31 2 1.87.05 4.31 0 8.61 0 12.92 0 .83-.18 1.14-1.11 1.1-10.58-.41-21.14-.03-31.69.08z"/><path class="cls-4" d="M196.98 274.34a2.2 2.2 0 0 1 1.55-.25h55.83c.45 0 1-.25 1.35.29a1.85 1.85 0 0 1-1.29.21c-18.78.36-37.56.11-56.34 0a1 1 0 0 1-1.1-.25zM255.87 274.4c.11-.19.22-.19.34 0a.2.2 0 0 1-.34 0z"/><path class="cls-15" d="M300.05 291.91h-31.61c-1.12 0-1.52-.19-1.5-1.45 0-4.22-.06-8.43 0-12.65 0-1.17.26-1.51 1.56-1.45 7.26.33 14.53.16 21.79.14q20-.06 40.06-.56a8.33 8.33 0 0 0 1.08 0c1.06-.17 1.36.29 1.34 1.32v13.59c0 .84-.26 1-1.08 1-10.54-.43-21.09-.05-31.64.06z"/><path class="cls-4" d="M221.95 242.02l-.11-.06.1.06z"/><path class="cls-3" d="M3.44 409.25h3.6l.39 3.09a6.91 6.91 0 0 1 2.66-2.74 7.59 7.59 0 0 1 3.82-.93 8.09 8.09 0 0 1 6.84 3.39c1.66 2.27 2.48 5.4 2.48 9.35s-.83 7.08-2.48 9.27a8.11 8.11 0 0 1-6.86 3.36 7.27 7.27 0 0 1-3.85-.95 6.75 6.75 0 0 1-2.61-2.72v12.24h-4v-33.36zm14.22 19.08c1-1.57 1.45-3.89 1.45-7s-.47-5.4-1.45-7a4.76 4.76 0 0 0-4.34-2.35 4.85 4.85 0 0 0-4.38 2.35c-1 1.57-1.49 3.91-1.49 7s.5 5.37 1.49 6.95a4.87 4.87 0 0 0 4.38 2.37 4.76 4.76 0 0 0 4.34-2.32zM31.09 431.95a8.2 8.2 0 0 1 .52-11.69c1.81-1.4 4.43-2.09 7.94-2.09h5.33v-.62a5.57 5.57 0 0 0-1.47-4.21c-1-.88-2.53-1.28-4.6-1.28a15.21 15.21 0 0 0-4.12.58 16.92 16.92 0 0 0-4 1.71v-4a31.81 31.81 0 0 1 4.23-1.28 18.91 18.91 0 0 1 4-.43 12.91 12.91 0 0 1 5.13.91 8.51 8.51 0 0 1 3.42 2.61 7.27 7.27 0 0 1 1.17 2.68 23.62 23.62 0 0 1 .31 4.78v4.94c.06 1.66 0 2.87.19 4a25.22 25.22 0 0 0 .5 2.91 15.36 15.36 0 0 0 .58 2h-4a13.42 13.42 0 0 1-.58-1.88c-.15-.62-.28-1.34-.35-1.79a9.08 9.08 0 0 1-3.54 3.26 9.94 9.94 0 0 1-4.66 1 8.16 8.16 0 0 1-6-2.11zm11.89-3.52a9.55 9.55 0 0 0 1.9-6.28v-.88h-5a9.49 9.49 0 0 0-5.25 1.22 4.12 4.12 0 0 0-1.77 3.67 4.35 4.35 0 0 0 1.31 3.33 5.25 5.25 0 0 0 3.67 1.21 6.27 6.27 0 0 0 5.14-2.29zM62.1 442.62a24.05 24.05 0 0 1-3.58-.88v-3.93a26.15 26.15 0 0 0 3.85 1.47 11.66 11.66 0 0 0 3.26.47c2.14 0 3.58-.56 4.6-1.77s1.47-3 1.47-5.52v-2.87a6.77 6.77 0 0 1-2.59 3 7.48 7.48 0 0 1-4 1 8 8 0 0 1-6.78-3.39 14.9 14.9 0 0 1-2.53-9.06c0-3.78.86-6.84 2.53-9.09a8 8 0 0 1 6.8-3.39 7.81 7.81 0 0 1 3.91.93 6.84 6.84 0 0 1 2.63 2.87l.39-3.13h3.58v22.53c0 3.6-.86 6.37-2.57 8.24s-4.21 2.8-7.55 2.8a21.3 21.3 0 0 1-3.42-.28zm8.12-14.67a13.07 13.07 0 0 0 1.45-6.8c0-3-.47-5.27-1.45-6.8a4.68 4.68 0 0 0-4.28-2.31 5 5 0 0 0-4.43 2.31c-1 1.53-1.53 3.82-1.53 6.84s.52 5.2 1.55 6.78a5 5 0 0 0 4.43 2.35 4.67 4.67 0 0 0 4.28-2.38zM85.02 430.68c-2.07-2.22-3.17-5.35-3.17-9.3s1.17-7.1 3.09-9.26a10.73 10.73 0 0 1 8.24-3.45 9.12 9.12 0 0 1 7.36 3.11c1.73 2 2.66 4.88 2.66 8.55v1.94H86v.13a8.49 8.49 0 0 0 2.07 6.11 7.54 7.54 0 0 0 5.78 2.14 13.68 13.68 0 0 0 4-.6 25.41 25.41 0 0 0 4.43-1.83v4a28.22 28.22 0 0 1-4.36 1.4 18 18 0 0 1-4.12.45 11.38 11.38 0 0 1-8.78-3.39zm14.2-11.5a8.37 8.37 0 0 0-1.64-5.33 5.66 5.66 0 0 0-4.49-1.81 6.29 6.29 0 0 0-4.75 1.9 8.71 8.71 0 0 0-2.2 5.27zM110.23 418.68h17.74v3.52h-17.74v-3.52zM136.84 418.68h17.71v3.52h-17.71v-3.52zM163.21 399.84h4v13a7.56 7.56 0 0 1 2.87-3.15 8.15 8.15 0 0 1 4.28-1.06 6.5 6.5 0 0 1 5.56 2.42c1.21 1.62 1.81 4.08 1.81 7.36v15h-4v-14.92a8.07 8.07 0 0 0-1.15-4.79 4.2 4.2 0 0 0-3.6-1.53 5 5 0 0 0-4.25 2 9.36 9.36 0 0 0-1.51 5.68v13.64h-4v-33.6zM191.24 430.81c-1.81-2.24-2.66-5.44-2.66-9.47s.89-7.23 2.66-9.41 4.34-3.26 7.7-3.26 6 1.12 7.7 3.26 2.66 5.31 2.66 9.41-.86 7.34-2.66 9.5-4.32 3.24-7.7 3.24-5.92-1.11-7.7-3.27zm12.28-2.51q1.55-2.36 1.55-6.95c0-3.06-.52-5.4-1.55-7a5.65 5.65 0 0 0-9.17 0c-1 1.57-1.55 3.91-1.55 7s.52 5.37 1.55 6.95a5.6 5.6 0 0 0 9.15 0zM214.57 409.25h3.26l.35 2.07a5.36 5.36 0 0 1 1.79-2 4.4 4.4 0 0 1 2.44-.67 4.34 4.34 0 0 1 4.4 3 5.4 5.4 0 0 1 1.88-2.31 4.84 4.84 0 0 1 2.72-.74 4.26 4.26 0 0 1 4.12 2.24c.76 1.47 1.19 4.34 1.19 8.5v14h-3.63v-13.75c0-3.65-.17-5.48-.58-6.37a2 2 0 0 0-2.14-1.23 2.22 2.22 0 0 0-2.27 1.32c-.5 1-.67 2.85-.67 6.28v13.84h-3.63v-13.84c0-4.21-.28-5.63-.62-6.39a2.17 2.17 0 0 0-2.18-1.21 2.13 2.13 0 0 0-2.18 1.28c-.43.86-.65 2.53-.65 6.3v13.84h-3.6v-24.17zM244.68 430.68c-2.07-2.22-3.17-5.35-3.17-9.3s1.17-7.1 3.09-9.26a10.73 10.73 0 0 1 8.24-3.45 9.12 9.12 0 0 1 7.36 3.11c1.73 2 2.66 4.88 2.66 8.55v1.94h-17.21v.13a8.49 8.49 0 0 0 2.1 6.09 7.54 7.54 0 0 0 5.78 2.14 13.68 13.68 0 0 0 4-.6 25.41 25.41 0 0 0 4.43-1.83v4a28.22 28.22 0 0 1-4.36 1.4 18 18 0 0 1-4.12.45 11.37 11.37 0 0 1-8.8-3.37zm14.2-11.5a8.37 8.37 0 0 0-1.64-5.33 5.66 5.66 0 0 0-4.49-1.81 6.29 6.29 0 0 0-4.75 1.9 8.71 8.71 0 0 0-2.2 5.27z"/></svg>