<svg data-name="Layer 1" xmlns="http://www.w3.org/2000/svg" viewBox="0 0 166.64 40.8"><title>logo</title><path fill="#fff" d="M.1 25.8h66.2v2H.1zm93.7 0h72.8v2H93.8zm-80.3-18C10.9 10.6 2.3 18 2.3 20.5c0 .6.4.9 1.4.9 1.2 0 4.5-.9 7.1-.9a4.18 4.18 0 0 1 2.9.8 1.79 1.79 0 0 1 .5.6c0 .1-.1.1-.6.1-1.8 0-4.9 2.1-8.1 2.1A5.33 5.33 0 0 1 1 21.9a3.75 3.75 0 0 1-.8-2.5C0 13.3 10.3 3.6 10.6 3.1a1.69 1.69 0 0 0 .2-.5c0-.2-.1-.2-.3-.2a10.26 10.26 0 0 0-1.4.4v-.1c0-.1 1.3-1 1.8-1.4a.31.31 0 0 1 .2-.1c.7 0 3.3 2.1 3.3 4.4a2.87 2.87 0 0 1-.9 2.2m17.7 9.7a40.81 40.81 0 0 1-5.1 5.1 1.67 1.67 0 0 1-1.1.4 2 2 0 0 1-1.7-2.2 8.46 8.46 0 0 1 1.3-3.8 1.42 1.42 0 0 0 .2-.4c0-.1 0-.1-.1-.1a.2.2 0 0 0-.2.1c-2.2 1.2-4.3 4.8-6.5 6.6a1.43 1.43 0 0 1-1 .4 2.71 2.71 0 0 1-2.3-2.7 1.88 1.88 0 0 1 .2-.8c1.9-4.6 7.4-8.3 9.4-9.2a3.35 3.35 0 0 1 1.4-.4c.9 0 1.5.7 2.3 2.4a.37.37 0 0 1 .1.3.16.16 0 0 1-.2.2.76.76 0 0 1-.4-.2.91.91 0 0 0-.7-.3c-2 0-7 3.7-8.3 6.3a.9.9 0 0 0-.1.5.35.35 0 0 0 .3.4 1.26 1.26 0 0 0 .7-.4c1.9-1.6 5.2-4.6 6.3-5a1.7 1.7 0 0 1 .7-.1 1.65 1.65 0 0 1 1.5 1.7.9.9 0 0 1-.1.5c-.4 1.1-2.1 3.5-2.5 4.7 0 .1-.1.3-.1.4a.35.35 0 0 0 .3.4.53.53 0 0 0 .3-.2 53.24 53.24 0 0 0 4.9-4.7.76.76 0 0 1 .5-.4c.1 0 .1.1.1.2a.37.37 0 0 1-.1.3"/><path d="M34.3 11.4a.16.16 0 0 0-.2-.2.22.22 0 0 1-.2-.2.21.21 0 0 1 .3-.2 2 2 0 0 1 1.8 2c0 1.1-.6 2.4-2 4.1a5 5 0 0 0-.5.7.1.1 0 0 0 .1.1 2.62 2.62 0 0 0 .8-.6c3.2-3.1 4.8-4.3 6-4.3a1.8 1.8 0 0 1 1.5 1.1 2.28 2.28 0 0 1 .3 1.1 7.34 7.34 0 0 1-1.3 3.4c-.9 1.6-1.6 2.8-1.6 3.7a.27.27 0 0 0 .3.3c.5 0 1.8-.9 4.2-3.4a2.19 2.19 0 0 1 1.1-.8c.1 0 .1 0 .1.1a2.41 2.41 0 0 1-.7 1c-2 2.3-3.9 4.1-5.3 4.1a1 1 0 0 1-.8-.2 2.76 2.76 0 0 1-1.5-2.6 6.38 6.38 0 0 1 1.1-3.3 8.52 8.52 0 0 0 1.3-2.8.25.25 0 0 0-.2-.3c-1.3 0-7.6 6.6-8.4 8.5a.72.72 0 0 1-.4.6 1.76 1.76 0 0 1-1.2-1.8c-.1-3.2 5.4-8.9 5.4-10.1" fill="#fff"/><path d="M62.9 6.8a.73.73 0 0 0-.6.2c-4.7 4.3-8.5 13.7-8.5 15.2 0 .3.1.3.2.3a.76.76 0 0 0 .4-.1c.8-.3 3.4-2.9 4.9-4.4a1.3 1.3 0 0 1 .7-.5c.1 0 .1 0 .1.2a1.55 1.55 0 0 1-.3.6 32.3 32.3 0 0 1-5.5 5.2 1.08 1.08 0 0 1-.6.1 2 2 0 0 1-2-2.1c0-1.8.9-3.5 1.7-5.3.1-.2.2-.4.1-.4a.68.68 0 0 0-.4.4c-1 1.6-4.7 6.4-5.9 7.2a.75.75 0 0 1-.5.1c-1.1 0-2.9-1.3-2.6-2.6.7-3.7 4.9-8.8 6.6-9.6a2.35 2.35 0 0 1 .8-.2 2.8 2.8 0 0 1 2.5 1.6v.2a.1.1 0 0 1-.1.1c-.1 0-.2-.1-.3-.1a.6.6 0 0 0-.4-.1c-1.4 0-3.8 2.9-5.5 6.6a2.65 2.65 0 0 0-.3 1c0 .2.1.2.1.2.2 0 .5-.1 1.4-1.1 4-4.3 6-6.6 6.5-7.3 2.2-3.5 4.4-7.4 5.4-7.4s2.6 1 2.6 1.7a.46.46 0 0 1-.5.3m50.3 6.5a53.16 53.16 0 0 0-7.5.5c-.4.1-.4.1-.6.6-2.9 5.2-3.1 6.9-3.3 8.2a.93.93 0 0 1-.7.9 3.81 3.81 0 0 1-1.6.3 1.86 1.86 0 0 1-2.1-2 9.32 9.32 0 0 1 .2-1.4 21 21 0 0 1 2.7-5.4 1.26 1.26 0 0 0 .4-.7.77.77 0 0 0-.5-.2 2 2 0 0 1-1.6-1.7 1.26 1.26 0 0 0 1.1.4 9.63 9.63 0 0 0 2-.3 1.18 1.18 0 0 0 .7-.4c2-1.8 5.1-6.2 5.1-7.1 0-.1-.2-.2-.2-.3a.54.54 0 0 1 .4-.4.2.2 0 0 1 .2.1 2.5 2.5 0 0 1 .9 2.2 9.18 9.18 0 0 1-2 4.9c-.1.1.1.3.3.3 3.6-.4 5.5-.5 8.6-.8.5-.1.5-.1.6-.3C119.5 5.5 123.7.5 127 .5a2.82 2.82 0 0 1 1.5.4 1.51 1.51 0 0 1 .9 1.3.57.57 0 0 1-.4.6 1.42 1.42 0 0 1-.4-.2c-.2-.2-.3-1.1-1-1.1s-1.4.6-2.8 2.2a20.09 20.09 0 0 0-3.8 6.4c0 .1-.1.2-.1.3s.1.3.4.2a14.77 14.77 0 0 1 2.1-.1 4.29 4.29 0 0 1 2.4.5l.2.2a.39.39 0 0 1-.4.2c-2.2 0-3.1 1.4-4.6 1.6a1.64 1.64 0 0 0-1.3.4c-1.2 2.1-2.8 7.2-2.8 9.4 0 .6.1.9.4.9a.76.76 0 0 0 .4-.1 1.27 1.27 0 0 1 .6-.1c.3 0 .5 0 .5.2s-.2.3-.9.6a8.4 8.4 0 0 1-3 .8c-1.8 0-2.8-1.1-2.8-3.2 0-1.8.8-4.4 2.5-7.7 0-.1.1-.1.1-.2a.25.25 0 0 0-.3-.2h-1.2" fill="#fff"/><path d="M131 16c0 1.2-3.2 4.7-6.7 6.3a1.08 1.08 0 0 1-.7.2c-.1 0-.1-.1-.1-.2a.76.76 0 0 1 .1-.4c.4-2 4-5 5.3-6.1a5 5 0 0 1 1.2-.3c.7 0 .9.2.9.5m.8.4a1.7 1.7 0 0 0-.1-.7 1.32 1.32 0 0 0-1.5-.9 1.68 1.68 0 0 0 .7-.9c0-.4-.4-.9-1.7-1.9a2.88 2.88 0 0 0-.6-.4 1 1 0 0 0-.7.4c-2.6 2.1-6.9 6.4-6.9 9.3a2.6 2.6 0 0 0 2.7 2.4c2.3 0 8.1-3.6 8.1-7.3m22.5 3.4c-2.3 2.4-3.4 3.7-4.8 3.7a1.7 1.7 0 0 1-.7-.1c-1.6-.5-2.1-1.3-2.1-2.4 0-1.5 1.2-3.4 2.3-5.2a3.77 3.77 0 0 0 .8-1.9c0-.3-.1-.4-.3-.4-1.4 0-7.1 5.1-8.8 9.4a.28.28 0 0 1-.3.2 1.85 1.85 0 0 1-1.2-.8 2.82 2.82 0 0 1-.4-1.5A8.68 8.68 0 0 1 141 16a4.53 4.53 0 0 0 1-2 .25.25 0 0 0-.2-.3.76.76 0 0 0-.4.1c-2 .8-7.1 7.3-7.8 8.9a.38.38 0 0 1-.2.2 1.24 1.24 0 0 0-.3-.2 1.94 1.94 0 0 1-.8-1.6c0-3.1 5.2-8.8 5.2-9.8 0-.2-.2-.2-.2-.4a.39.39 0 0 1 .4-.2c.6 0 1.1.7 1.1 1.7a5.09 5.09 0 0 1-.8 2.6 1.69 1.69 0 0 0-.2.5v.1a11.62 11.62 0 0 0 1.8-1.4 5.25 5.25 0 0 1 3.1-1.5 1.4 1.4 0 0 1 1.5 1.6 6.75 6.75 0 0 1-.3 1.7 1.09 1.09 0 0 0-.1.5v.1a1.24 1.24 0 0 1 .3-.2c3.1-2.9 5.2-4 6.5-4s1.7.8 1.7 2.1a6.69 6.69 0 0 1-.8 2.9 17.18 17.18 0 0 0-1.8 4.7.4.4 0 0 0 .4.5c.6 0 1.9-1.1 3.6-2.9.8-.8 1.1-1.1 1.4-1.1a.1.1 0 0 1 .1.1 6.41 6.41 0 0 1-.9 1.1" fill="#fff"/><path d="M166.6 17c-2.1 2.9-6.7 7-9.9 7a2.87 2.87 0 0 1-2.5-1.4 3.09 3.09 0 0 1-.5-1.8 8.73 8.73 0 0 1 1.1-3.7c1.2-2.2 3.8-5.5 5.7-5.5a1.45 1.45 0 0 1 .7.2 7.41 7.41 0 0 1 2.5 2.5 1.45 1.45 0 0 1 .2.7c0 1.5-2.9 3-4.5 3.6a1.09 1.09 0 0 1-.5.1.25.25 0 0 1-.3-.2.9.9 0 0 1 .5-.6c1.9-1.3 3.2-2.3 3.3-3.5 0-.3-.1-.4-.3-.4a4.12 4.12 0 0 0-.8.3 12.11 12.11 0 0 0-5.7 7.8c-.1.7.2.8.7.8 2 0 7.9-4.1 10-6.3a.2.2 0 0 1 .2-.1c.1 0 .1.1.1.2a.32.32 0 0 1 0 .3M2.4 31.2v3.1h1.5a1.88 1.88 0 0 0 .8-.2 1 1 0 0 0 .3-.9h.2v2.6H5a1.48 1.48 0 0 0-.1-.7l-.3-.3a.92.92 0 0 0-.6-.1H2.4v2.5a1.51 1.51 0 0 0 .1.8.43.43 0 0 0 .3.3 4.33 4.33 0 0 0 .5.1h.3v.2H0v-.2h.3a.78.78 0 0 0 .7-.3 1.74 1.74 0 0 0 .1-.9v-5.1a1.51 1.51 0 0 0-.1-.8.53.53 0 0 0-.2-.3 1.27 1.27 0 0 0-.6-.1H0v-.2h6.1l.1 1.7h-.1a1.51 1.51 0 0 0-.4-.8 1.33 1.33 0 0 0-.5-.3 2.51 2.51 0 0 0-1-.1H2.4m8.6 7.2v.2H7.5v-.2h.3a.78.78 0 0 0 .7-.3 1.74 1.74 0 0 0 .1-.9v-5.1a1.51 1.51 0 0 0-.1-.8.53.53 0 0 0-.2-.3 1.27 1.27 0 0 0-.6-.1h-.2v-.2H11v.2h-.3a.78.78 0 0 0-.7.3 1.44 1.44 0 0 0-.2.9v5.1a1.51 1.51 0 0 0 .1.8.43.43 0 0 0 .3.3 1.27 1.27 0 0 0 .6.1h.2m.5-7.7h2.3l5 5.9v-4.5a1.44 1.44 0 0 0-.2-.9.84.84 0 0 0-.7-.2h-.3v-.2h2.9v.2h-.3a1 1 0 0 0-.8.3 1.51 1.51 0 0 0-.1.8v6.6h-.2l-5.5-6.3v4.9a1.44 1.44 0 0 0 .2.9.84.84 0 0 0 .7.2h.3v.2h-2.9v-.2h.3a1 1 0 0 0 .8-.3 1.51 1.51 0 0 0 .1-.8v-5.5a2.25 2.25 0 0 0-.5-.5.76.76 0 0 0-.5-.2 4.33 4.33 0 0 0-.5-.1v-.3m12.2 4.9l1.5-3.2 1.4 3.2h-2.9m3.5 1.5a1.51 1.51 0 0 1 .2.8.53.53 0 0 1-.2.3 2 2 0 0 1-.7.2v.2h3.3v-.2a1.14 1.14 0 0 1-.8-.3 2.89 2.89 0 0 1-.6-1l-2.8-6.5h-.3l-2.9 6.5a2.89 2.89 0 0 1-.7 1.1 1 1 0 0 1-.7.2v.2h2.6v-.2a1.29 1.29 0 0 1-.8-.2.53.53 0 0 1-.2-.3 2.54 2.54 0 0 1 .2-.7l.6-1.2h3.2zm3-6.4h2.3l5 5.9v-4.5a1.44 1.44 0 0 0-.2-.9.84.84 0 0 0-.7-.2h-.3v-.2h2.9v.2h-.2a.68.68 0 0 0-.7.3 1.51 1.51 0 0 0-.1.8v6.6h-.2l-5.5-6.3v4.9a1.44 1.44 0 0 0 .2.9.84.84 0 0 0 .7.2h.3v.2h-2.9v-.2h.2a1 1 0 0 0 .8-.3 1.51 1.51 0 0 0 .1-.8v-5.5a2.25 2.25 0 0 0-.5-.5.76.76 0 0 0-.5-.2 4.33 4.33 0 0 0-.5-.1v-.3m17-.1l.2 2.7h-.2a3.15 3.15 0 0 0-1.1-1.7 2.46 2.46 0 0 0-1.7-.5 2.6 2.6 0 0 0-1.5.4 2.68 2.68 0 0 0-1 1.3 4.81 4.81 0 0 0-.4 2.2 3.42 3.42 0 0 0 .4 1.8 2.54 2.54 0 0 0 1.1 1.2 3.06 3.06 0 0 0 1.7.4 3.19 3.19 0 0 0 1.4-.3 4 4 0 0 0 1.4-1.3l.2.1a3.61 3.61 0 0 1-1.5 1.5 4.23 4.23 0 0 1-2 .5 4 4 0 0 1-3.2-1.4 3.75 3.75 0 0 1-.8-2.5 4.28 4.28 0 0 1 .6-2.2 3.61 3.61 0 0 1 1.5-1.5 3.84 3.84 0 0 1 2.1-.5 3.92 3.92 0 0 1 1.8.4.76.76 0 0 0 .4.1.37.37 0 0 0 .3-.1.52.52 0 0 0 .2-.4h.1m5 7.6v.2H49v-.2h.3a.78.78 0 0 0 .7-.3 1.74 1.74 0 0 0 .1-.9v-5.1a1.51 1.51 0 0 0-.1-.8.53.53 0 0 0-.2-.3 1.27 1.27 0 0 0-.6-.1h-.3v-.2h3.5v.2h-.3a.78.78 0 0 0-.7.3 1.44 1.44 0 0 0-.2.9v5.1a1.51 1.51 0 0 0 .1.8.43.43 0 0 0 .3.3 1.27 1.27 0 0 0 .6.1h.3m3.4-2.8l1.5-3.2 1.4 3.2h-2.9m3.5 1.5a1.51 1.51 0 0 1 .2.8.53.53 0 0 1-.2.3 2 2 0 0 1-.7.2v.2h3.4v-.2a1.14 1.14 0 0 1-.8-.3 2.89 2.89 0 0 1-.6-1l-2.8-6.5h-.3l-2.9 6.5a2.89 2.89 0 0 1-.7 1.1 1 1 0 0 1-.7.2v.2h2.6v-.2a1.29 1.29 0 0 1-.8-.2.53.53 0 0 1-.2-.3 2.54 2.54 0 0 1 .2-.7l.6-1.2h3.2zm10.3-.7h.2l-.7 2.1h-6.4v-.2h.3a.78.78 0 0 0 .7-.3 1.74 1.74 0 0 0 .1-.9V32a1.44 1.44 0 0 0-.2-.9.91.91 0 0 0-.7-.3h-.3v-.2h3.7v.2a2.22 2.22 0 0 0-.9.1 1.38 1.38 0 0 0-.4.3 1.74 1.74 0 0 0-.1.9v5a1.48 1.48 0 0 0 .1.7.38.38 0 0 0 .2.2 5.85 5.85 0 0 0 1 .1h.8a4.15 4.15 0 0 0 1.3-.1 1.16 1.16 0 0 0 .7-.5 3.58 3.58 0 0 0 .6-1.1m9.7-5.8v2.7h-.3a3.37 3.37 0 0 0-.4-1.2 1.78 1.78 0 0 0-.8-.7 2.28 2.28 0 0 0-1.1-.3 1.5 1.5 0 0 0-1.1.4.91.91 0 0 0-.4.8 1.08 1.08 0 0 0 .3.7 6.3 6.3 0 0 0 1.8 1.1 15.12 15.12 0 0 1 1.6.9 4.62 4.62 0 0 1 .7.7 1.34 1.34 0 0 1 .2.9 1.8 1.8 0 0 1-.7 1.5 2.88 2.88 0 0 1-1.9.6 1.7 1.7 0 0 1-.7-.1c-.1 0-.4-.1-.8-.2a3.55 3.55 0 0 1-.7-.1c-.1 0-.2 0-.2.1a.48.48 0 0 0-.1.4h-.2v-2.7h.2a3.32 3.32 0 0 0 .4 1.3 2.7 2.7 0 0 0 .8.7 2.66 2.66 0 0 0 1.2.3 1.59 1.59 0 0 0 1.2-.4 1.22 1.22 0 0 0 .4-.9 1.42 1.42 0 0 0-.2-.6 1.21 1.21 0 0 0-.5-.5 11.05 11.05 0 0 0-1.3-.7l-1.5-.9a4.62 4.62 0 0 1-.7-.7 1.49 1.49 0 0 1-.2-.9 1.93 1.93 0 0 1 .7-1.5 2.52 2.52 0 0 1 1.7-.6 3.93 3.93 0 0 1 1.4.3 1.09 1.09 0 0 0 .5.1.37.37 0 0 0 .3-.1 1.47 1.47 0 0 0 .2-.4h.2m4.2.6v3.1h1.8a1.44 1.44 0 0 0 .9-.2 1.88 1.88 0 0 0 .4-.9h.2v2.7h-.2a2 2 0 0 0-.2-.7 1.38 1.38 0 0 0-.4-.3 1.72 1.72 0 0 0-.8-.1h-1.8v3.1a.38.38 0 0 0 .2.2 2 2 0 0 0 .5.1h1.4a2.51 2.51 0 0 0 1-.1 2.09 2.09 0 0 0 .6-.4 3.47 3.47 0 0 0 .8-1.1h.3l-.7 2h-6.4v-.2h.3a1.27 1.27 0 0 0 .6-.1l.3-.3a5.38 5.38 0 0 0 .1-.8v-5.1a1.44 1.44 0 0 0-.2-.9.75.75 0 0 0-.7-.2h-.3v-.2h6.4l.1 1.7h-.2a4.65 4.65 0 0 0-.3-.9.55.55 0 0 0-.5-.3 2.22 2.22 0 0 0-.9-.1h-2.3m7.9.1a3.75 3.75 0 0 1 1-.1 1.9 1.9 0 0 1 1.3.5 1.66 1.66 0 0 1 .5 1.2 1.43 1.43 0 0 1-.6 1.2 3 3 0 0 1-1.8.5h-.3v-3.3m5.8 7.1a2.9 2.9 0 0 1-1.1-.3 4.64 4.64 0 0 1-1-1l-1.7-2.3a2.19 2.19 0 0 0 1.5-.8 2.11 2.11 0 0 0 .5-1.3 1.75 1.75 0 0 0-.4-1.2 2.1 2.1 0 0 0-1.1-.7 8.44 8.44 0 0 0-1.9-.2h-3v.2h.3a.91.91 0 0 1 .7.3 1.44 1.44 0 0 1 .2.9v5.1a2 2 0 0 1-.1.9.78.78 0 0 1-.7.3h-.3v.2h3.5v-.2h-.3a.91.91 0 0 1-.7-.3 1.44 1.44 0 0 1-.2-.9v-2.3h.9l2.8 3.7h2.2v-.1h-.1zm8.2-7.7v.2a1.49 1.49 0 0 0-.7.3 3.49 3.49 0 0 0-.6.9l-2.9 6.7h-.2L98.1 32l-.3-.6a1.38 1.38 0 0 0-.4-.3 1.08 1.08 0 0 0-.6-.1v-.2h3.4v.2a1 1 0 0 0-.7.2.53.53 0 0 0-.2.3 2.3 2.3 0 0 0 .3.9l2.1 4.6 2-4.5a2.94 2.94 0 0 0 .3-.9.53.53 0 0 0-.2-.3.85.85 0 0 0-.6-.2h-.1v-.2h2.5m4.3 7.5v.2h-3.5v-.2h.3a.78.78 0 0 0 .7-.3 1.74 1.74 0 0 0 .1-.9v-5.1a1.51 1.51 0 0 0-.1-.8.53.53 0 0 0-.2-.3 1.27 1.27 0 0 0-.6-.1h-.3v-.2h3.5v.2h-.3a.78.78 0 0 0-.7.3 1.44 1.44 0 0 0-.2.9v5.1a1.51 1.51 0 0 0 .1.8.43.43 0 0 0 .3.3 1.09 1.09 0 0 0 .5.1h.4m8.3-7.8l.2 2.7h-.2a3.15 3.15 0 0 0-1.1-1.7 2.46 2.46 0 0 0-1.7-.5 2.6 2.6 0 0 0-1.5.4 2.68 2.68 0 0 0-1 1.3 4.81 4.81 0 0 0-.4 2.2 3.42 3.42 0 0 0 .4 1.8A2.54 2.54 0 0 0 114 38a3.06 3.06 0 0 0 1.7.4 3.19 3.19 0 0 0 1.4-.3 4 4 0 0 0 1.4-1.3l.2.1a3.61 3.61 0 0 1-1.5 1.5 4.23 4.23 0 0 1-2 .5 4 4 0 0 1-3.2-1.4 3.75 3.75 0 0 1-.8-2.5 4.28 4.28 0 0 1 .6-2.2 3.61 3.61 0 0 1 1.5-1.5 3.84 3.84 0 0 1 2.1-.5 3.92 3.92 0 0 1 1.8.4.76.76 0 0 0 .4.1.37.37 0 0 0 .3-.1.52.52 0 0 0 .2-.4h.1m3.7.4v3.1h1.8a1.44 1.44 0 0 0 .9-.2 1.88 1.88 0 0 0 .4-.9h.2v2.7h-.1a2 2 0 0 0-.2-.7 1.38 1.38 0 0 0-.4-.3 1.72 1.72 0 0 0-.8-.1h-1.8v3.1a.38.38 0 0 0 .2.2 2 2 0 0 0 .5.1h1.4a2.51 2.51 0 0 0 1-.1 2.09 2.09 0 0 0 .6-.4 3.47 3.47 0 0 0 .8-1.1h.3l-.7 2h-6.4v-.2h.3a1.27 1.27 0 0 0 .6-.1l.3-.3a5.38 5.38 0 0 0 .1-.8v-5.1a1.44 1.44 0 0 0-.2-.9.75.75 0 0 0-.7-.2h-.3v-.2h6.4l.1 1.7h-.2a4.65 4.65 0 0 0-.3-.9.55.55 0 0 0-.5-.3 2.22 2.22 0 0 0-.9-.1h-2.4m11.2-.6v2.7h-.2a3.37 3.37 0 0 0-.4-1.2 1.78 1.78 0 0 0-.8-.7 2.28 2.28 0 0 0-1.1-.3 1.5 1.5 0 0 0-1.1.4.91.91 0 0 0-.4.8 1.08 1.08 0 0 0 .3.7 6.3 6.3 0 0 0 1.8 1.1 15.12 15.12 0 0 1 1.6.9 4.62 4.62 0 0 1 .7.7 1.49 1.49 0 0 1 .2.9 1.8 1.8 0 0 1-.7 1.5 2.88 2.88 0 0 1-1.9.6 1.7 1.7 0 0 1-.7-.1c-.1 0-.4-.1-.8-.2a4.5 4.5 0 0 0-.8-.2c-.1 0-.2 0-.2.1a.48.48 0 0 0-.1.4h-.2V36h.2a3.32 3.32 0 0 0 .4 1.3 2.7 2.7 0 0 0 .8.7 2.66 2.66 0 0 0 1.2.3 1.59 1.59 0 0 0 1.2-.4 1.22 1.22 0 0 0 .4-.9 1.42 1.42 0 0 0-.2-.6 1.21 1.21 0 0 0-.5-.5 11.05 11.05 0 0 0-1.3-.7l-1.5-.9a4.62 4.62 0 0 1-.7-.7 1.49 1.49 0 0 1-.2-.9 1.93 1.93 0 0 1 .7-1.5 2.52 2.52 0 0 1 1.7-.6 3.93 3.93 0 0 1 1.4.3 1.09 1.09 0 0 0 .5.1.37.37 0 0 0 .3-.1 1.47 1.47 0 0 0 .2-.4h.2m3.6 9.3a1.5 1.5 0 0 0 .4-1.1 1.22 1.22 0 0 0-.3-.9.91.91 0 0 0-.7-.3 1.42 1.42 0 0 0-.6.2.48.48 0 0 0-.2.5.68.68 0 0 0 .7.7h.2a.37.37 0 0 1 .3-.1h.1a.35.35 0 0 1 .1.2 1.61 1.61 0 0 1-.3.9 1.7 1.7 0 0 1-1 .6v.3a8.51 8.51 0 0 0 1.3-1m8.8-1.4v.2H142v-.2h.3a.78.78 0 0 0 .7-.3 1.74 1.74 0 0 0 .1-.9v-5.1a1.51 1.51 0 0 0-.1-.8.53.53 0 0 0-.2-.3 1.27 1.27 0 0 0-.6-.1h-.3v-.2h3.5v.2h-.3a.78.78 0 0 0-.7.3 1.44 1.44 0 0 0-.2.9v5.1a1.51 1.51 0 0 0 .1.8.43.43 0 0 0 .3.3 1.27 1.27 0 0 0 .6.1h.3m.5-7.7h2.3l5 5.9v-4.5a1.44 1.44 0 0 0-.2-.9.84.84 0 0 0-.7-.2h-.3v-.2h2.9v.2h-.3a.68.68 0 0 0-.7.3 1.51 1.51 0 0 0-.1.8v6.6h-.2l-5.5-6.3v4.9a1.44 1.44 0 0 0 .2.9.84.84 0 0 0 .7.2h.3v.2h-2.9v-.2h.3a1 1 0 0 0 .8-.3 1.51 1.51 0 0 0 .1-.8v-5.5a2.25 2.25 0 0 0-.5-.5.76.76 0 0 0-.5-.2 4.33 4.33 0 0 0-.5-.1v-.3m17-.1l.2 2.7h-.2a3.15 3.15 0 0 0-1.1-1.7 2.46 2.46 0 0 0-1.7-.5 2.6 2.6 0 0 0-1.5.4 2.68 2.68 0 0 0-1 1.3 4.81 4.81 0 0 0-.4 2.2 3.42 3.42 0 0 0 .4 1.8A2.54 2.54 0 0 0 159 38a2.93 2.93 0 0 0 1.6.4 3.19 3.19 0 0 0 1.4-.3 4 4 0 0 0 1.4-1.3l.2.1a3.61 3.61 0 0 1-1.5 1.5 4.23 4.23 0 0 1-2 .5 4 4 0 0 1-3.2-1.4 3.75 3.75 0 0 1-.8-2.5 4.28 4.28 0 0 1 .6-2.2 3.61 3.61 0 0 1 1.5-1.5 4.06 4.06 0 0 1 2.1-.5 3.92 3.92 0 0 1 1.8.4.76.76 0 0 0 .4.1.37.37 0 0 0 .3-.1.52.52 0 0 0 .2-.4h.2m2.7 6.7a1.06 1.06 0 0 1 .5.2.76.76 0 0 1 .2.5 1.06 1.06 0 0 1-.2.5.76.76 0 0 1-.5.2 1.06 1.06 0 0 1-.5-.2.76.76 0 0 1-.2-.5 1.06 1.06 0 0 1 .2-.5.48.48 0 0 1 .5-.2" fill="#fff"/><path d="M87.9 7.3V0h-3.3v4.8L78.7.3 65.3 12.4l1.5 2.1 1.9-1.6v14.9h8.4c2 0 1.2-4.4 1.2-4.4h1.6s-.8 4.4 1.2 4.4h10.1V12.9l1.9 1.6 1.5-2.1-6.7-5.1m-1.5 9.3a.75.75 0 0 1-.3.3c-2.7.9-5.5.8-8.4 1a29.29 29.29 0 0 1 6.7.7l-.5.5a1.51 1.51 0 0 1-.4.4 35.45 35.45 0 0 1-4.7.8 9.54 9.54 0 0 1 3.3.9l-.6.6-.3.3a12.3 12.3 0 0 1-3.9.8c.3-.1.6-.8.9-.9l2.1-.3c-1.3-.4-2.8-.5-4.2-.9a2.36 2.36 0 0 0 .5-.5 1.51 1.51 0 0 1 .4-.4 40 40 0 0 1 4.8-.8c-2.7-.5-5.6-.2-8.4-.7l.5-.5a1.51 1.51 0 0 1 .4-.4c3.2-.8 6.6-.4 9.9-.9-3.8-.4-7.7.4-11.4-1l.5-.5.4-.4c3.1-.7 6.3-.4 9.4-.9-2.7-.4-5.4-.2-8-1.1l.5-.5a.54.54 0 0 1 .4-.3c2.3-.7 4.8-.6 7.2-.8-.3 0-.6.8-.9.9-1.6.2-3.2.1-4.8.3 2.6.6 5.4.4 8 .9l-.6.6a.85.85 0 0 1-.3.3c-2.9 1.1-6 .9-9.1 1.2 3.7.8 7.6-.1 11.4.8l-.5.5" fill="#ca992c"/></svg>