<svg xmlns="http://www.w3.org/2000/svg" viewBox="0 0 1016.26 813.26"><title>Untitled-3</title><path d="M1016.26 285.26v528h-564c.22-2.29.62-4.58.63-6.88 0-10.74 0-21.48-.09-32.23 0-5.75-.28-11.5-.22-17.25.06-5.45 1.29-11.21-5.69-13.8a4 4 0 0 1-1.8-2.83c-.58-4.42-1-8.87-1.26-13.33-.25-5.07.29-10.21-.37-15.21-1.11-8.45 1.17-13.42 8.63-16.64 6.24-2.69 6.42-5.24 1-9.64-4-3.29-7.34-6.71-8.41-12.61-1.61-8.85-4.58-17.53-7.7-26-2-5.41-5.23-10.37-8-15.45s-4-10.42-2-16.22c.65-1.85.44-4 .57-5.45l-11.08-3.17c6.83-3 12.67-4.4 17.17-7.67 12.41-9 16.88-22.79 18.85-37.11 1.23-8.93.32-18.16.21-27.26-.28-22.64-.87-45.27-.91-67.9a144.31 144.31 0 0 0-8.08-48.3 6.35 6.35 0 0 1-.32-3.81c1.17-3.47-.73-5-3.44-5.95-7.32-2.66-14.73-5.07-22-7.87-11.58-4.46-23.13-7.84-35.86-5.15-5.92 1.25-9.09-3.19-8.68-9.53a16.6 16.6 0 0 0-1.74-7.42c-2.4-5.37-5.12-10.61-7.82-15.84-.77-1.51-1.61-3.25-2.92-4.16-4.07-2.84-8.4-5.29-12.58-8-4.41-2.82-7.66-2.48-11.7.89-5.34 4.45-10.67 9-16.35 13-10.41 7.32-21.09 14.25-31.63 21.4-8.2 5.56-16.31 11.27-24.56 16.77-6.18 4.12-12.55 8-18.8 12-2.92 1.88-6.1 3.56-8.53 6-6.85 6.78-13.37 13.89-20 20.85-.8.83-1.73 2.17-2.61 2.18-6.08 0-8.12 5-11.24 8.71-2.65 3.17-5.4 6.27-8.33 9.18a3.91 3.91 0 0 1-3.49.88c-.8-.4-1.25-2.18-1.25-3.35a10.18 10.18 0 0 1 1.15-3.75c4.77-11 9.77-21.9 14.34-33 5.47-13.26 10.62-26.66 15.77-40 .58-1.51.29-3.35.42-5.25-6.63-.42-12.63-1.5-18.5-1-12.86 1-25.67 2.72-38.46 4.45-5.51.75-11.33 1.36-16.3 3.6a291.28 291.28 0 0 0-29.57 15.51C105.63 407.32 93 415.86 80.15 424c-10.73 6.81-21.61 13.38-32.24 20.34-5.77 3.78-10.93 8.48-16.76 12.16-9.16 5.79-18.64 11.08-28 16.53a10 10 0 0 1-2.48.68l-.66-1c7.58-6.64 14.93-13.57 22.8-19.83 6.61-5.26 14.06-9.45 20.75-14.62 14.74-11.43 28.44-24.31 44.06-34.4 13.52-8.76 23-20.82 33.13-32.49 6.91-7.94 12.8-16.77 19.65-24.77 9.17-10.72 18.6-21.25 28.36-31.44 7.13-7.45 10.51-15.51 9.19-26a28.58 28.58 0 0 1 2.28-15.24c7.37-15.19 15.43-30.07 23.69-44.8 2.45-4.36 4.06-8.42 3.9-13.49-.31-9.74-.24-19.51 0-29.26a45.86 45.86 0 0 1 1.5-12.3c3.19-10.45 6.09-21.12 10.64-31a452.86 452.86 0 0 1 22.27-42.24c6.54-11 14.88-20.84 21.88-31.55 3.42-5.23 6.93-9.57 12.77-12.47 5.43-2.7 9.92-7.23 15.05-10.62 1.43-.94 4.27-1.59 5.4-.82 5.18 3.54 8.95 8.33 9.44 14.93A86.85 86.85 0 0 1 304 87.6c-2.11 8.63.12 16.39 5.15 23.82 2.48 3.67 8.24 7.35 3.29 13.3-.43.52.24 2.19.71 3.18a60.54 60.54 0 0 0 4.78 9.29c.9 1.29 3.66 2.65 4.78 2.17a52 52 0 0 0 11-6.45c3.47-2.69 6.27-6.24 9.66-9.06a5.6 5.6 0 0 1 4.6-.63c6.63 2.23 12.5 1.68 17.95-3.15 2.41-2.14 5.37-4.59 8.33-5a45.18 45.18 0 0 1 14.32.84c3.47.68 5.41-.69 7.87-2.58 4.71-3.64 9.21-7.92 16.31-4.09 2.56 1.38 6.64.7 9.76-.1 1.48-.38 2.35-3.22 3.44-5 2.84-4.54 9.41-8.76 12.75-7.09 6.48 3.24 12.91 1.33 19.05.26 11.93-2.08 23.78-3.93 36-3.67s24.34-.15 36.49.18c3.68.1 7.36 1.56 11 2.61 5.66 1.66 11.21 3.7 16.91 5.19 3.44.9 7.66 2.48 10.53 1.3 10.33-4.21 21-3.55 31.51-3.07 8.22.37 16.38 3.2 22.13 9.08a46.09 46.09 0 0 0 21.41 12.69 31.29 31.29 0 0 1 6.39 2.74c6.13 3.29 11.94 7.37 18.35 9.91 11.35 4.5 23 8.22 34.64 12 6.57 2.16 6.87 2 8.12-4.73.63-3.36.23-6.92.24-10.39 0-1.45-.45-3-.17-4.34 3.84-18.62 10.49-36.32 18.67-53.38 7.75-16.15 16.52-31.81 28.63-45.25C767.21 18.7 776 9.25 784.44 0c5.23 2.92 8.06 7.51 8.25 11.88.18 4-3.43 3.29-5.49 4.52a5.36 5.36 0 0 0-1.15 1.6l-9.55 13.47-3.87-1.76c-3.28 7.09-6.4 13.94-9.61 20.75-3.64 7.72-7.39 15.38-11 23.1a61.44 61.44 0 0 0-2.23 5.79c-1.07 3-1.21 7.65-3.29 8.79a6.79 6.79 0 0 0-3.16 8.33c1.45 4.47.37 8.38-.1 12.58a20 20 0 0 0 .45 7.72c2.82 9.43 6 18.76 9 28.14a14.33 14.33 0 0 1 .23 2.48c.63 4.92 1.18 9.85 2 14.75.18 1.09 1.14 2.72 2 2.92 7.37 1.73 9.87 7.54 12 13.74 2 5.62 3.29 11.56 6 16.77 5 9.67 10.86 18.93 16.43 28.31 3.54 6 7.77 11.59 10.72 17.83 3.82 8.08 7.26 16.06 15.28 21.18 4.42 2.82 9.12 6 12 10.2 4.92 7 11.91 10.42 19.22 13.45 10.45 4.34 20.8 10.19 32.79 5.19a62.23 62.23 0 0 1 6.41-2.45c4.39-1.28 8.83-3.34 13.26-3.37 15.62-.12 31.25.74 46.88.75 15.13 0 30.25-.59 45.38-.92z"/></svg>