<svg width="512" height="512" viewBox="0 0 512 512" fill="none" xmlns="http://www.w3.org/2000/svg">
<rect width="512" height="512" rx="134" fill="#5D6046"/>
<path d="M141.942 255.505C166.156 257.486 190.865 258.477 215.079 258.477C213.597 276.308 211.62 285.72 211.62 299.093C211.62 312.467 216.068 317.421 223.48 317.421C233.364 317.421 236.823 306.523 236.823 279.28C236.823 218.355 237.317 154.953 234.352 97C263.508 97.9906 319.35 97.9906 349 97C346.529 153.963 344.552 217.364 344.552 302.065C344.552 377.355 308.972 415 235.834 415C170.11 415 137 382.308 137 315.935C137 304.047 138.483 281.757 141.942 255.505Z" fill="#FBFBF9"/>
</svg>
