<svg id="Layer_1" data-name="Layer 1" xmlns="http://www.w3.org/2000/svg" viewBox="0 0 953.55 1000"><title>j</title><path d="M693.66,1.61H973.14c4.84,0,4.84,16.15,0,16.15-71.08,1.61-85.62,3.23-88.85,6.46S879.44,42,879.44,114.7c0,227.79,1.61,148.62,1.61,462,0,145.39-24.23,224.55-96.93,297.25-88.85,88.85-210,126-405.49,126-163.17,0-235.86-40.39-290.79-95.31-42-42-64.62-95.31-64.62-168,0-116.32,71.08-203.56,187.4-203.56,106.62,0,171.24,72.7,171.24,163.17,0,48.47-11.31,93.7-51.7,127.63-77.54,69.47-185.78,69.47-193.86,77.54-1.61,1.61,0,8.07,6.46,14.54,24.23,24.23,98.54,58.16,164.78,58.16,69.47,0,113.08-22.61,135.7-67.85,17.77-35.54,24.23-82.39,24.23-142.17,0-201.94-3.23-429.72-3.23-670.44,0-51.7,0-64.62-4.85-69.47s-16.15-6.46-101.78-8.08c-4.84,0-4.84-16.15,0-16.15C431.95,0,593.5,1.61,693.66,1.61ZM194.47,673.67c3.23-48.47,9.69-77.54,19.38-105,6.46,4.84,14.54,17.77,16.16,27.46h1.61c1.61-6.46,0-21-6.46-27.46,12.92,4.84,21,19.38,27.46,33.93h1.61c0-11.31-6.46-22.62-11.31-29.08C260.7,580,275.24,601,284.94,622h1.61c-3.23-16.15-11.31-30.69-21-45.23,24.23,12.92,43.62,35.54,54.93,64.62h1.62c-4.85-22.62-17.77-42-33.93-59.78,33.93,16.15,53.31,43.62,66.24,71.08H356c-14.54-61.39-80.77-105-153.47-101.78-92.08,4.84-156.7,79.16-156.7,177.7,0,54.93,12.92,98.55,48.47,130.86l1.61-1.62C71.69,827.14,62,790,60.38,752.83,58.76,701.13,70.07,646.2,104,610.66c-14.54,29.08-19.39,50.08-24.23,80.77-9.69,58.16-1.61,134.09,43.62,177.71l1.61-1.61c-33.92-48.47-40.39-114.7-29.08-174.47,6.46-35.54,21-74.31,35.54-90.47-11.31,37.15-16.15,64.62-19.39,98.54-4.84,61.39,3.23,129.24,37.16,172.86l1.61-1.62c-22.61-53.31-30.69-113.08-24.23-171.24,3.23-30.69,8.07-58.16,33.92-108.24C149.23,643,146,665.59,142.77,706c-4.85,50.08,6.46,116.32,27.46,168h1.61c-6.46-48.47-16.15-108.24-12.92-158.32,3.23-45.23,9.69-98.54,29.08-134.09-6.46,42-9.69,64.62-11.31,98.55-1.61,45.23-3.23,121.16,11.31,189h1.61C189.62,781.91,189.62,733.44,194.47,673.67Zm200.32,302.1C506.26,962.85,600,928.92,640.35,848.15c22.62-45.24,25.85-106.63,25.85-161.55V436.19c0-84,0-168,1.61-250.41,1.62-53.31,0-111.47,3.23-163.16,1.61-3.23-29.08-3.23-29.08,0-1.61,51.7,0,109.85,1.62,163.16,1.61,82.39,1.61,166.4,4.84,250.41C650,518.58,650,602.59,650,686.59c0,79.16-14.54,137.32-40.39,174.48,9.69-24.23,16.15-54.93,19.38-84,4.85-33.93,4.85-69.47,4.85-105,0-82.39-1.61-166.4-1.61-248.79,0-84,1.61-168,1.61-250.41,0-48.46,1.61-103.39,3.23-150.24,0-3.23-27.46-3.23-27.46,0,0,46.85,1.61,101.78,1.61,150.24,0,84,3.23,166.4,4.84,250.41,1.62,82.39,1.62,166.4,1.62,248.79,0,35.54,0,69.47-4.85,103.39C606.42,809.37,600,843.3,577.34,874c17.77-42,21-82.39,22.62-124.4,1.61-69.47,0-138.94,0-208.4V282.72c0-85.62,1.61-176.09,1.61-260.1,0-3.23-24.23-3.23-24.23,0,1.61,84,3.23,174.47,3.23,260.1,0,87.24,4.84,172.86,4.84,260.1,0,67.85,1.61,138.94-1.61,206.79-1.61,45.23-12.92,93.7-37.16,135.71,14.54-37.16,19.39-75.93,21-113.09,1.61-84,0-166.4,0-250.41V273c0-82.39,1.61-169.63-1.61-250.4,0-3.23-19.39-3.23-19.39,0,1.61,80.77,1.61,168,1.61,250.4,0,84,3.23,166.4,3.23,250.41,0,82.39,3.23,166.39,0,248.79-3.23,42-12.92,88.85-35.54,124.39,9.69-24.23,14.54-51.7,16.15-75.93,8.08-90.46,3.23-177.7,3.23-264.94,0-88.85-1.61-177.71-1.61-266.56s1.61-179.32-3.23-266.56c0-3.23-16.15-3.23-16.15,0,3.23,85.62,3.23,179.32,3.23,266.56,0,88.85,1.61,177.71,1.61,266.56,0,87.24,6.46,176.09-3.23,261.71-3.23,30.7-12.92,61.39-29.08,87.24,4.85-11.31,6.46-22.62,9.69-45.23,11.31-74.31,6.46-156.71,6.46-239.1,1.61-100.16-1.62-198.71-3.23-298.87-1.61-98.55,3.23-200.33-3.23-298.87,0-3.23-14.54-3.23-14.54,0,4.84,95.31,3.23,200.32,3.23,298.87,0,100.16,1.61,198.71,1.61,298.87,0,82.39,4.85,177.71-9.69,247.17-8.08,40.39-32.31,85.62-82.39,106.62v1.61Z" transform="translate(-23.22)"/></svg>